<svg width="24" height="24" viewBox="0 0 24 24" xmlns="http://www.w3.org/2000/svg">
  <path fill-rule="evenodd" clip-rule="evenodd" d="M9.83 2.29C10.79 0.609999 13.21 0.609999 14.17 2.29L22.155 16.262C23.107 17.929 21.904 20.002 19.985 20.002H4.014C2.095 20.002 0.892 17.929 1.844 16.262L9.829 2.29H9.83ZM12 6.965C12.1989 6.965 12.3897 7.04402 12.5303 7.18467C12.671 7.32532 12.75 7.51609 12.75 7.715V11.253C12.75 11.4519 12.671 11.6427 12.5303 11.7833C12.3897 11.924 12.1989 12.003 12 12.003C11.8011 12.003 11.6103 11.924 11.4697 11.7833C11.329 11.6427 11.25 11.4519 11.25 11.253V7.715C11.25 7.51609 11.329 7.32532 11.4697 7.18467C11.6103 7.04402 11.8011 6.965 12 6.965ZM11 15.003C11 14.7378 11.1054 14.4834 11.2929 14.2959C11.4804 14.1084 11.7348 14.003 12 14.003C12.2652 14.003 12.5196 14.1084 12.7071 14.2959C12.8946 14.4834 13 14.7378 13 15.003C13 15.2682 12.8946 15.5226 12.7071 15.7101C12.5196 15.8976 12.2652 16.003 12 16.003C11.7348 16.003 11.4804 15.8976 11.2929 15.7101C11.1054 15.5226 11 15.2682 11 15.003Z"/>
</svg>
