<svg width="24" height="24" viewBox="0 0 24 24" xmlns="http://www.w3.org/2000/svg">
  <path fill-rule="evenodd" clip-rule="evenodd" d="M20.25 4.5H3.75a.25.25 0 00-.25.25v2.5c0 .138.112.25.25.25h16.5a.25.25 0 00.25-.25v-2.5a.25.25 0 00-.25-.25zM3.75 3A1.75 1.75 0 002 4.75v2.5C2 8.216 2.784 9 3.75 9h16.5A1.75 1.75 0 0022 7.25v-2.5A1.75 1.75 0 0020.25 3H3.75zm0 7a.75.75 0 01.75.75v8.5c0 .138.112.25.25.25h14.5a.25.25 0 00.25-.25v-8.5a.75.75 0 011.5 0v8.5A1.75 1.75 0 0119.25 21H4.75A1.75 1.75 0 013 19.25v-8.5a.75.75 0 01.75-.75zm6 1a.75.75 0 000 1.5h4.5a.75.75 0 000-1.5h-4.5z"/>
</svg>
