<svg width="24" height="24" viewBox="0 0 24 24" xmlns="http://www.w3.org/2000/svg">
  <g clip-path="url(#clip0)">
    <path fill-rule="evenodd" clip-rule="evenodd" d="M18.75 15C19.1642 15 19.5 14.6642 19.5 14.25L19.5 5.25001C19.5 4.8358 19.1642 4.50002 18.75 4.50001L9.75 4.50001C9.33579 4.50001 9 4.8358 9 5.25001C9 5.66423 9.33579 6.00001 9.75 6.00001L16.9393 6.00002L6.71967 16.2197C6.42678 16.5126 6.42678 16.9874 6.71967 17.2803C7.01256 17.5732 7.48744 17.5732 7.78033 17.2803L18 7.06067L18 14.25C18 14.6642 18.3358 15 18.75 15Z"/>
  </g>
  <defs>
    <clipPath id="clip0">
      <path d="M24 0H0V24H24V0Z"/>
    </clipPath>
  </defs>
</svg>
