<svg width="24" height="24" viewBox="0 0 24 24" xmlns="http://www.w3.org/2000/svg">
  <g clip-path="url(#clip0)">
    <path fill-rule="evenodd" clip-rule="evenodd" d="M18.75 9.00001C19.1642 9.00001 19.5 9.3358 19.5 9.75001L19.5 18.75C19.5 19.1642 19.1642 19.5 18.75 19.5L9.75 19.5C9.33579 19.5 9 19.1642 9 18.75C9 18.3358 9.33579 18 9.75 18L16.9393 18L6.71967 7.78034C6.42678 7.48744 6.42678 7.01257 6.71967 6.71968C7.01256 6.42678 7.48744 6.42678 7.78033 6.71968L18 16.9393L18 9.75001C18 9.33579 18.3358 9.00001 18.75 9.00001Z"/>
  </g>
  <defs>
    <clipPath id="clip0">
      <path d="M24 24H0V0H24V24Z"/>
    </clipPath>
  </defs>
</svg>
