<svg width="24" height="24" viewBox="0 0 24 24" xmlns="http://www.w3.org/2000/svg">
  <g clip-path="url(#clip0)">
    <path fill-rule="evenodd" clip-rule="evenodd" d="M5.25 15C4.83578 15 4.5 14.6642 4.5 14.25L4.50002 5.25001C4.50002 4.8358 4.83581 4.50002 5.25002 4.50001L14.25 4.50001C14.6642 4.50001 15 4.8358 15 5.25001C15 5.66423 14.6642 6.00001 14.25 6.00001L7.06068 6.00002L17.2803 16.2197C17.5732 16.5126 17.5732 16.9874 17.2803 17.2803C16.9874 17.5732 16.5126 17.5732 16.2197 17.2803L6.00002 7.06067L6 14.25C6 14.6642 5.66421 15 5.25 15Z"/>
  </g>
  <defs>
    <clipPath id="clip0">
      <path d="M0 0H24V24H0V0Z"/>
    </clipPath>
  </defs>
</svg>
