<svg width="24" height="24" viewBox="0 0 24 24" xmlns="http://www.w3.org/2000/svg">
  <g clip-path="url(#clip0)">
    <path fill-rule="evenodd" clip-rule="evenodd" d="M5.25 9.00001C4.83578 9.00001 4.5 9.3358 4.5 9.75001L4.50002 18.75C4.50002 19.1642 4.83581 19.5 5.25002 19.5L14.25 19.5C14.6642 19.5 15 19.1642 15 18.75C15 18.3358 14.6642 18 14.25 18L7.06068 18L17.2803 7.78034C17.5732 7.48744 17.5732 7.01257 17.2803 6.71968C16.9874 6.42678 16.5126 6.42678 16.2197 6.71968L6.00002 16.9393L6 9.75001C6 9.33579 5.66421 9.00001 5.25 9.00001Z"/>
  </g>
  <defs>
    <clipPath id="clip0">
      <path d="M0 24H24V0H0V24Z"/>
    </clipPath>
  </defs>
</svg>
