<svg width="24" height="24" viewBox="0 0 24 24" xmlns="http://www.w3.org/2000/svg">
  <path d="M5 7C5 3.56545 8.31847 1 12 1C15.6815 1 19 3.56545 19 7V11.5389C19 12.1805 19.1899 12.8078 19.5458 13.3417L21.7451 16.6406C21.9113 16.8899 22 17.1828 22 17.4824C22 18.3206 21.3206 19 20.4824 19H3.51759C2.67945 19 2 18.3206 2 17.4824C2 17.1828 2.08869 16.8899 2.25488 16.6406L4.45416 13.3417C4.81008 12.8078 5 12.1805 5 11.5389V7Z"/>
  <path d="M12.0001 22.5C10.4146 22.5 9.07529 21.4457 8.64502 20H15.3551C14.9249 21.4457 13.5856 22.5 12.0001 22.5Z"/>
</svg>
