<svg width="24" height="24" viewBox="0 0 24 24" xmlns="http://www.w3.org/2000/svg">
  <path fill-rule="evenodd" clip-rule="evenodd" d="M2.22 2.22C2.36063 2.07955 2.55125 2.00066 2.75 2.00066C2.94875 2.00066 3.13937 2.07955 3.28 2.22L21.78 20.72C21.8537 20.7887 21.9128 20.8715 21.9538 20.9635C21.9948 21.0555 22.0168 21.1548 22.0186 21.2555C22.0204 21.3562 22.0018 21.4562 21.9641 21.5496C21.9264 21.643 21.8703 21.7278 21.799 21.799C21.7278 21.8703 21.643 21.9264 21.5496 21.9641C21.4562 22.0018 21.3562 22.0204 21.2555 22.0186C21.1548 22.0168 21.0555 21.9948 20.9635 21.9538C20.8715 21.9128 20.7887 21.8537 20.72 21.78L16.94 18H4.5C4.22143 18 3.94837 17.9224 3.7114 17.776C3.47444 17.6295 3.28294 17.42 3.15836 17.1708C3.03378 16.9217 2.98104 16.6427 3.00606 16.3653C3.03108 16.0879 3.13286 15.8229 3.3 15.6L5.35 12.867C5.77192 12.3044 6 11.6202 6 10.917V8C6 7.703 6.022 7.41 6.064 7.124L2.22 3.28C2.07955 3.13938 2.00066 2.94875 2.00066 2.75C2.00066 2.55125 2.07955 2.36063 2.22 2.22ZM7.898 3.62C8.75195 2.82002 9.82119 2.2872 10.9741 2.08713C12.127 1.88705 13.3132 2.02845 14.3868 2.49392C15.4603 2.9594 16.3744 3.72862 17.0163 4.70692C17.6583 5.68521 18.0002 6.82987 18 8V10.917C18 11.62 18.228 12.304 18.65 12.867L20.122 14.829C20.2348 14.9808 20.2862 15.1697 20.2657 15.3577C20.2452 15.5457 20.1544 15.7191 20.0115 15.843C19.8686 15.967 19.6841 16.0323 19.4951 16.026C19.306 16.0197 19.1263 15.9422 18.992 15.809L7.88 4.7C7.80881 4.62893 7.75265 4.54427 7.71485 4.45106C7.67705 4.35784 7.65839 4.25797 7.65998 4.1574C7.66156 4.05682 7.68336 3.95759 7.72408 3.86561C7.7648 3.77363 7.82361 3.69079 7.897 3.622L7.898 3.62ZM8.756 19.315C8.693 19.16 8.813 18.999 8.98 18.999H15.02C15.187 18.999 15.307 19.16 15.244 19.315C14.982 19.9606 14.5333 20.5133 13.9554 20.9024C13.3776 21.2915 12.6967 21.4994 12 21.4994C11.3033 21.4994 10.6224 21.2915 10.0446 20.9024C9.46666 20.5133 9.018 19.9606 8.756 19.315Z"/>
</svg>
