<svg width="24" height="24" viewBox="0 0 24 24" xmlns="http://www.w3.org/2000/svg">
  <path fill-rule="evenodd" clip-rule="evenodd" d="M3.28 2.22a.75.75 0 00-1.06 1.06l3.844 3.844A6.042 6.042 0 006 8v2.917a3.25 3.25 0 01-.65 1.95L3.3 15.6A1.5 1.5 0 004.5 18h4a3.5 3.5 0 107 0h1.44l3.78 3.78a.75.75 0 101.06-1.06L3.28 2.22zM14 18h-4a2 2 0 104 0zm-6.5-7.083V8.56l7.94 7.939H4.5l2.05-2.733a4.75 4.75 0 00.95-2.85zm1.424-6.201A4.5 4.5 0 0116.5 8v2.917a4.75 4.75 0 00.95 2.85l1.472 1.962a.75.75 0 101.2-.9l-1.472-1.962a3.25 3.25 0 01-.65-1.95V8A6 6 0 007.898 3.621a.75.75 0 101.026 1.095z"/>
</svg>
