<svg width="24" height="24" viewBox="0 0 24 24" xmlns="http://www.w3.org/2000/svg">
  <path fill-rule="evenodd" clip-rule="evenodd" d="M2.22 2.22a.75.75 0 011.06 0l18.5 18.5a.75.75 0 11-1.06 1.06L16.94 18H4.5a1.5 1.5 0 01-1.2-2.4l2.05-2.733a3.25 3.25 0 00.65-1.95V8c0-.297.022-.59.064-.876L2.22 3.28a.75.75 0 010-1.06zM7.5 4.03A6 6 0 0118 8v2.917c0 .703.228 1.387.65 1.95l2 2.666c.227.303.35.672.35 1.05v.167a.75.75 0 01-1.281.53L7.532 5.057A.75.75 0 017.5 4.03zm1.256 15.286c-.063-.155.057-.316.224-.316h6.04c.167 0 .287.161.224.316a3.501 3.501 0 01-6.488 0z"/>
</svg>
