<svg width="24" height="24" viewBox="0 0 24 24" xmlns="http://www.w3.org/2000/svg">
  <path fill-rule="evenodd" clip-rule="evenodd" d="M6.75 3C6.33579 3 6 3.33579 6 3.75V11.6875V20.25C6 20.6642 6.33579 21 6.75 21H14.0312C16.8099 21 19.0625 18.7474 19.0625 15.9688C19.0625 13.9664 17.8928 12.2372 16.1993 11.4273C17.2959 10.5632 18 9.22322 18 7.71875C18 5.11266 15.8873 3 13.2812 3H6.75ZM13.2812 10.9375C15.0589 10.9375 16.5 9.49642 16.5 7.71875C16.5 5.94108 15.0589 4.5 13.2812 4.5H7.5V10.9375H13.2812ZM7.5 12.4375V19.5H14.0312C15.9815 19.5 17.5625 17.919 17.5625 15.9688C17.5625 14.0185 15.9815 12.4375 14.0312 12.4375H13.2812H7.5Z"/>
</svg>
