<svg width="24" height="24" viewBox="0 0 24 24" xmlns="http://www.w3.org/2000/svg">
  <path d="M1.56494 2.01754C1.22945 1.7746 0.760538 1.84962 0.517598 2.18511C0.274657 2.5206 0.349683 2.98951 0.685172 3.23245L5 6.35698V21.2586C5 21.547 5.16539 21.8099 5.42539 21.9347C5.6854 22.0596 5.99395 22.0242 6.21901 21.8439L12 17.2111L17.781 21.8439C18.0061 22.0242 18.3146 22.0596 18.5746 21.9347C18.8346 21.8099 19 21.547 19 21.2586V16.4949L22.4352 18.9824C22.7707 19.2254 23.2396 19.1504 23.4825 18.8149C23.7255 18.4794 23.6504 18.0105 23.3149 17.7675L1.56494 2.01754Z"/>
  <path d="M5.68649 2.51892C5.78668 2.20955 6.07482 2 6.4 2H17.25C18.2165 2 19 2.7835 19 3.75V11.325C19 11.6068 18.8421 11.8648 18.5911 11.9929C18.3402 12.1211 18.0386 12.0978 17.8103 11.9326L5.96032 3.3576C5.69688 3.16697 5.58629 2.82828 5.68649 2.51892Z"/>
</svg>
