<svg width="24" height="24" viewBox="0 0 24 24" xmlns="http://www.w3.org/2000/svg">
  <path fill-rule="evenodd" clip-rule="evenodd" d="M2.22 2.22a.75.75 0 011.06 0l18.5 18.5a.75.75 0 11-1.06 1.06L19 20.06v1.19a.75.75 0 01-1.218.586L12 17.21l-5.781 4.625A.75.75 0 015 21.253L4.949 6.009 2.219 3.28a.75.75 0 010-1.06zm4.234 5.294l.04 12.18 5.037-4.03a.75.75 0 01.938 0L17.5 19.69v-1.128L6.454 7.514zM17.25 3.5H6.993a.75.75 0 010-1.5H17.25c.966 0 1.75.784 1.75 1.75v10.257a.75.75 0 01-1.5 0V3.75a.25.25 0 00-.25-.25z"/>
</svg>
