<svg width="24" height="24" viewBox="0 0 24 24" xmlns="http://www.w3.org/2000/svg">
  <path fill-rule="evenodd" clip-rule="evenodd" d="M2.175 2.268a.75.75 0 011.057-.093l18.5 15.5a.75.75 0 01-.964 1.15L19 17.343v3.907a.75.75 0 01-1.218.586L12 17.21l-5.781 4.625A.75.75 0 015 21.253L4.947 5.569 2.268 3.325a.75.75 0 01-.093-1.057zM6.451 6.83l.044 12.864 5.036-4.03a.75.75 0 01.938 0L17.5 19.69v-3.602L6.451 6.83zm.22-4.08a.75.75 0 01.75-.75h9.829c.966 0 1.75.784 1.75 1.75v8.073a.75.75 0 01-1.5 0V3.75a.25.25 0 00-.25-.25H7.421a.75.75 0 01-.75-.75z"/>
</svg>
