<svg width="24" height="24" viewBox="0 0 24 24" xmlns="http://www.w3.org/2000/svg">
  <path fill-rule="evenodd" clip-rule="evenodd" d="M12 22C17.523 22 22 17.523 22 12C22 6.477 17.523 2 12 2C6.477 2 2 6.477 2 12C2 17.523 6.477 22 12 22ZM12.5 7.75C12.5 7.55109 12.421 7.36032 12.2803 7.21967C12.1397 7.07902 11.9489 7 11.75 7C11.5511 7 11.3603 7.07902 11.2197 7.21967C11.079 7.36032 11 7.55109 11 7.75V12.25C11 12.585 11.222 12.88 11.544 12.971L15.044 13.971C15.1393 14.0003 15.2396 14.0103 15.3388 14.0004C15.4381 13.9905 15.5344 13.9609 15.622 13.9133C15.7097 13.8657 15.787 13.8012 15.8494 13.7233C15.9118 13.6455 15.9581 13.5561 15.9855 13.4601C16.0129 13.3642 16.0209 13.2638 16.009 13.1648C15.9971 13.0657 15.9656 12.9701 15.9163 12.8834C15.867 12.7967 15.8009 12.7206 15.7219 12.6598C15.6428 12.599 15.5524 12.5545 15.456 12.529L12.5 11.684V7.75Z"/>
</svg>
