<svg width="24" height="24" viewBox="0 0 24 24" xmlns="http://www.w3.org/2000/svg">
  <path fill-rule="evenodd" clip-rule="evenodd" d="M8.78033 6.53033C9.07322 6.23744 9.07322 5.76256 8.78033 5.46967C8.48744 5.17678 8.01256 5.17678 7.71967 5.46967L1.71967 11.4697C1.42678 11.7626 1.42678 12.2374 1.71967 12.5303L7.71967 18.5303C8.01256 18.8232 8.48744 18.8232 8.78033 18.5303C9.07322 18.2374 9.07322 17.7626 8.78033 17.4697L3.31066 12L8.78033 6.53033ZM15.2197 6.53033C14.9268 6.23744 14.9268 5.76256 15.2197 5.46967C15.5126 5.17678 15.9874 5.17678 16.2803 5.46967L22.2803 11.4697C22.5732 11.7626 22.5732 12.2374 22.2803 12.5303L16.2803 18.5303C15.9874 18.8232 15.5126 18.8232 15.2197 18.5303C14.9268 18.2374 14.9268 17.7626 15.2197 17.4697L20.6893 12L15.2197 6.53033Z"/>
</svg>
