<svg width="24" height="24" viewBox="0 0 24 24" xmlns="http://www.w3.org/2000/svg">
  <path fill-rule="evenodd" clip-rule="evenodd" d="M3.75 4.5a.25.25 0 00-.25.25v11.5c0 .138.112.25.25.25h3a.75.75 0 01.75.75v3.19l3.72-3.72a.75.75 0 01.53-.22h8.5a.25.25 0 00.25-.25V4.75a.25.25 0 00-.25-.25H3.75zM2 4.75C2 3.784 2.784 3 3.75 3h16.5c.966 0 1.75.784 1.75 1.75v11.5A1.75 1.75 0 0120.25 18h-8.19l-3.573 3.573A1.457 1.457 0 016 20.543V18H3.75A1.75 1.75 0 012 16.25V4.75zm8.303 2.493a.75.75 0 01-.046 1.06L7.86 10.5l2.397 2.197a.75.75 0 01-1.014 1.106l-3-2.75a.75.75 0 010-1.106l3-2.75a.75.75 0 011.06.046zm3.44 1.06a.75.75 0 011.014-1.106l3 2.75a.75.75 0 010 1.106l-3 2.75a.75.75 0 01-1.014-1.106L16.14 10.5l-2.397-2.197z"/>
</svg>
