<svg width="24" height="24" viewBox="0 0 24 24" xmlns="http://www.w3.org/2000/svg">
  <path fill-rule="evenodd" clip-rule="evenodd" d="M4.75 3C4.28587 3 3.84075 3.18437 3.51256 3.51256C3.18437 3.84075 3 4.28587 3 4.75V15.25C3 16.216 3.784 17 4.75 17H7V20.25C7.00013 20.3982 7.04419 20.5431 7.12661 20.6663C7.20903 20.7895 7.32611 20.8856 7.46308 20.9423C7.60004 20.999 7.75074 21.0138 7.89614 20.985C8.04153 20.9561 8.17511 20.8848 8.28 20.78L12.06 17H19.25C19.7141 17 20.1592 16.8156 20.4874 16.4874C20.8156 16.1592 21 15.7141 21 15.25V4.75C21 4.28587 20.8156 3.84075 20.4874 3.51256C20.1592 3.18437 19.7141 3 19.25 3H4.75Z"/>
</svg>
