<svg width="24" height="24" viewBox="0 0 24 24" xmlns="http://www.w3.org/2000/svg">
  <path fill-rule="evenodd" clip-rule="evenodd" d="M2.438 11.924c.525-.787 1.713-2.413 3.392-3.835C7.514 6.662 9.621 5.5 12 5.5s4.486 1.162 6.17 2.589c1.679 1.422 2.867 3.048 3.392 3.835a.132.132 0 010 .152c-.525.787-1.713 2.413-3.392 3.835C16.486 17.338 14.379 18.5 12 18.5s-4.486-1.162-6.17-2.589c-1.679-1.422-2.867-3.048-3.392-3.835a.131.131 0 010-.152zM12 4C9.124 4 6.683 5.4 4.86 6.944c-1.827 1.548-3.105 3.3-3.67 4.147a1.631 1.631 0 000 1.819c.565.845 1.843 2.598 3.67 4.146C6.684 18.6 9.125 20 12 20c2.876 0 5.317-1.4 7.14-2.944 1.827-1.548 3.105-3.3 3.67-4.147.369-.553.369-1.265 0-1.819-.565-.845-1.843-2.598-3.67-4.146C17.316 5.4 14.875 4 12 4zm2.5 8a2.5 2.5 0 11-5 0 2.5 2.5 0 015 0zm1.5 0a4 4 0 11-8 0 4 4 0 018 0z"/>
</svg>
