<svg width="24" height="24" viewBox="0 0 24 24" xmlns="http://www.w3.org/2000/svg">
  <path fill-rule="evenodd" clip-rule="evenodd" d="M6.75 7a1.25 1.25 0 100-2.5 1.25 1.25 0 000 2.5zm.75 1.396a2.751 2.751 0 10-1.5 0v7.208a2.751 2.751 0 101.5 0V14.25c0-.966.784-1.75 1.75-1.75h5A3.75 3.75 0 0018 8.75v-.354a2.751 2.751 0 10-1.5 0v.354A2.25 2.25 0 0114.25 11h-5c-.644 0-1.245.188-1.75.51V8.397zm11-2.646a1.25 1.25 0 11-2.5 0 1.25 1.25 0 012.5 0zM6.75 19.5a1.25 1.25 0 100-2.5 1.25 1.25 0 000 2.5z"/>
</svg>
