<svg width="24" height="24" viewBox="0 0 24 24" xmlns="http://www.w3.org/2000/svg">
  <path fill-rule="evenodd" clip-rule="evenodd" d="M13.78 3.78a.75.75 0 00-1.06-1.06l-2.5 2.5a.75.75 0 000 1.06l2.5 2.5a.75.75 0 101.06-1.06L12.56 6.5h2.69a2.25 2.25 0 012.25 2.25v6.854a2.751 2.751 0 101.5 0V8.75A3.75 3.75 0 0015.25 5h-2.69l1.22-1.22zM7 5.75a1.25 1.25 0 11-2.5 0 1.25 1.25 0 012.5 0zm-.5 2.646a2.751 2.751 0 10-1.5 0v7.207a2.751 2.751 0 101.5 0V8.396zM7 18.25a1.25 1.25 0 11-2.5 0 1.25 1.25 0 012.5 0zm11.25 1.25a1.25 1.25 0 100-2.5 1.25 1.25 0 000 2.5z"/>
</svg>
