<svg width="24" height="24" viewBox="0 0 24 24" xmlns="http://www.w3.org/2000/svg">
  <path fill-rule="evenodd" clip-rule="evenodd" d="M5.81 4.882A1.75 1.75 0 017.33 4h9.342a1.75 1.75 0 011.516.876l3.712 6.437a.75.75 0 01.1.374v6.563A1.75 1.75 0 0120.25 20H3.75A1.75 1.75 0 012 18.25v-6.5a.75.75 0 01.099-.372L5.81 4.882zm1.52.618a.25.25 0 00-.217.126L4.043 11H8a.75.75 0 01.648.372L10.18 14h3.638l1.533-2.628a.75.75 0 01.64-.372l3.969-.047-3.072-5.328a.25.25 0 00-.217-.125H7.33zm13.17 6.947l-4.066.048-1.536 2.633a.75.75 0 01-.648.372h-4.5a.75.75 0 01-.648-.372L7.57 12.5H3.5v5.75c0 .138.112.25.25.25h16.5a.25.25 0 00.25-.25v-5.803z"/>
</svg>
