<svg width="24" height="24" viewBox="0 0 24 24" xmlns="http://www.w3.org/2000/svg">
  <path fill-rule="evenodd" clip-rule="evenodd" d="M7.368 3a1.75 1.75 0 00-1.565.967l-3.724 7.448A.75.75 0 002 11.75v6.5c0 .966.784 1.75 1.75 1.75h16.5A1.75 1.75 0 0022 18.25v-6.563a.75.75 0 00-.08-.337l-3.723-7.388A1.75 1.75 0 0016.634 3H7.368zm-.224 1.638a.25.25 0 01.224-.138h9.266a.25.25 0 01.223.137l3.182 6.315-4.048.048a.75.75 0 00-.639.372L13.82 14h-3.638l-1.533-2.628A.75.75 0 008 11H3.964l3.18-6.362z"/>
</svg>
