<svg width="24" height="24" viewBox="0 0 24 24" xmlns="http://www.w3.org/2000/svg">
  <path fill-rule="evenodd" clip-rule="evenodd" d="M5.803 3.967A1.75 1.75 0 017.368 3h9.266c.661 0 1.265.372 1.563.962l3.723 7.388a.75.75 0 01.08.338v6.562A1.75 1.75 0 0120.25 20H3.75A1.75 1.75 0 012 18.25v-6.5a.75.75 0 01.08-.335l3.723-7.448zm1.565.533a.25.25 0 00-.224.138L3.964 11H8a.75.75 0 01.648.372L10.18 14h3.638l1.533-2.628a.75.75 0 01.64-.372l4.047-.048-3.182-6.315a.25.25 0 00-.223-.137H7.368zM20.5 12.447l-4.066.048-1.536 2.633a.75.75 0 01-.648.372h-4.5a.75.75 0 01-.648-.372L7.57 12.5H3.5v5.75c0 .138.112.25.25.25h16.5a.25.25 0 00.25-.25v-5.803z"/>
</svg>
