<svg width="24" height="24" viewBox="0 0 24 24" xmlns="http://www.w3.org/2000/svg">
  <path fill-rule="evenodd" clip-rule="evenodd" d="M4.787 7.5a8.5 8.5 0 0115.71 4.73.75.75 0 101.5.04L22 12c0-5.523-4.477-10-10-10a9.994 9.994 0 00-8.5 4.73V4.75a.75.75 0 00-1.5 0v3.5c0 .414.336.75.75.75h3.5a.75.75 0 000-1.5H4.787zm-1.284 4.27a.75.75 0 10-1.5-.04L2 12c0 5.523 4.477 10 10 10a9.993 9.993 0 008.5-4.73v1.98a.75.75 0 001.5 0v-3.5a.75.75 0 00-.75-.75h-3.5a.75.75 0 000 1.5h1.463a8.5 8.5 0 01-15.71-4.73zM12 7a.75.75 0 01.75.75v4.5a.75.75 0 01-1.5 0v-4.5A.75.75 0 0112 7zm1 9a1 1 0 11-2 0 1 1 0 012 0z"/>
</svg>
