<svg width="24" height="24" viewBox="0 0 24 24" xmlns="http://www.w3.org/2000/svg">
  <path fill-rule="evenodd" clip-rule="evenodd" d="M12 3.5a8.494 8.494 0 00-7.213 4H6.25a.75.75 0 010 1.5h-3.5A.75.75 0 012 8.25v-3.5a.75.75 0 011.5 0v1.98A9.993 9.993 0 0112 2c5.25 0 9.555 4.046 9.968 9.19a.75.75 0 11-1.496.12A8.5 8.5 0 0012 3.5zm-9.28 8.502a.75.75 0 01.808.688 8.5 8.5 0 0015.685 3.81H17.75a.75.75 0 010-1.5h3.5a.75.75 0 01.75.75v3.5a.75.75 0 01-1.5 0v-1.98A9.994 9.994 0 0112 22c-5.25 0-9.555-4.046-9.968-9.19a.75.75 0 01.688-.808zM13 16a1 1 0 11-2 0 1 1 0 012 0zm-.25-8.25a.75.75 0 00-1.5 0v4.5a.75.75 0 001.5 0v-4.5z"/>
</svg>
