<svg width="24" height="24" viewBox="0 0 24 24" xmlns="http://www.w3.org/2000/svg">
  <path fill-rule="evenodd" clip-rule="evenodd" d="M3.5 12C3.5 7.30558 7.30558 3.5 12 3.5C16.6944 3.5 20.5 7.30558 20.5 12C20.5 12.4109 20.4709 12.8146 20.4147 13.2092C20.3564 13.6193 20.6415 13.999 21.0516 14.0574C21.4617 14.1157 21.8414 13.8306 21.8998 13.4205C21.9659 12.9561 22 12.4818 22 12C22 6.47715 17.5228 2 12 2C6.47715 2 2 6.47715 2 12C2 17.5228 6.47715 22 12 22C12.4818 22 12.9561 21.9659 13.4205 21.8998C13.8306 21.8414 14.1157 21.4617 14.0574 21.0516C13.999 20.6415 13.6193 20.3564 13.2092 20.4147C12.8146 20.4709 12.4109 20.5 12 20.5C7.30558 20.5 3.5 16.6944 3.5 12ZM12 17C12.5523 17 13 16.5523 13 16C13 15.4477 12.5523 15 12 15C11.4477 15 11 15.4477 11 16C11 16.5523 11.4477 17 12 17ZM12 7C12.4142 7 12.75 7.33579 12.75 7.75V12.25C12.75 12.6642 12.4142 13 12 13C11.5858 13 11.25 12.6642 11.25 12.25V7.75C11.25 7.33579 11.5858 7 12 7ZM20 16.25C20 15.8358 19.6642 15.5 19.25 15.5C18.8358 15.5 18.5 15.8358 18.5 16.25V18.5H16.25C15.8358 18.5 15.5 18.8358 15.5 19.25C15.5 19.6642 15.8358 20 16.25 20H18.5V22.25C18.5 22.6642 18.8358 23 19.25 23C19.6642 23 20 22.6642 20 22.25V20H22.25C22.6642 20 23 19.6642 23 19.25C23 18.8358 22.6642 18.5 22.25 18.5H20V16.25Z"/>
</svg>
