<svg width="24" height="24" viewBox="0 0 24 24" xmlns="http://www.w3.org/2000/svg">
  <path fill-rule="evenodd" clip-rule="evenodd" d="M3.5 12a8.5 8.5 0 1116.923 1.15.75.75 0 001.486.201c.06-.442.091-.893.091-1.351 0-5.523-4.477-10-10-10S2 6.477 2 12s4.477 10 10 10c.28 0 .556-.012.83-.034a.75.75 0 00-.123-1.495A8.5 8.5 0 013.5 12zm8.5 5a1 1 0 100-2 1 1 0 000 2zm0-10a.75.75 0 01.75.75v4.5a.75.75 0 01-1.5 0v-4.5A.75.75 0 0112 7zm9.78 10.28a.75.75 0 10-1.06-1.06l-3.47 3.47-1.47-1.47a.75.75 0 10-1.06 1.06l2 2a.75.75 0 001.06 0l4-4z"/>
</svg>
