<svg width="24" height="24" viewBox="0 0 24 24" xmlns="http://www.w3.org/2000/svg">
  <path fill-rule="evenodd" clip-rule="evenodd" d="M3.5 12a8.5 8.5 0 0114.534-5.987.75.75 0 101.064-1.057A9.971 9.971 0 0012 2C6.477 2 2 6.477 2 12s4.477 10 10 10c5.258 0 9.568-4.058 9.97-9.214a.75.75 0 10-1.496-.116A8.5 8.5 0 013.5 12zm8.5 5a1 1 0 100-2 1 1 0 000 2zm0-10a.75.75 0 01.75.75v4.5a.75.75 0 01-1.5 0v-4.5A.75.75 0 0112 7zm5.78 5.28l4-4a.75.75 0 00-1.06-1.06l-3.47 3.47-1.47-1.47a.75.75 0 10-1.06 1.06l2 2a.75.75 0 001.06 0z"/>
</svg>
