<svg width="24" height="24" viewBox="0 0 24 24" xmlns="http://www.w3.org/2000/svg">
  <path fill-rule="evenodd" clip-rule="evenodd" d="M9.5 8C9.5 4.41015 12.4101 1.5 16 1.5C19.5899 1.5 22.5 4.41015 22.5 8C22.5 11.5899 19.5899 14.5 16 14.5C15.2586 14.5 14.5477 14.3762 13.8859 14.1487C13.6148 14.0555 13.3144 14.1249 13.1117 14.3276L11.0126 16.4268C10.9657 16.4737 10.9021 16.5 10.8358 16.5H9.75C8.7835 16.5 8 17.2835 8 18.25V19.3964C8 19.4239 7.98909 19.4503 7.96967 19.4697C7.95025 19.4891 7.92391 19.5 7.89645 19.5H6.25C5.2835 19.5 4.5 20.2835 4.5 21.25V22.25C4.5 22.3881 4.38807 22.5 4.25 22.5H1.75C1.61193 22.5 1.5 22.3881 1.5 22.25V19.1642C1.5 19.0979 1.52634 19.0343 1.57322 18.9874L9.67239 10.8883C9.87506 10.6856 9.9445 10.3852 9.85133 10.1141C9.62383 9.45231 9.5 8.7414 9.5 8ZM16 0C11.5817 0 8 3.58172 8 8C8 8.74307 8.10151 9.46348 8.29174 10.1476L0.512563 17.9268C0.184374 18.255 0 18.7001 0 19.1642V22.25C0 23.2165 0.783502 24 1.75 24H4.25C5.2165 24 6 23.2165 6 22.25L6 21.25C6 21.1119 6.11193 21 6.25 21H7.89645C8.32174 21 8.72961 20.8311 9.03033 20.5303C9.33105 20.2296 9.5 19.8217 9.5 19.3964V18.25C9.5 18.1119 9.61193 18 9.75 18H10.8358C11.2999 18 11.745 17.8156 12.0732 17.4874L13.8524 15.7083C14.5365 15.8985 15.2569 16 16 16C20.4183 16 24 12.4183 24 8C24 3.58172 20.4183 0 16 0ZM17.5 8C18.3284 8 19 7.32843 19 6.5C19 5.67157 18.3284 5 17.5 5C16.6716 5 16 5.67157 16 6.5C16 7.32843 16.6716 8 17.5 8Z"/>
</svg>
