<svg width="24" height="24" viewBox="0 0 24 24" xmlns="http://www.w3.org/2000/svg">
  <path fill-rule="evenodd" clip-rule="evenodd" d="M12 3.5C11.0717 3.5 10.1815 3.86875 9.52513 4.52513C8.86875 5.1815 8.5 6.07174 8.5 7V10H15.5V7C15.5 6.07174 15.1313 5.1815 14.4749 4.52513C13.8185 3.86875 12.9283 3.5 12 3.5ZM17 10V7C17 5.67392 16.4732 4.40215 15.5355 3.46447C14.5979 2.52678 13.3261 2 12 2C10.6739 2 9.40215 2.52678 8.46447 3.46447C7.52678 4.40215 7 5.67392 7 7V10H5.75C5.28587 10 4.84075 10.1844 4.51256 10.5126C4.18437 10.8408 4 11.2859 4 11.75V19.25C4 20.216 4.784 21 5.75 21H18.25C18.7141 21 19.1592 20.8156 19.4874 20.4874C19.8156 20.1592 20 19.7141 20 19.25V11.75C20 11.2859 19.8156 10.8408 19.4874 10.5126C19.1592 10.1844 18.7141 10 18.25 10H17Z"/>
</svg>
