<svg width="24" height="24" viewBox="0 0 24 24" xmlns="http://www.w3.org/2000/svg">
  <path fill-rule="evenodd" clip-rule="evenodd" d="M7.75 4.639a8.5 8.5 0 008.5 14.722.75.75 0 01.75 1.3C12.217 23.42 6.101 21.782 3.34 17 .578 12.217 2.217 6.101 7 3.34 11.783.578 17.899 2.217 20.66 7A9.958 9.958 0 0122 11.75v.065a9.55 9.55 0 010 .234v1.701a3.25 3.25 0 01-6.159 1.451A5 5 0 1115.5 8.43v-.68a.75.75 0 011.5 0v6a1.75 1.75 0 103.5 0v-1.921a8.5 8.5 0 00-12.75-7.19zm7.75 7.358a3.5 3.5 0 100 .006v-.006z"/>
</svg>
