<svg width="24" height="24" viewBox="0 0 24 24" xmlns="http://www.w3.org/2000/svg">
  <path fill-rule="evenodd" clip-rule="evenodd" d="M11.75 2a.75.75 0 01.75.75V6h4.895c.402 0 .792.138 1.104.392l2.769 2.25a1.75 1.75 0 010 2.716l-2.77 2.25a1.75 1.75 0 01-1.103.392h-4.957v7.063a.75.75 0 01-1.5 0V14H4.75A1.75 1.75 0 013 12.25v-4.5C3 6.783 3.784 6 4.75 6H11V2.75a.75.75 0 01.75-.75zm0 5.5h-7a.25.25 0 00-.25.25v4.5c0 .138.112.25.25.25h12.645a.25.25 0 00.158-.056l2.769-2.25a.25.25 0 000-.388l-2.77-2.25a.25.25 0 00-.157-.056H11.75z"/>
</svg>
