<svg width="24" height="24" viewBox="0 0 24 24" xmlns="http://www.w3.org/2000/svg">
  <path fill-rule="evenodd" clip-rule="evenodd" d="M3 4.75C3 3.7835 3.7835 3 4.75 3H19.25C20.2165 3 21 3.7835 21 4.75V14.3358C21 14.7999 20.8156 15.245 20.4874 15.5732L15.5732 20.4874C15.245 20.8156 14.7999 21 14.3358 21H4.75C3.7835 21 3 20.2165 3 19.25V4.75ZM4.75 4.5C4.61193 4.5 4.5 4.61193 4.5 4.75V19.25C4.5 19.3881 4.61193 19.5 4.75 19.5H13V14.75C13 13.7835 13.7835 13 14.75 13H19.5V4.75C19.5 4.61193 19.3881 4.5 19.25 4.5H4.75ZM19.4385 14.5H14.75C14.6119 14.5 14.5 14.6119 14.5 14.75V19.4385C14.5043 19.4348 14.5085 19.4308 14.5126 19.4268L19.4268 14.5126C19.4308 14.5085 19.4348 14.5043 19.4385 14.5Z"/>
</svg>
