<svg width="24" height="24" viewBox="0 0 24 24" xmlns="http://www.w3.org/2000/svg">
  <path fill-rule="evenodd" clip-rule="evenodd" d="M16.263 3.677a1.75 1.75 0 012.474 0l1.586 1.586a1.75 1.75 0 010 2.474L8.711 19.35a1.75 1.75 0 01-.744.441L3.962 20.97a.75.75 0 01-.932-.93l1.179-4.006a1.75 1.75 0 01.441-.744L16.263 3.677zm1.414 1.06a.25.25 0 00-.354 0L15.561 6.5 17.5 8.44l1.763-1.763a.25.25 0 000-.354l-1.586-1.586zM16.439 9.5L14.5 7.56l-8.79 8.79a.25.25 0 00-.062.106l-.79 2.686 2.686-.79a.25.25 0 00.106-.063L16.44 9.5z"/>
</svg>
