<svg width="24" height="24" viewBox="0 0 24 24" xmlns="http://www.w3.org/2000/svg">
  <path fill-rule="evenodd" clip-rule="evenodd" d="M15.5 9.00001C15.5 9.45963 15.4095 9.91476 15.2336 10.3394C15.0577 10.764 14.7999 11.1499 14.4749 11.4749C14.1499 11.7999 13.764 12.0577 13.3394 12.2336C12.9147 12.4095 12.4596 12.5 12 12.5C11.5404 12.5 11.0852 12.4095 10.6606 12.2336C10.236 12.0577 9.85013 11.7999 9.52512 11.4749C9.20012 11.1499 8.94231 10.764 8.76642 10.3394C8.59052 9.91476 8.49999 9.45963 8.49999 9.00001C8.49999 8.07175 8.86874 7.18151 9.52512 6.52513C10.1815 5.86876 11.0717 5.50001 12 5.50001C12.9283 5.50001 13.8185 5.86876 14.4749 6.52513C15.1312 7.18151 15.5 8.07175 15.5 9.00001ZM14.893 13.078C15.758 12.4642 16.4054 11.5912 16.7416 10.5852C17.0779 9.57925 17.0855 8.49242 16.7633 7.48184C16.4412 6.47126 15.8061 5.5893 14.9497 4.96345C14.0934 4.33761 13.0602 4.00031 11.9995 4.00031C10.9388 4.00031 9.90563 4.33761 9.04927 4.96345C8.19291 5.5893 7.55777 6.47126 7.23565 7.48184C6.91353 8.49242 6.92112 9.57925 7.25734 10.5852C7.59356 11.5912 8.24097 12.4642 9.10599 13.078C7.87229 13.5948 6.79907 14.4319 5.99737 15.5026C5.19567 16.5733 4.6946 17.8387 4.54599 19.168C4.53182 19.3617 4.59329 19.5533 4.71749 19.7025C4.84169 19.8518 5.01894 19.947 5.21194 19.9683C5.40494 19.9895 5.59866 19.9351 5.75235 19.8164C5.90603 19.6977 6.00771 19.5241 6.03599 19.332C6.2007 17.8656 6.89989 16.5114 7.99997 15.5279C9.10006 14.5445 10.5239 14.0008 11.9995 14.0008C13.4751 14.0008 14.8989 14.5445 15.999 15.5279C17.0991 16.5114 17.7983 17.8656 17.963 19.332C17.9735 19.4301 18.0032 19.5252 18.0505 19.6119C18.0978 19.6985 18.1618 19.7749 18.2387 19.8368C18.3156 19.8986 18.4039 19.9447 18.4986 19.9724C18.5934 20 18.6927 20.0087 18.7908 19.9979C18.8889 19.9871 18.9839 19.9571 19.0703 19.9095C19.1568 19.8619 19.233 19.7977 19.2946 19.7206C19.3563 19.6435 19.402 19.555 19.4294 19.4602C19.4567 19.3654 19.4651 19.2661 19.454 19.168C19.3054 17.8387 18.8043 16.5733 18.0026 15.5026C17.2009 14.4319 16.1277 13.5948 14.894 13.078H14.893Z"/>
</svg>
