<svg width="24" height="24" viewBox="0 0 24 24" xmlns="http://www.w3.org/2000/svg">
  <path clip-rule="evenodd" d="M16 2.75a.75.75 0 01.75-.75h4.5a.75.75 0 01.75.75v4.5a.75.75 0 01-1.5 0V4.56l-6.22 6.22a.75.75 0 11-1.06-1.06l6.22-6.22h-2.69a.75.75 0 01-.75-.75zM4.75 4.5a.25.25 0 00-.25.25v10.5c0 .138.112.25.25.25h3a.75.75 0 01.75.75v3.19l3.72-3.72a.75.75 0 01.53-.22h6.5a.25.25 0 00.25-.25v-3.5a.75.75 0 011.5 0v3.5A1.75 1.75 0 0119.25 17h-6.19l-3.573 3.573A1.457 1.457 0 017 19.543V17H4.75A1.75 1.75 0 013 15.25V4.75C3 3.784 3.784 3 4.75 3h7.5a.75.75 0 010 1.5h-7.5z"/>
</svg>
