<svg width="24" height="24" viewBox="0 0 24 24" xmlns="http://www.w3.org/2000/svg">
  <path fill-rule="evenodd" clip-rule="evenodd" d="M4 4.5A2.5 2.5 0 016.5 2h12.75a.75.75 0 01.75.75v16.5a.75.75 0 01-.75.75h-5.5a.75.75 0 010-1.5h4.75v-3h-12a1 1 0 00-1 1v1a1 1 0 00.856.99.75.75 0 01-.212 1.485A2.5 2.5 0 014 17.5v-13zm14.5-1V14h-12c-.356 0-.694.074-1 .208V4.5a1 1 0 011-1h12zM8 17.25v4.146c0 .223.27.335.427.177l1.396-1.396a.25.25 0 01.354 0l1.396 1.396a.25.25 0 00.427-.177V17.25a.25.25 0 00-.25-.25h-3.5a.25.25 0 00-.25.25z"/>
</svg>
