<svg width="24" height="24" viewBox="0 0 24 24" xmlns="http://www.w3.org/2000/svg">
  <path fill-rule="evenodd" clip-rule="evenodd" d="M4 4.5C4 3.83696 4.26339 3.20107 4.73223 2.73223C5.20107 2.26339 5.83696 2 6.5 2H19.25C19.4489 2 19.6397 2.07902 19.7803 2.21967C19.921 2.36032 20 2.55109 20 2.75V19.25C20 19.4489 19.921 19.6397 19.7803 19.7803C19.6397 19.921 19.4489 20 19.25 20H14.75C14.5511 20 14.3603 19.921 14.2197 19.7803C14.079 19.6397 14 19.4489 14 19.25C14 19.0511 14.079 18.8603 14.2197 18.7197C14.3603 18.579 14.5511 18.5 14.75 18.5H18.5V15.5H6.5C6.23478 15.5 5.98043 15.6054 5.79289 15.7929C5.60536 15.9804 5.5 16.2348 5.5 16.5V17.5C5.4999 17.7403 5.58636 17.9727 5.74356 18.1545C5.90075 18.3363 6.11817 18.4554 6.356 18.49C6.45351 18.5039 6.54732 18.5369 6.63207 18.5871C6.71683 18.6373 6.79088 18.7036 6.84998 18.7824C6.90908 18.8612 6.95209 18.9509 6.97654 19.0463C7.001 19.1417 7.00642 19.241 6.9925 19.3385C6.97858 19.436 6.94559 19.5298 6.89542 19.6146C6.84524 19.6993 6.77886 19.7734 6.70007 19.8325C6.62128 19.8916 6.53162 19.9346 6.43621 19.959C6.3408 19.9835 6.24151 19.9889 6.144 19.975C5.54868 19.8894 5.0042 19.592 4.6104 19.1374C4.2166 18.6828 3.99989 18.1014 4 17.5V4.5ZM18.5 3.5V14H6.5C6.144 14 5.806 14.074 5.5 14.208V4.5C5.5 4.23478 5.60536 3.98043 5.79289 3.79289C5.98043 3.60536 6.23478 3.5 6.5 3.5H18.5ZM8 17.25V21.48C8 21.69 8.242 21.806 8.406 21.675L10.344 20.125C10.3883 20.0896 10.4433 20.0704 10.5 20.0704C10.5567 20.0704 10.6117 20.0896 10.656 20.125L12.594 21.675C12.6308 21.7044 12.6751 21.7227 12.7218 21.728C12.7685 21.7334 12.8158 21.7254 12.8582 21.705C12.9006 21.6846 12.9364 21.6527 12.9615 21.6129C12.9866 21.5731 12.9999 21.527 13 21.48V17.25C13 17.1837 12.9737 17.1201 12.9268 17.0732C12.8799 17.0263 12.8163 17 12.75 17H8.25C8.1837 17 8.12011 17.0263 8.07322 17.0732C8.02634 17.1201 8 17.1837 8 17.25Z"/>
</svg>
