<svg width="24" height="24" viewBox="0 0 24 24" xmlns="http://www.w3.org/2000/svg">
  <path fill-rule="evenodd" clip-rule="evenodd" d="M19.8921 2C17.0411 2 14.3068 3.13259 12.2907 5.1486L11.37 6.06932C11.0687 6.37065 10.7769 6.68103 10.495 7H5.82195C5.20181 7 4.62798 7.3282 4.31356 7.86271L2.10355 11.6197C1.98641 11.8189 1.96759 12.0609 2.05254 12.2758C2.13749 12.4906 2.31672 12.6543 2.53838 12.7195L6.63434 13.9242C6.67179 13.9754 6.71353 14.0242 6.75952 14.0702L9.92983 17.2405C9.97581 17.2865 10.0246 17.3282 10.0758 17.3657L11.2805 21.4616C11.3457 21.6833 11.5094 21.8625 11.7242 21.9475C11.9391 22.0324 12.1811 22.0136 12.3803 21.8965L16.1373 19.6864C16.6718 19.372 17 18.7982 17 18.1781V13.505C17.319 13.2231 17.6293 12.9313 17.9307 12.63L18.8514 11.7093C20.8674 9.69325 22 6.95894 22 4.10786V3.75C22 2.7835 21.2165 2 20.25 2H19.8921ZM15.5 14.7117C15.2599 14.8871 15.0159 15.0575 14.7682 15.2226L11.6253 17.3179L12.4483 20.1162L15.3768 18.3935C15.4531 18.3486 15.5 18.2666 15.5 18.1781V14.7117ZM6.68212 12.3747L8.77744 9.23176C8.94255 8.9841 9.11289 8.74013 9.28835 8.5H5.82195C5.73336 8.5 5.65138 8.54689 5.60646 8.62325L3.88384 11.5517L6.68212 12.3747ZM13.3514 6.20926C15.0861 4.47455 17.4389 3.5 19.8921 3.5H20.25C20.3881 3.5 20.5 3.61193 20.5 3.75V4.10786C20.5 6.56112 19.5254 8.91389 17.7907 10.6486L16.87 11.5693C15.9737 12.4657 14.9909 13.2713 13.9362 13.9745L10.8456 16.0349L7.9651 13.1544L10.0255 10.0638C10.7287 9.00906 11.5343 8.02635 12.4307 7.12998L13.3514 6.20926ZM17 8C17 8.55229 16.5523 9 16 9C15.4477 9 15 8.55229 15 8C15 7.44772 15.4477 7 16 7C16.5523 7 17 7.44772 17 8ZM6.45083 20.201C7.18306 19.4688 7.18306 18.2816 6.45083 17.5494C5.71859 16.8171 4.53141 16.8171 3.79918 17.5494C2.85487 18.4937 2.46788 20.5956 2.35255 21.3824C2.32948 21.5397 2.46025 21.6705 2.61763 21.6474C3.40449 21.5321 5.50667 21.1452 6.45083 20.201Z"/>
</svg>
