<svg width="24" height="24" viewBox="0 0 24 24" xmlns="http://www.w3.org/2000/svg">
  <path fill-rule="evenodd" clip-rule="evenodd" d="M19.8921 2C17.0411 2 14.3068 3.13259 12.2907 5.1486L11.37 6.06932C11.01 6.42939 10.6635 6.80238 10.3312 7.1875H5.9963C5.38859 7.1875 4.82439 7.50277 4.5059 8.02033L2.29876 11.6069C2.17715 11.8045 2.15386 12.0473 2.23566 12.2644C2.31747 12.4816 2.49517 12.6486 2.71694 12.7168L6.63243 13.9216C6.67037 13.9737 6.71275 14.0234 6.75952 14.0702L9.92983 17.2405C9.97659 17.2873 10.0263 17.3296 10.0784 17.3676L11.2832 21.2831C11.3514 21.5048 11.5184 21.6825 11.7356 21.7643C11.9527 21.8461 12.1955 21.8228 12.3931 21.7012L15.9797 19.4941C16.4972 19.1756 16.8125 18.6114 16.8125 18.0037V13.6688C17.1976 13.3365 17.5706 12.99 17.9307 12.63L18.8514 11.7093C20.8674 9.69325 22 6.95894 22 4.10786V3.75C22 2.7835 21.2165 2 20.25 2H19.8921ZM15.3125 14.8471C15.1331 14.9751 14.9517 15.1003 14.7682 15.2226L11.6313 17.3139L12.4319 19.9161L15.1935 18.2166C15.2675 18.1711 15.3125 18.0905 15.3125 18.0037V14.8471ZM6.68613 12.3687L8.77744 9.23176C8.89975 9.0483 9.02493 8.86685 9.15294 8.6875H5.9963C5.90948 8.6875 5.82888 8.73254 5.78338 8.80648L4.08395 11.5681L6.68613 12.3687ZM13.3514 6.20926C15.0861 4.47455 17.4389 3.5 19.8921 3.5H20.25C20.3881 3.5 20.5 3.61193 20.5 3.75V4.10786C20.5 6.56112 19.5255 8.91389 17.7907 10.6486L16.87 11.5693C15.9737 12.4657 14.9909 13.2713 13.9362 13.9745L10.8456 16.0349L7.9651 13.1544L10.0255 10.0638C10.7287 9.00906 11.5343 8.02635 12.4307 7.12998L13.3514 6.20926ZM17 8C17 8.55229 16.5523 9 16 9C15.4477 9 15 8.55229 15 8C15 7.44772 15.4477 7 16 7C16.5523 7 17 7.44772 17 8ZM6.45083 20.201C7.18306 19.4688 7.18306 18.2816 6.45083 17.5494C5.7186 16.8171 4.53141 16.8171 3.79918 17.5494C2.85487 18.4937 2.46789 20.5956 2.35256 21.3824C2.32949 21.5397 2.46025 21.6705 2.61763 21.6474C3.40449 21.5321 5.50667 21.1452 6.45083 20.201Z"/>
</svg>
