<svg width="24" height="24" viewBox="0 0 24 24" xmlns="http://www.w3.org/2000/svg">
  <path fill-rule="evenodd" clip-rule="evenodd" d="M14.6096 3.16849C14.082 0.264151 9.91796 0.264151 9.39032 3.16849C9.24057 3.99276 8.2892 4.38683 7.60046 3.90987C5.17368 2.2293 2.2293 5.17368 3.90987 7.60046C4.38683 8.2892 3.99276 9.24057 3.16849 9.39032C0.26415 9.91796 0.264151 14.082 3.16849 14.6096C3.99276 14.7593 4.38683 15.7107 3.90987 16.3995C2.2293 18.8262 5.17368 21.7706 7.60046 20.09C8.2892 19.6131 9.24057 20.0072 9.39032 20.8314C9.91796 23.7358 14.082 23.7358 14.6096 20.8314C14.7593 20.0072 15.7107 19.6131 16.3995 20.09C18.8262 21.7706 21.7706 18.8262 20.09 16.3995C19.6131 15.7107 20.0072 14.7593 20.8314 14.6096C23.7358 14.082 23.7358 9.91796 20.8314 9.39032C20.0072 9.24057 19.6131 8.2892 20.09 7.60046C21.7706 5.17368 18.8262 2.2293 16.3995 3.90987C15.7107 4.38683 14.7593 3.99276 14.6096 3.16849ZM10.8662 3.43661C11.0954 2.17478 12.9045 2.17478 13.1338 3.43661C13.4784 5.33383 15.6682 6.24085 17.2534 5.14304C18.3078 4.41289 19.587 5.69212 18.8569 6.74647C17.7591 8.33173 18.6661 10.5215 20.5633 10.8662C21.8251 11.0954 21.8251 12.9045 20.5633 13.1338C18.6661 13.4784 17.7591 15.6682 18.8569 17.2534C19.587 18.3078 18.3078 19.587 17.2534 18.8569C15.6682 17.7591 13.4784 18.6661 13.1338 20.5633C12.9045 21.8251 11.0954 21.8251 10.8662 20.5633C10.5215 18.6661 8.33173 17.7591 6.74647 18.8569C5.69212 19.587 4.41289 18.3078 5.14304 17.2534C6.24085 15.6682 5.33383 13.4784 3.43661 13.1338C2.17478 12.9045 2.17478 11.0954 3.43661 10.8662C5.33383 10.5215 6.24085 8.33173 5.14304 6.74647C4.41289 5.69212 5.69212 4.41289 6.74647 5.14304C8.33173 6.24085 10.5215 5.33383 10.8662 3.43661ZM14.5 12C14.5 13.3807 13.3807 14.5 12 14.5C10.6193 14.5 9.5 13.3807 9.5 12C9.5 10.6193 10.6193 9.5 12 9.5C13.3807 9.5 14.5 10.6193 14.5 12ZM16 12C16 14.2091 14.2091 16 12 16C9.79086 16 8 14.2091 8 12C8 9.79086 9.79086 8 12 8C14.2091 8 16 9.79086 16 12Z"/>
</svg>
