<svg width="24" height="24" viewBox="0 0 24 24" xmlns="http://www.w3.org/2000/svg">
  <path fill-rule="evenodd" clip-rule="evenodd" d="M4.75 4.5C4.61014 4.5 4.5 4.61189 4.5 4.74817L4.5 10.75C4.5 13.1353 5.21203 14.9863 6.46218 16.5086C7.72717 18.049 9.5761 19.2922 11.9083 20.3828C11.9662 20.4099 12.0338 20.4099 12.0917 20.3828C14.4239 19.2922 16.2728 18.049 17.5378 16.5086C18.788 14.9863 19.5 13.1353 19.5 10.75V4.74813C19.5 4.61189 19.3899 4.5 19.25 4.5H4.75ZM3 4.74817C3 3.77988 3.78529 3 4.75 3H19.25C20.2147 3 21 3.77981 21 4.74813V10.75C21 13.47 20.1754 15.6604 18.697 17.4606C17.2335 19.2427 15.1622 20.6029 12.7271 21.7416C12.2665 21.957 11.7335 21.957 11.2729 21.7416C8.83783 20.6029 6.76646 19.2427 5.30297 17.4606C3.82464 15.6604 3 13.47 3 10.75L3 4.74817Z"/>
</svg>
