<svg width="24" height="24" viewBox="0 0 24 24" xmlns="http://www.w3.org/2000/svg">
  <path fill-rule="evenodd" clip-rule="evenodd" d="M4 12a8 8 0 1116 0 8 8 0 01-16 0zm8-10C6.477 2 2 6.477 2 12s4.477 10 10 10 10-4.477 10-10S17.523 2 12 2zm-3 9a1 1 0 100-2 1 1 0 000 2zm7-1a1 1 0 11-2 0 1 1 0 012 0zm-7.555 3.668a1 1 0 011.382.27l.015.02a2.847 2.847 0 00.508.492A2.7 2.7 0 0012 15a2.7 2.7 0 001.65-.55 2.846 2.846 0 00.508-.492.738.738 0 00.015-.02l-.002.002-.001.002-.001.002a1 1 0 011.663 1.11L15 14.5l.832.555-.001.001-.001.002-.003.004-.006.01-.018.024a3.934 3.934 0 01-.243.302c-.16.181-.397.417-.71.652-.63.472-1.585.95-2.85.95a4.702 4.702 0 01-2.85-.95 4.845 4.845 0 01-.899-.88 2.788 2.788 0 01-.054-.074l-.018-.025-.006-.01-.003-.003-.001-.002c0-.001-.001-.001.831-.556l-.832.555a1 1 0 01.277-1.387z"/>
</svg>
