<svg width="24" height="24" viewBox="0 0 24 24" xmlns="http://www.w3.org/2000/svg">
  <path fill-rule="evenodd" clip-rule="evenodd" d="M9.5 3.75a.25.25 0 01.25-.25h4.5a.25.25 0 01.25.25V5h-5V3.75zm6.5 0V5h4.25a.75.75 0 010 1.5H3.75a.75.75 0 010-1.5H8V3.75C8 2.784 8.784 2 9.75 2h4.5c.966 0 1.75.784 1.75 1.75zM6.497 8.685a.75.75 0 10-1.494.13l.92 10.587A1.75 1.75 0 007.667 21h8.666a1.75 1.75 0 001.744-1.598l.92-10.587a.75.75 0 00-1.494-.13l-.92 10.587a.25.25 0 01-.25.228H7.667a.25.25 0 01-.25-.228l-.92-10.587zm3.224.316a.75.75 0 01.778.72l.25 6.5a.75.75 0 01-1.498.058L9 9.779A.75.75 0 019.72 9zM15 9.779a.75.75 0 00-1.498-.058l-.25 6.5a.75.75 0 101.498.058l.25-6.5z"/>
</svg>
