<svg width="24" height="24" viewBox="0 0 24 24" xmlns="http://www.w3.org/2000/svg">
  <path fill-rule="evenodd" clip-rule="evenodd" d="M9.5 3.75a.25.25 0 01.25-.25h4.5a.25.25 0 01.25.25V5h-5V3.75zm6.5 0V5h4.25a.75.75 0 010 1.5H3.75a.75.75 0 010-1.5H8V3.75C8 2.784 8.784 2 9.75 2h4.5c.966 0 1.75.784 1.75 1.75zm-9.5 5a.75.75 0 00-1.5 0v10.5c0 .966.784 1.75 1.75 1.75h10.5A1.75 1.75 0 0019 19.25V8.75a.75.75 0 00-1.5 0v10.5a.25.25 0 01-.25.25H6.75a.25.25 0 01-.25-.25V8.75zM9.75 9a.75.75 0 01.75.75v6.5a.75.75 0 01-1.5 0v-6.5A.75.75 0 019.75 9zm5.25.75a.75.75 0 00-1.5 0v6.5a.75.75 0 001.5 0v-6.5z"/>
</svg>
