<svg width="24" height="24" viewBox="0 0 24 24" xmlns="http://www.w3.org/2000/svg">
  <path fill-rule="evenodd" clip-rule="evenodd" d="M11.4697 2.46967C11.7626 2.17678 12.2374 2.17678 12.5303 2.46967L15.2803 5.21967C15.5732 5.51256 15.5732 5.98744 15.2803 6.28033C14.9874 6.57322 14.5126 6.57322 14.2197 6.28033L12.75 4.81066C12.75 4.81127 12.75 4.81189 12.75 4.8125V8.75C12.75 9.16421 12.4142 9.5 12 9.5C11.5858 9.5 11.25 9.16421 11.25 8.75V4.8125C11.25 4.81189 11.25 4.81127 11.25 4.81066L9.78033 6.28033C9.48744 6.57322 9.01256 6.57322 8.71967 6.28033C8.42678 5.98744 8.42678 5.51256 8.71967 5.21967L11.4697 2.46967ZM11.9982 4.0625C11.9988 4.0625 11.9994 4.0625 12 4.0625C12.0006 4.0625 12.0012 4.0625 12.0018 4.0625L12 4.06066L11.9982 4.0625ZM3.5 6.50731C3.5 6.50582 3.50014 6.50515 3.50016 6.50504L3.50027 6.50469C3.50041 6.50436 3.50093 6.50335 3.50214 6.50214C3.50335 6.50093 3.50436 6.50041 3.50469 6.50027L3.50504 6.50016L3.50554 6.50008L3.50731 6.5H5.75C6.16421 6.5 6.5 6.16421 6.5 5.75C6.5 5.33579 6.16421 5 5.75 5H3.50731C2.67485 5 2 5.67485 2 6.50731C2 6.82147 2.09816 7.12777 2.28076 7.38341L5.57832 12L2.28076 16.6166C2.09816 16.8722 2 17.1785 2 17.4927C2 18.3252 2.67485 19 3.50731 19H5.75C6.16421 19 6.5 18.6642 6.5 18.25C6.5 17.8358 6.16421 17.5 5.75 17.5H3.50731L3.50592 17.5L3.50504 17.4998L3.50469 17.4997C3.50436 17.4996 3.50335 17.4991 3.50214 17.4979C3.50093 17.4967 3.50041 17.4956 3.50027 17.4953L3.50016 17.495L3.5001 17.4946L3.5 17.4927C3.5 17.4912 3.50048 17.4897 3.50136 17.4884L6.88596 12.75H17.114L20.4986 17.4884C20.4995 17.4897 20.5 17.4912 20.5 17.4927C20.5 17.4942 20.4999 17.4949 20.4998 17.495L20.4997 17.4953C20.4996 17.4956 20.4991 17.4967 20.4979 17.4979L20.4965 17.4991L20.4953 17.4997L20.495 17.4998L20.4946 17.4999L20.4927 17.5H18.25C17.8358 17.5 17.5 17.8358 17.5 18.25C17.5 18.6642 17.8358 19 18.25 19H20.4927C21.3252 19 22 18.3252 22 17.4927C22 17.1785 21.9018 16.8722 21.7192 16.6166L18.4217 12L21.7192 7.38341C21.9018 7.12777 22 6.82147 22 6.50731C22 5.67485 21.3252 5 20.4927 5H18.25C17.8358 5 17.5 5.33579 17.5 5.75C17.5 6.16421 17.8358 6.5 18.25 6.5H20.4927L20.4943 6.50007L20.495 6.50016L20.4953 6.50027C20.4956 6.50041 20.4967 6.50093 20.4979 6.50214C20.4991 6.50335 20.4996 6.50436 20.4997 6.50469L20.4998 6.50504L20.4999 6.50557L20.5 6.50731C20.5 6.50883 20.4995 6.51032 20.4986 6.51156L17.114 11.25H6.88596L3.50136 6.51156C3.50048 6.51032 3.5 6.50883 3.5 6.50731ZM12 19.9375L11.9982 19.9375L12 19.9393L12.0018 19.9375L12 19.9375ZM11.25 19.1875L11.25 19.1893L9.78033 17.7197C9.48744 17.4268 9.01256 17.4268 8.71967 17.7197C8.42678 18.0126 8.42678 18.4874 8.71967 18.7803L11.4697 21.5303C11.6103 21.671 11.8011 21.75 12 21.75C12.1989 21.75 12.3897 21.671 12.5303 21.5303L15.2803 18.7803C15.5732 18.4874 15.5732 18.0126 15.2803 17.7197C14.9874 17.4268 14.5126 17.4268 14.2197 17.7197L12.75 19.1893L12.75 19.1875V15.25C12.75 14.8358 12.4142 14.5 12 14.5C11.5858 14.5 11.25 14.8358 11.25 15.25V19.1875Z"/>
</svg>
