<svg width="24" height="24" viewBox="0 0 24 24" xmlns="http://www.w3.org/2000/svg">
  <path fill-rule="evenodd" clip-rule="evenodd" d="M12 3.5C11.0717 3.5 10.1815 3.86875 9.52513 4.52513C8.86875 5.18151 8.5 6.07175 8.5 7V10H18.25C19.216 10 20 10.784 20 11.75V19.25C20 19.7141 19.8156 20.1593 19.4874 20.4874C19.1592 20.8156 18.7141 21 18.25 21H5.75C5.28587 21 4.84075 20.8156 4.51256 20.4874C4.18437 20.1593 4 19.7141 4 19.25V11.75C4 10.784 4.784 10 5.75 10H7V7C6.99968 5.75026 7.46739 4.5457 8.311 3.62363C9.1546 2.70157 10.3129 2.12886 11.5578 2.01832C12.8026 1.90779 14.0437 2.26745 15.0366 3.02645C16.0295 3.78545 16.7021 4.88875 16.922 6.119C16.9431 6.21748 16.9441 6.3192 16.925 6.41809C16.9059 6.51697 16.8671 6.611 16.8109 6.69457C16.7547 6.77813 16.6822 6.84952 16.5978 6.90447C16.5134 6.95942 16.4188 6.99682 16.3197 7.01442C16.2205 7.03202 16.1188 7.02947 16.0207 7.00692C15.9225 6.98437 15.8299 6.94229 15.7484 6.88317C15.6668 6.82406 15.5981 6.74913 15.5461 6.66285C15.4941 6.57658 15.4601 6.48072 15.446 6.381C15.3006 5.57293 14.8758 4.84167 14.2459 4.31504C13.616 3.78842 12.821 3.49993 12 3.5Z"/>
</svg>
