<svg width="16" height="16" viewBox="0 0 16 16" xmlns="http://www.w3.org/2000/svg">
  <path fill-rule="evenodd" clip-rule="evenodd" d="M6.242 1.168C6.999 -0.227 9.002 -0.227 9.758 1.168L15.658 12.046C16.381 13.38 15.416 15 13.9 15H2.1C0.583996 15 -0.380004 13.38 0.341996 12.046L6.242 1.168ZM8 5C8.19891 5 8.38967 5.07902 8.53032 5.21967C8.67098 5.36032 8.75 5.55109 8.75 5.75V8.25C8.75 8.44891 8.67098 8.63968 8.53032 8.78033C8.38967 8.92098 8.19891 9 8 9C7.80108 9 7.61032 8.92098 7.46967 8.78033C7.32901 8.63968 7.25 8.44891 7.25 8.25V5.75C7.25 5.55109 7.32901 5.36032 7.46967 5.21967C7.61032 5.07902 7.80108 5 8 5ZM7 11C7 10.7348 7.10535 10.4804 7.29289 10.2929C7.48043 10.1054 7.73478 10 8 10C8.26521 10 8.51957 10.1054 8.7071 10.2929C8.89464 10.4804 9 10.7348 9 11C9 11.2652 8.89464 11.5196 8.7071 11.7071C8.51957 11.8946 8.26521 12 8 12C7.73478 12 7.48043 11.8946 7.29289 11.7071C7.10535 11.5196 7 11.2652 7 11Z"/>
</svg>
