<svg width="16" height="16" viewBox="0 0 16 16" xmlns="http://www.w3.org/2000/svg">
  <path fill-rule="evenodd" clip-rule="evenodd" d="M8.43999 1.883C8.39715 1.80362 8.33364 1.73732 8.25618 1.6911C8.17871 1.64489 8.0902 1.62049 8 1.62049C7.9098 1.62049 7.82128 1.64489 7.74382 1.6911C7.66635 1.73732 7.60284 1.80362 7.56 1.883L1.66 12.762C1.61876 12.8382 1.59803 12.9238 1.59983 13.0104C1.60162 13.097 1.62589 13.1816 1.67025 13.256C1.71462 13.3305 1.77755 13.3921 1.85288 13.4348C1.92822 13.4776 2.01337 13.5 2.1 13.5H13.9C13.9866 13.5 14.0718 13.4776 14.1471 13.4348C14.2224 13.3921 14.2854 13.3305 14.3297 13.256C14.3741 13.1816 14.3984 13.097 14.4002 13.0104C14.402 12.9238 14.3812 12.8382 14.34 12.762L8.43999 1.883ZM6.242 1.168C6.999 -0.227 9.002 -0.227 9.758 1.168L15.658 12.046C16.381 13.38 15.416 15 13.9 15H2.1C0.583996 15 -0.380004 13.38 0.341996 12.046L6.242 1.168ZM8 5C8.19891 5 8.38967 5.07902 8.53032 5.21967C8.67098 5.36032 8.75 5.55109 8.75 5.75V8.25C8.75 8.44891 8.67098 8.63968 8.53032 8.78033C8.38967 8.92098 8.19891 9 8 9C7.80108 9 7.61032 8.92098 7.46967 8.78033C7.32901 8.63968 7.25 8.44891 7.25 8.25V5.75C7.25 5.55109 7.32901 5.36032 7.46967 5.21967C7.61032 5.07902 7.80108 5 8 5ZM8 10C7.73478 10 7.48043 10.1054 7.29289 10.2929C7.10535 10.4804 7 10.7348 7 11C7 11.2652 7.10535 11.5196 7.29289 11.7071C7.48043 11.8946 7.73478 12 8 12C8.26521 12 8.51957 11.8946 8.7071 11.7071C8.89464 11.5196 9 11.2652 9 11C9 10.7348 8.89464 10.4804 8.7071 10.2929C8.51957 10.1054 8.26521 10 8 10Z"/>
</svg>
