<svg width="16" height="16" viewBox="0 0 16 16" xmlns="http://www.w3.org/2000/svg">
  <path fill-rule="evenodd" clip-rule="evenodd" d="M3.71967 3.96967C4.01256 3.67678 4.48744 3.67678 4.78033 3.96967C5.07322 4.26256 5.07322 4.73744 4.78033 5.03033L2.56066 7.25H13.4393L11.2197 5.03033C10.9268 4.73744 10.9268 4.26256 11.2197 3.96967C11.5126 3.67678 11.9874 3.67678 12.2803 3.96967L15.7803 7.46967C16.0732 7.76256 16.0732 8.23744 15.7803 8.53033L12.2803 12.0303C11.9874 12.3232 11.5126 12.3232 11.2197 12.0303C10.9268 11.7374 10.9268 11.2626 11.2197 10.9697L13.4393 8.75H2.56066L4.78033 10.9697C5.07322 11.2626 5.07322 11.7374 4.78033 12.0303C4.48744 12.3232 4.01256 12.3232 3.71967 12.0303L0.21967 8.53033C-0.0732232 8.23744 -0.0732232 7.76256 0.21967 7.46967L3.71967 3.96967Z"/>
</svg>
