<svg width="16" height="16" viewBox="0 0 16 16" xmlns="http://www.w3.org/2000/svg">
  <path fill-rule="evenodd" clip-rule="evenodd" d="M4.50003 5.79387V1.5H4.25C3.83579 1.5 3.5 1.16421 3.5 0.75C3.5 0.335786 3.83579 0 4.25 0H5.25003H10.75H11.75C12.1642 0 12.5 0.335786 12.5 0.75C12.5 1.16421 12.1642 1.5 11.75 1.5H11.5V5.79387L15.0977 11.8445C16.1877 13.6776 14.8667 16 12.734 16H3.26605C1.13338 16 -0.187624 13.6776 0.902331 11.8445L4.50003 5.79387ZM10 1.5H6.00003V6C6.00003 6.13492 5.96363 6.26734 5.89468 6.38331L4.33881 9H11.6612L10.1054 6.38331C10.0364 6.26734 10 6.13492 10 6V1.5ZM2.19163 12.6112L3.44692 10.5H12.5531L13.8084 12.6112C14.3039 13.4444 13.7034 14.5 12.734 14.5H3.26605C2.29666 14.5 1.6962 13.4444 2.19163 12.6112Z"/>
</svg>
