<svg width="16" height="16" viewBox="0 0 16 16" xmlns="http://www.w3.org/2000/svg">
  <path fill-rule="evenodd" clip-rule="evenodd" d="M8 1.5A3.5 3.5 0 004.5 5v2.342c0 .74-.22 1.464-.63 2.08l-1.367 2.05a.018.018 0 00-.003.01l.001.007c0 .002.002.004.004.006a.017.017 0 00.006.004l.007.001h10.964l.007-.001a.016.016 0 00.006-.004.016.016 0 00.004-.006l.001-.007a.017.017 0 00-.003-.01l-1.367-2.05a3.75 3.75 0 01-.63-2.08V5A3.5 3.5 0 008 1.5zM3 5a5 5 0 0110 0v2.342c0 .444.132.878.378 1.248l1.367 2.05A1.518 1.518 0 0113.482 13H2.518a1.518 1.518 0 01-1.263-2.36l1.367-2.05A2.25 2.25 0 003 7.342V5z"/>
  <path d="M8 16a2 2 0 001.985-1.75c.017-.137-.097-.25-.235-.25h-3.5c-.138 0-.252.113-.235.25A2 2 0 008 16z"/>
</svg>
