<svg width="16" height="16" viewBox="0 0 16 16" xmlns="http://www.w3.org/2000/svg">
  <g clip-path="url(#clip0)">
    <path fill-rule="evenodd" clip-rule="evenodd" d="M1.28 0.220001C1.21134 0.146314 1.12854 0.087212 1.03654 0.04622C0.94454 0.00522806 0.845226 -0.0168138 0.744524 -0.0185906C0.643821 -0.0203673 0.543792 -0.00184268 0.450403 0.0358783C0.357015 0.0735994 0.272181 0.129744 0.200963 0.200963C0.129744 0.272181 0.0735994 0.357015 0.0358783 0.450403C-0.00184268 0.543792 -0.0203673 0.643821 -0.0185906 0.744524C-0.0168138 0.845226 0.00522806 0.94454 0.04622 1.03654C0.087212 1.12854 0.146314 1.21134 0.220001 1.28L3.075 4.135C3.025 4.417 3 4.705 3 5V7.342C3 7.786 2.869 8.22 2.622 8.59L1.255 10.64C1.1026 10.8686 1.01511 11.1343 1.00185 11.4087C0.988583 11.6831 1.05005 11.956 1.17969 12.1983C1.30933 12.4405 1.50228 12.643 1.73797 12.7842C1.97366 12.9254 2.24325 13 2.518 13H11.939L14.719 15.78C14.7882 15.8517 14.8709 15.9088 14.9624 15.9482C15.0539 15.9875 15.1523 16.0083 15.2518 16.0092C15.3514 16.0101 15.4502 15.9912 15.5424 15.9535C15.6346 15.9158 15.7183 15.8602 15.7888 15.7898C15.8592 15.7194 15.915 15.6357 15.9527 15.5435C15.9905 15.4514 16.0095 15.3526 16.0087 15.2531C16.0079 15.1535 15.9872 15.055 15.948 14.9635C15.9087 14.872 15.8516 14.7892 15.78 14.72L1.28 0.220001ZM4.5 7.342V5.56L10.44 11.499H2.517L2.51 11.498C2.50774 11.4971 2.50569 11.4957 2.504 11.494C2.50228 11.4923 2.50092 11.4903 2.5 11.488C2.49915 11.4858 2.49881 11.4834 2.499 11.481L2.502 11.471L3.869 9.421C4.279 8.805 4.499 8.081 4.499 7.341L4.5 7.342ZM6.09 2.066C6.61825 1.72198 7.22961 1.52703 7.8595 1.50172C8.48939 1.47642 9.11442 1.6217 9.66857 1.92223C10.2227 2.22276 10.6854 2.66738 11.0078 3.20912C11.3301 3.75086 11.5002 4.36961 11.5 5V8.007C11.5 8.20591 11.579 8.39668 11.7197 8.53733C11.8603 8.67798 12.0511 8.757 12.25 8.757C12.4489 8.757 12.6397 8.67798 12.7803 8.53733C12.921 8.39668 13 8.20591 13 8.007V5C13.0002 4.09933 12.7571 3.21534 12.2964 2.44141C11.8357 1.66748 11.1745 1.03237 10.3827 0.603162C9.59087 0.173958 8.69782 -0.0333941 7.79789 0.00301352C6.89795 0.0394211 6.02457 0.318236 5.27 0.810001C5.18696 0.863586 5.11533 0.933054 5.05923 1.01441C5.00312 1.09577 4.96365 1.18742 4.94308 1.28408C4.92251 1.38074 4.92124 1.48052 4.93936 1.57767C4.95748 1.67483 4.99462 1.76744 5.04864 1.85019C5.10267 1.93295 5.17252 2.00421 5.25418 2.05988C5.33583 2.11555 5.42769 2.15453 5.52446 2.17458C5.62123 2.19464 5.72101 2.19537 5.81807 2.17673C5.91512 2.1581 6.00754 2.12047 6.09 2.066ZM9.986 14.25C9.92633 14.7344 9.69158 15.1803 9.32596 15.5037C8.96034 15.827 8.48909 16.0055 8.001 16.0055C7.51291 16.0055 7.04166 15.827 6.67604 15.5037C6.31042 15.1803 6.07567 14.7344 6.016 14.25C5.999 14.114 6.113 14.001 6.251 14.001H9.751C9.889 14.001 10.003 14.114 9.986 14.251V14.25Z"/>
  </g>
  <defs>
    <clipPath id="clip0">
      <rect width="16" height="16"/>
    </clipPath>
  </defs>
</svg>
