<svg width="16" height="16" viewBox="0 0 16 16" xmlns="http://www.w3.org/2000/svg">
  <path fill-rule="evenodd" clip-rule="evenodd" d="M1.28 0.220001C1.21134 0.146314 1.12854 0.087212 1.03654 0.04622C0.94454 0.00522806 0.845226 -0.0168138 0.744524 -0.0185906C0.643821 -0.0203673 0.543792 -0.00184268 0.450403 0.0358783C0.357015 0.0735994 0.272181 0.129744 0.200963 0.200963C0.129744 0.272181 0.0735994 0.357015 0.0358783 0.450403C-0.00184268 0.543792 -0.0203673 0.643821 -0.0185906 0.744524C-0.0168138 0.845226 0.00522806 0.94454 0.04622 1.03654C0.087212 1.12854 0.146314 1.21134 0.220001 1.28L3.075 4.135C3.025 4.417 3 4.705 3 5V7.342C3 7.786 2.869 8.22 2.622 8.59L1.255 10.64C1.1026 10.8686 1.01511 11.1343 1.00185 11.4087C0.988583 11.6831 1.05005 11.956 1.17969 12.1983C1.30933 12.4405 1.50228 12.643 1.73797 12.7842C1.97366 12.9254 2.24325 13 2.518 13H11.939L14.719 15.78C14.7882 15.8517 14.8709 15.9088 14.9624 15.9482C15.0539 15.9875 15.1523 16.0083 15.2518 16.0092C15.3514 16.0101 15.4502 15.9912 15.5424 15.9535C15.6346 15.9158 15.7183 15.8602 15.7888 15.7898C15.8592 15.7194 15.915 15.6357 15.9527 15.5435C15.9905 15.4514 16.0095 15.3526 16.0087 15.2531C16.0079 15.1535 15.9872 15.055 15.948 14.9635C15.9087 14.872 15.8516 14.7892 15.78 14.72L1.28 0.220001ZM8 1.02073e-06C7.03056 -0.00147536 6.08176 0.280035 5.27 0.810001C5.17666 0.871027 5.0981 0.952103 5.04004 1.04732C4.98199 1.14254 4.9459 1.24951 4.9344 1.36044C4.92291 1.47137 4.9363 1.58347 4.97359 1.68857C5.01089 1.79367 5.07115 1.88913 5.15 1.968L11.72 8.538C11.8249 8.64276 11.9585 8.71408 12.1039 8.74297C12.2493 8.77185 12.4 8.757 12.5369 8.70029C12.6739 8.64358 12.791 8.54755 12.8734 8.42433C12.9558 8.30112 12.9999 8.15624 13 8.008V5C13 3.67392 12.4732 2.40215 11.5355 1.46447C10.5979 0.526785 9.32608 1.02073e-06 8 1.02073e-06ZM8 16C8.48726 16.0002 8.95781 15.8225 9.32331 15.5002C9.6888 15.178 9.92409 14.7334 9.985 14.25C10.002 14.113 9.888 14 9.75 14H6.25C6.112 14 5.998 14.113 6.015 14.25C6.07591 14.7334 6.3112 15.178 6.6767 15.5002C7.04219 15.8225 7.51275 16.0002 8 16Z"/>
</svg>
