<svg width="16" height="16" viewBox="0 0 16 16" xmlns="http://www.w3.org/2000/svg">
  <path fill-rule="evenodd" clip-rule="evenodd" d="M1.28.22A.75.75 0 10.22 1.28l2.855 2.855C3.025 4.417 3 4.705 3 5v2.342c0 .444-.131.878-.378 1.248l-1.367 2.05A1.518 1.518 0 002.518 13h9.421l2.78 2.78a.75.75 0 101.061-1.06L1.28.22zM4.5 7.342V5.56l5.94 5.939H2.517l-.007-.001a.017.017 0 01-.006-.004.018.018 0 01-.004-.006.016.016 0 01-.001-.007l.003-.01 1.367-2.05c.41-.616.63-1.34.63-2.08zm1.59-5.276A3.5 3.5 0 0111.5 5v3.007a.75.75 0 001.5 0V5A5 5 0 005.27.81a.75.75 0 10.82 1.256zM9.986 14.25a2 2 0 01-3.97 0c-.017-.136.097-.249.235-.249h3.5c.138 0 .252.113.235.25z"/>
</svg>
