<svg width="16" height="16" viewBox="0 0 16 16" xmlns="http://www.w3.org/2000/svg">
  <path fill-rule="evenodd" clip-rule="evenodd" d="M1.28.22A.75.75 0 10.22 1.28l2.855 2.855C3.025 4.417 3 4.705 3 5v2.342c0 .444-.131.878-.378 1.248l-1.367 2.05A1.518 1.518 0 002.518 13h9.421l2.78 2.78a.75.75 0 101.061-1.06L1.28.22zM8 0C6.78 0 5.66.438 4.793 1.164a.75.75 0 00-.05 1.104l7.976 8.011a.75.75 0 001.155-.945l-.496-.744A2.25 2.25 0 0113 7.342V5a5 5 0 00-5-5zm0 16a2 2 0 001.985-1.75c.017-.137-.097-.25-.235-.25h-3.5c-.138 0-.252.113-.235.25A2 2 0 008 16z"/>
</svg>
