<svg width="16" height="16" viewBox="0 0 16 16" xmlns="http://www.w3.org/2000/svg">
  <path fill-rule="evenodd" clip-rule="evenodd" d="M3.75 1C3.33579 1 3 1.33579 3 1.75V7.75V14.25C3 14.6642 3.33579 15 3.75 15H9C11.2091 15 13 13.2091 13 11C13 9.45826 12.1278 8.12024 10.8498 7.4525C11.5588 6.77026 12 5.81165 12 4.75C12 2.67893 10.3211 1 8.25 1H3.75ZM8.25 7C9.49264 7 10.5 5.99264 10.5 4.75C10.5 3.50736 9.49264 2.5 8.25 2.5H4.5V7H8.25ZM4.5 8.5V13.5H9C10.3807 13.5 11.5 12.3807 11.5 11C11.5 9.61929 10.3807 8.5 9 8.5H8.25H4.5Z"/>
</svg>
