<svg width="16" height="16" viewBox="0 0 16 16" xmlns="http://www.w3.org/2000/svg">
  <path fill-rule="evenodd" clip-rule="evenodd" d="M4 1C3.44772 1 3 1.44772 3 2V7.5V14C3 14.5523 3.44772 15 4 15H8.75C11.0972 15 13 13.0972 13 10.75C13 9.26675 12.2402 7.96097 11.0885 7.20066C11.6565 6.54341 12 5.68682 12 4.75C12 2.67893 10.3211 1 8.25 1H4ZM8.25 6.5C9.2165 6.5 10 5.7165 10 4.75C10 3.7835 9.2165 3 8.25 3H5V6.5H8.25ZM5 8.5V13H8.75C9.99264 13 11 11.9926 11 10.75C11 9.50736 9.99264 8.5 8.75 8.5H8.25H5Z"/>
</svg>
