<svg width="16" height="16" viewBox="0 0 16 16" xmlns="http://www.w3.org/2000/svg">
  <path fill-rule="evenodd" clip-rule="evenodd" d="M5.318 2.07639e-07C5.16463 -0.000113883 5.01492 0.046791 4.88904 0.134393C4.76316 0.221995 4.66715 0.346082 4.61397 0.489931C4.56079 0.633779 4.55299 0.790474 4.59162 0.938894C4.63024 1.08731 4.71344 1.22033 4.83 1.32L11.762 7.261C11.8709 7.35435 12.0044 7.41449 12.1465 7.4343C12.2886 7.4541 12.4333 7.43274 12.5637 7.37274C12.694 7.31274 12.8044 7.21662 12.8817 7.09578C12.959 6.97495 13.0001 6.83447 13 6.691V1.75C13 1.28587 12.8156 0.840752 12.4874 0.512563C12.1592 0.184375 11.7141 2.07639e-07 11.25 2.07639e-07H5.318ZM1.488 0.43C1.33682 0.300575 1.14043 0.236503 0.942015 0.251881C0.743602 0.267259 0.559424 0.360827 0.429998 0.512C0.300572 0.663174 0.236501 0.85957 0.251879 1.05798C0.267257 1.2564 0.360825 1.44057 0.511998 1.57L3 3.701V15.25C2.99995 15.3922 3.04035 15.5315 3.11647 15.6517C3.1926 15.7718 3.30131 15.8678 3.42993 15.9285C3.55855 15.9892 3.70178 16.0121 3.84291 15.9945C3.98404 15.9768 4.11725 15.9195 4.227 15.829L8 12.722L11.773 15.829C11.8827 15.9195 12.016 15.9768 12.1571 15.9945C12.2982 16.0121 12.4414 15.9892 12.5701 15.9285C12.6987 15.8678 12.8074 15.7718 12.8835 15.6517C12.9596 15.5315 13 15.3922 13 15.25V12.274L14.512 13.569C14.5861 13.6369 14.6732 13.6892 14.768 13.7228C14.8627 13.7564 14.9633 13.7706 15.0637 13.7645C15.164 13.7585 15.2621 13.7323 15.3522 13.6876C15.4422 13.6428 15.5224 13.5805 15.5878 13.5041C15.6533 13.4278 15.7027 13.3391 15.7332 13.2433C15.7637 13.1475 15.7746 13.0465 15.7653 12.9464C15.756 12.8463 15.7266 12.7491 15.679 12.6605C15.6314 12.572 15.5664 12.4939 15.488 12.431L1.488 0.431V0.43Z"/>
</svg>
