<svg width="16" height="16" viewBox="0 0 16 16" xmlns="http://www.w3.org/2000/svg">
  <path fill-rule="evenodd" clip-rule="evenodd" d="M3 2.5C3 2.10218 3.15804 1.72064 3.43934 1.43934C3.72064 1.15804 4.10218 1 4.5 1H11.5C11.8978 1 12.2794 1.15804 12.5607 1.43934C12.842 1.72064 13 2.10218 13 2.5V14.25C13 14.3874 12.9622 14.5221 12.8909 14.6395C12.8195 14.7569 12.7172 14.8525 12.5953 14.9157C12.4733 14.979 12.3363 15.0075 12.1993 14.9982C12.0622 14.9889 11.9303 14.9421 11.818 14.863L8 12.168L4.183 14.863C4.07069 14.9424 3.9387 14.9894 3.80148 14.9988C3.66425 15.0083 3.52707 14.9798 3.40494 14.9165C3.28281 14.8532 3.18044 14.7576 3.10902 14.64C3.0376 14.5225 2.99989 14.3876 3 14.25V2.5ZM11.5 2.5H4.5V12.803L7.567 10.637C7.69363 10.5475 7.84491 10.4994 8 10.4994C8.15509 10.4994 8.30637 10.5475 8.433 10.637L11.5 12.803V2.5Z"/>
</svg>
