<svg width="16" height="16" viewBox="0 0 16 16" xmlns="http://www.w3.org/2000/svg">
  <path fill-rule="evenodd" clip-rule="evenodd" d="M0 1.75C0 1.33579 0.335786 1 0.75 1H4.75286C5.98012 1 7.06979 1.58958 7.75393 2.50106C8.43803 1.58962 9.52766 1 10.755 1H15.25C15.6642 1 16 1.33579 16 1.75V12.25C16 12.6642 15.6642 13 15.25 13H10.4926C9.8959 13 9.32361 13.2371 8.90165 13.659L8.28033 14.2803C7.98744 14.5732 7.51256 14.5732 7.21967 14.2803L6.59835 13.659C6.17639 13.2371 5.6041 13 5.00736 13H0.75C0.335786 13 0 12.6642 0 12.25V1.75ZM8.505 4.75C8.505 3.50736 9.51236 2.5 10.755 2.5H14.5V11.5H10.4926C9.78263 11.5 9.09339 11.7014 8.50124 12.0724L8.505 4.75ZM7.00124 12.074L7.005 7.00071L7.00285 4.74786C7.00167 3.50605 5.99466 2.5 4.75286 2.5H1.5V11.5H5.00736C5.71836 11.5 6.40854 11.7019 7.00124 12.074Z"/>
</svg>
