<svg width="16" height="16" viewBox="0 0 16 16" xmlns="http://www.w3.org/2000/svg">
  <path fill-rule="evenodd" clip-rule="evenodd" d="M4.56799 0.75C4.56799 0.551088 4.64701 0.360322 4.78766 0.21967C4.92832 0.0790176 5.11908 0 5.31799 0L11.25 0C12.216 0 13 0.784 13 1.75V6.692C13 6.89091 12.921 7.08168 12.7803 7.22233C12.6397 7.36298 12.4489 7.442 12.25 7.442C12.0511 7.442 11.8603 7.36298 11.7197 7.22233C11.579 7.08168 11.5 6.89091 11.5 6.692V1.75C11.5 1.6837 11.4737 1.62011 11.4268 1.57322C11.3799 1.52634 11.3163 1.5 11.25 1.5H5.31799C5.11908 1.5 4.92832 1.42098 4.78766 1.28033C4.64701 1.13968 4.56799 0.948912 4.56799 0.75ZM0.430993 0.512C0.560336 0.361039 0.744323 0.267605 0.942521 0.252229C1.14072 0.236854 1.33691 0.300794 1.48799 0.43L15.488 12.43C15.5664 12.4929 15.6314 12.571 15.679 12.6595C15.7266 12.7481 15.756 12.8453 15.7653 12.9454C15.7746 13.0455 15.7637 13.1465 15.7332 13.2423C15.7027 13.3381 15.6533 13.4268 15.5878 13.5031C15.5224 13.5795 15.4422 13.6418 15.3522 13.6866C15.2621 13.7313 15.164 13.7575 15.0636 13.7635C14.9633 13.7696 14.8627 13.7554 14.768 13.7218C14.6732 13.6882 14.5861 13.6359 14.512 13.568L13 12.273V15.25C13 15.3922 12.9596 15.5315 12.8835 15.6517C12.8074 15.7718 12.6987 15.8678 12.5701 15.9285C12.4414 15.9892 12.2982 16.0121 12.1571 15.9945C12.016 15.9768 11.8827 15.9195 11.773 15.829L7.99999 12.722L4.22699 15.829C4.11724 15.9195 3.98403 15.9768 3.8429 15.9945C3.70178 16.0121 3.55855 15.9892 3.42993 15.9285C3.3013 15.8678 3.19259 15.7718 3.11647 15.6517C3.04034 15.5315 2.99995 15.3922 2.99999 15.25V3.702L0.511993 1.57C0.437098 1.50594 0.375562 1.42775 0.330904 1.3399C0.286245 1.25205 0.259339 1.15625 0.251724 1.05799C0.244108 0.959737 0.255933 0.860941 0.286521 0.767256C0.31711 0.673571 0.365863 0.586833 0.429993 0.512H0.430993ZM4.49999 4.988V13.661L7.52299 11.171C7.65731 11.0603 7.82594 10.9998 7.99999 10.9998C8.17405 10.9998 8.34268 11.0603 8.47699 11.171L11.5 13.661V10.988L4.49999 4.988Z"/>
</svg>
