<svg width="16" height="16" viewBox="0 0 16 16" xmlns="http://www.w3.org/2000/svg">
  <path fill-rule="evenodd" clip-rule="evenodd" d="M0 1.75C0 1.33579 0.335786 1 0.75 1H5.00286C6.23012 1 7.31979 1.58958 8.00393 2.50106C8.68803 1.58962 9.77766 1 11.005 1H15.25C15.6642 1 16 1.33579 16 1.75V12.25C16 12.6642 15.6642 13 15.25 13H10.7426C10.1459 13 9.57361 13.2371 9.15165 13.659L8.53033 14.2803C8.23744 14.5732 7.76256 14.5732 7.46967 14.2803L6.84835 13.659C6.42639 13.2371 5.8541 13 5.25736 13H0.75C0.335786 13 0 12.6642 0 12.25V1.75ZM8.755 4.75C8.755 3.50736 9.76236 2.5 11.005 2.5H14.5V11.5H10.7426C10.0326 11.5 9.34339 11.7014 8.75124 12.0724L8.755 4.75ZM7.25124 12.074L7.255 7.00071L7.25285 4.74786C7.25167 3.50605 6.24466 2.5 5.00286 2.5H1.5V11.5H5.25736C5.96836 11.5 6.65854 11.7019 7.25124 12.074ZM2.5 5.25C2.5 4.83579 2.83579 4.5 3.25 4.5H5.25C5.66421 4.5 6 4.83579 6 5.25C6 5.66421 5.66421 6 5.25 6H3.25C2.83579 6 2.5 5.66421 2.5 5.25ZM10.75 4.5C10.3358 4.5 10 4.83579 10 5.25C10 5.66421 10.3358 6 10.75 6H12.75C13.1642 6 13.5 5.66421 13.5 5.25C13.5 4.83579 13.1642 4.5 12.75 4.5H10.75ZM2.5 8.25C2.5 7.83579 2.83579 7.5 3.25 7.5H5.25C5.66421 7.5 6 7.83579 6 8.25C6 8.66421 5.66421 9 5.25 9H3.25C2.83579 9 2.5 8.66421 2.5 8.25ZM10.75 7.5C10.3358 7.5 10 7.83579 10 8.25C10 8.66421 10.3358 9 10.75 9H12.75C13.1642 9 13.5 8.66421 13.5 8.25C13.5 7.83579 13.1642 7.5 12.75 7.5H10.75Z"/>
</svg>
