<svg width="16" height="16" viewBox="0 0 16 16" xmlns="http://www.w3.org/2000/svg">
  <path fill-rule="evenodd" clip-rule="evenodd" d="M4.75 0C4.28587 0 3.84075 0.184374 3.51256 0.512563C3.18437 0.840752 3 1.28587 3 1.75V15.25C2.99996 15.3922 3.04035 15.5315 3.11647 15.6517C3.1926 15.7718 3.30131 15.8678 3.42993 15.9285C3.55856 15.9892 3.70178 16.0121 3.84291 15.9945C3.98404 15.9768 4.11725 15.9195 4.227 15.829L8 12.722L11.773 15.829C11.8828 15.9195 12.016 15.9768 12.1571 15.9945C12.2982 16.0121 12.4414 15.9892 12.5701 15.9285C12.6987 15.8678 12.8074 15.7718 12.8835 15.6517C12.9596 15.5315 13 15.3922 13 15.25V1.75C13 1.28587 12.8156 0.840752 12.4874 0.512563C12.1592 0.184374 11.7141 0 11.25 0H4.75Z"/>
</svg>
