<svg width="16" height="16" viewBox="0 0 16 16" xmlns="http://www.w3.org/2000/svg">
  <path fill-rule="evenodd" clip-rule="evenodd" d="M4.568.75a.75.75 0 01.75-.75h5.932C12.216 0 13 .784 13 1.75v4.942a.75.75 0 01-1.5 0V1.75a.25.25 0 00-.25-.25H5.318a.75.75 0 01-.75-.75zM.431.512A.75.75 0 011.488.43l14 12a.75.75 0 11-.976 1.138L13 12.273v2.977a.75.75 0 01-1.227.579L8 12.722l-3.773 3.107A.75.75 0 013 15.25V3.702L.512 1.57A.75.75 0 01.43.512zM4.5 4.988v8.673l3.023-2.49a.75.75 0 01.954 0l3.023 2.49v-2.673l-7-6z"/>
</svg>
