<svg width="16" height="16" viewBox="0 0 16 16" xmlns="http://www.w3.org/2000/svg">
  <path fill-rule="evenodd" clip-rule="evenodd" d="M3.543 1.23268C3.82872 1.53258 3.81721 2.00731 3.51731 2.29303C2.27357 3.47789 1.5 5.14799 1.5 7C1.5 8.85202 2.27357 10.5221 3.51731 11.707C3.81721 11.9927 3.82872 12.4674 3.543 12.7673C3.25729 13.0672 2.78256 13.0787 2.48266 12.793C0.954115 11.3368 0 9.27921 0 7C0 4.72079 0.954115 2.66318 2.48266 1.20698C2.78256 0.921267 3.25729 0.932773 3.543 1.23268ZM12.457 1.23268C12.7427 0.932773 13.2174 0.921267 13.5173 1.20698C15.0459 2.66318 16 4.72079 16 7C16 9.27921 15.0459 11.3368 13.5173 12.793C13.2174 13.0787 12.7427 13.0672 12.457 12.7673C12.1713 12.4674 12.1828 11.9927 12.4827 11.707C13.7264 10.5221 14.5 8.85202 14.5 7C14.5 5.14799 13.7264 3.47789 12.4827 2.29303C12.1828 2.00731 12.1713 1.53258 12.457 1.23268ZM8 5.25C7.0335 5.25 6.25 6.0335 6.25 7C6.25 7.6981 6.65876 8.30073 7.25 8.58159V14.25C7.25 14.6642 7.58579 15 8 15C8.41421 15 8.75 14.6642 8.75 14.25V8.58159C9.34124 8.30073 9.75 7.6981 9.75 7C9.75 6.0335 8.9665 5.25 8 5.25ZM5.74483 4.32329C6.06144 4.05621 6.10159 3.58304 5.83451 3.26643C5.56744 2.94982 5.09426 2.90966 4.77765 3.17674C3.69176 4.09276 3 5.46597 3 7.00002C3 8.53406 3.69176 9.90727 4.77765 10.8233C5.09426 11.0904 5.56744 11.0502 5.83451 10.7336C6.10159 10.417 6.06144 9.94382 5.74483 9.67674C4.98235 9.03355 4.5 8.07348 4.5 7.00002C4.5 5.92655 4.98235 4.96649 5.74483 4.32329ZM11.2223 3.17674C10.9057 2.90966 10.4326 2.94982 10.1655 3.26643C9.89841 3.58304 9.93856 4.05621 10.2552 4.32329C11.0177 4.96649 11.5 5.92655 11.5 7.00002C11.5 8.07348 11.0177 9.03355 10.2552 9.67674C9.93856 9.94382 9.89841 10.417 10.1655 10.7336C10.4326 11.0502 10.9057 11.0904 11.2223 10.8233C12.3082 9.90727 13 8.53406 13 7.00002C13 5.46597 12.3082 4.09276 11.2223 3.17674Z"/>
</svg>
