<svg width="16" height="16" viewBox="0 0 16 16" xmlns="http://www.w3.org/2000/svg">
  <path fill-rule="evenodd" clip-rule="evenodd" d="M1.5 2.75C1.5 2.6837 1.52634 2.62011 1.57322 2.57322C1.62011 2.52634 1.6837 2.5 1.75 2.5H14.25C14.3163 2.5 14.3799 2.52634 14.4268 2.57322C14.4737 2.62011 14.5 2.6837 14.5 2.75V11.25C14.5 11.3163 14.4737 11.3799 14.4268 11.4268C14.3799 11.4737 14.3163 11.5 14.25 11.5H7.75C7.55115 11.5002 7.36052 11.5793 7.22 11.72L4.5 14.44V12.25C4.5 12.0511 4.42098 11.8603 4.28033 11.7197C4.13968 11.579 3.94891 11.5 3.75 11.5H1.75C1.6837 11.5 1.62011 11.4737 1.57322 11.4268C1.52634 11.3799 1.5 11.3163 1.5 11.25V2.75ZM1.75 1C1.28587 1 0.840752 1.18437 0.512563 1.51256C0.184374 1.84075 0 2.28587 0 2.75L0 11.25C0 12.216 0.784 13 1.75 13H3V14.543C3.0001 14.8311 3.08561 15.1127 3.24571 15.3522C3.40581 15.5917 3.63333 15.7784 3.8995 15.8886C4.16567 15.9988 4.45854 16.0277 4.74111 15.9715C5.02367 15.9153 5.28324 15.7767 5.487 15.573L8.061 13H14.25C14.7141 13 15.1592 12.8156 15.4874 12.4874C15.8156 12.1592 16 11.7141 16 11.25V2.75C16 2.28587 15.8156 1.84075 15.4874 1.51256C15.1592 1.18437 14.7141 1 14.25 1H1.75ZM6.814 4.756C6.94495 4.90561 7.01114 5.1011 6.99802 5.29949C6.98489 5.49788 6.89352 5.68295 6.744 5.814L5.389 7L6.744 8.186C6.88779 8.31859 6.97409 8.50211 6.98451 8.69742C6.99492 8.89274 6.92863 9.08439 6.79975 9.23152C6.67088 9.37865 6.48963 9.46962 6.29465 9.48503C6.09967 9.50044 5.90638 9.43907 5.756 9.314L3.756 7.564C3.67569 7.49361 3.61135 7.40688 3.56726 7.30961C3.52318 7.21235 3.50037 7.10679 3.50037 7C3.50037 6.89321 3.52318 6.78765 3.56726 6.69039C3.61135 6.59312 3.67569 6.50639 3.756 6.436L5.756 4.686C5.90561 4.55504 6.1011 4.48886 6.29949 4.50198C6.49788 4.51511 6.68295 4.60648 6.814 4.756ZM9.186 4.756C9.05505 4.90561 8.98886 5.1011 9.00198 5.29949C9.01511 5.49788 9.10647 5.68295 9.256 5.814L10.611 7L9.256 8.186C9.17903 8.25001 9.11566 8.32878 9.06962 8.41767C9.02357 8.50656 8.99579 8.60376 8.9879 8.70356C8.98001 8.80335 8.99219 8.90372 9.0237 8.99873C9.05521 9.09375 9.10543 9.1815 9.17138 9.2568C9.23734 9.33211 9.31771 9.39344 9.40775 9.4372C9.49778 9.48096 9.59567 9.50624 9.69563 9.51158C9.7956 9.51691 9.89562 9.50217 9.98979 9.46824C10.084 9.43431 10.1704 9.38186 10.244 9.314L12.244 7.564C12.3243 7.49361 12.3887 7.40688 12.4327 7.30961C12.4768 7.21235 12.4996 7.10679 12.4996 7C12.4996 6.89321 12.4768 6.78765 12.4327 6.69039C12.3887 6.59312 12.3243 6.50639 12.244 6.436L10.244 4.686C10.0944 4.55504 9.8989 4.48886 9.70051 4.50198C9.50212 4.51511 9.31705 4.60648 9.186 4.756Z"/>
</svg>
