<svg width="16" height="16" viewBox="0 0 16 16" xmlns="http://www.w3.org/2000/svg">
  <path fill-rule="evenodd" clip-rule="evenodd" d="M5.78033 4.53033C6.07322 4.23744 6.07322 3.76256 5.78033 3.46967C5.48744 3.17678 5.01256 3.17678 4.71967 3.46967L0.71967 7.46967C0.426777 7.76256 0.426777 8.23744 0.71967 8.53033L4.71967 12.5303C5.01256 12.8232 5.48744 12.8232 5.78033 12.5303C6.07322 12.2374 6.07322 11.7626 5.78033 11.4697L2.31066 8L5.78033 4.53033ZM10.2197 4.53033C9.92678 4.23744 9.92678 3.76256 10.2197 3.46967C10.5126 3.17678 10.9874 3.17678 11.2803 3.46967L15.2803 7.46967C15.5732 7.76256 15.5732 8.23744 15.2803 8.53033L11.2803 12.5303C10.9874 12.8232 10.5126 12.8232 10.2197 12.5303C9.92678 12.2374 9.92678 11.7626 10.2197 11.4697L13.6893 8L10.2197 4.53033Z"/>
</svg>
