<svg width="16" height="16" viewBox="0 0 16 16" xmlns="http://www.w3.org/2000/svg">
  <path fill-rule="evenodd" clip-rule="evenodd" d="M1.5 2.75a.25.25 0 01.25-.25h12.5a.25.25 0 01.25.25v8.5a.25.25 0 01-.25.25h-6.5a.75.75 0 00-.53.22L4.5 14.44v-2.19a.75.75 0 00-.75-.75h-2a.25.25 0 01-.25-.25v-8.5zM1.75 1A1.75 1.75 0 000 2.75v8.5C0 12.216.784 13 1.75 13H3v1.543a1.457 1.457 0 002.487 1.03L8.061 13h6.189A1.75 1.75 0 0016 11.25v-8.5A1.75 1.75 0 0014.25 1H1.75zm5.064 3.756a.75.75 0 01-.07 1.058L5.389 7l1.355 1.186a.75.75 0 01-.988 1.128l-2-1.75a.75.75 0 010-1.128l2-1.75a.75.75 0 011.058.07zm2.372 0a.75.75 0 00.07 1.058L10.611 7 9.256 8.186a.75.75 0 10.988 1.128l2-1.75a.75.75 0 000-1.128l-2-1.75a.75.75 0 00-1.058.07z"/>
</svg>
