<svg width="16" height="16" viewBox="0 0 16 16" xmlns="http://www.w3.org/2000/svg">
  <path fill-rule="evenodd" clip-rule="evenodd" d="M2.75 1C2.28587 1 1.84075 1.18437 1.51256 1.51256C1.18437 1.84075 1 2.28587 1 2.75V10.25C1 11.216 1.784 12 2.75 12H4V14.25C4.00013 14.3982 4.04419 14.5431 4.12661 14.6663C4.20903 14.7895 4.32611 14.8856 4.46308 14.9423C4.60004 14.999 4.75074 15.0138 4.89614 14.985C5.04153 14.9561 5.17511 14.8848 5.28 14.78L8.06 12H13.25C13.7141 12 14.1592 11.8156 14.4874 11.4874C14.8156 11.1592 15 10.7141 15 10.25V2.75C15 2.28587 14.8156 1.84075 14.4874 1.51256C14.1592 1.18437 13.7141 1 13.25 1H2.75Z"/>
</svg>
