<svg width="16" height="16" viewBox="0 0 16 16" xmlns="http://www.w3.org/2000/svg">
  <path fill-rule="evenodd" clip-rule="evenodd" d="M2.75 1C1.7835 1 1 1.7835 1 2.75V9.25C1 10.2165 1.7835 11 2.75 11H3.25C3.66421 11 4 10.6642 4 10.25C4 9.83579 3.66421 9.5 3.25 9.5H2.75C2.61193 9.5 2.5 9.38807 2.5 9.25V2.75C2.5 2.61193 2.61193 2.5 2.75 2.5H9.25C9.38807 2.5 9.5 2.61193 9.5 2.75V3.25C9.5 3.66421 9.83579 4 10.25 4C10.6642 4 11 3.66421 11 3.25V2.75C11 1.7835 10.2165 1 9.25 1H2.75ZM6.75 5C5.7835 5 5 5.7835 5 6.75V13.25C5 14.2165 5.7835 15 6.75 15H13.25C14.2165 15 15 14.2165 15 13.25V6.75C15 5.7835 14.2165 5 13.25 5H6.75ZM6.5 6.75C6.5 6.61193 6.61193 6.5 6.75 6.5H13.25C13.3881 6.5 13.5 6.61193 13.5 6.75V13.25C13.5 13.3881 13.3881 13.5 13.25 13.5H6.75C6.61193 13.5 6.5 13.3881 6.5 13.25V6.75Z"/>
</svg>
