<svg width="16" height="16" viewBox="0 0 16 16" xmlns="http://www.w3.org/2000/svg">
  <path fill-rule="evenodd" clip-rule="evenodd" d="M16 0.25V4.396C16.0001 4.44551 15.9855 4.49393 15.958 4.53513C15.9305 4.57632 15.8915 4.60843 15.8457 4.62739C15.8 4.64635 15.7497 4.6513 15.7011 4.64162C15.6525 4.63194 15.608 4.60805 15.573 4.573L14.03 3.03L10.28 6.78C10.2113 6.85369 10.1285 6.91279 10.0365 6.95378C9.94454 6.99477 9.84523 7.01682 9.74452 7.01859C9.64382 7.02037 9.54379 7.00184 9.4504 6.96412C9.35701 6.9264 9.27218 6.87026 9.20096 6.79904C9.12974 6.72782 9.0736 6.64299 9.03588 6.5496C8.99816 6.45621 8.97963 6.35618 8.98141 6.25548C8.98318 6.15478 9.00523 6.05546 9.04622 5.96346C9.08721 5.87146 9.14631 5.78866 9.22 5.72L12.97 1.97L11.427 0.427C11.3919 0.392036 11.3681 0.34745 11.3584 0.298896C11.3487 0.250342 11.3536 0.200005 11.3726 0.154269C11.3916 0.108532 11.4237 0.0694546 11.4649 0.0419903C11.5061 0.014526 11.5545 -8.81823e-05 11.604 4.00326e-07H15.75C15.8163 4.00326e-07 15.8799 0.0263396 15.9268 0.0732237C15.9737 0.120108 16 0.183696 16 0.25ZM2.75 2.5C2.6837 2.5 2.62011 2.52634 2.57322 2.57322C2.52634 2.62011 2.5 2.6837 2.5 2.75V10.25C2.5 10.388 2.612 10.5 2.75 10.5H4.75C4.94891 10.5 5.13968 10.579 5.28033 10.7197C5.42098 10.8603 5.5 11.0511 5.5 11.25V13.44L8.22 10.72C8.36052 10.5793 8.55115 10.5002 8.75 10.5H13.25C13.3163 10.5 13.3799 10.4737 13.4268 10.4268C13.4737 10.3799 13.5 10.3163 13.5 10.25V7.75C13.5 7.55109 13.579 7.36032 13.7197 7.21967C13.8603 7.07902 14.0511 7 14.25 7C14.4489 7 14.6397 7.07902 14.7803 7.21967C14.921 7.36032 15 7.55109 15 7.75V10.25C15 10.7141 14.8156 11.1592 14.4874 11.4874C14.1592 11.8156 13.7141 12 13.25 12H9.06L6.487 14.573C6.28324 14.7767 6.02367 14.9153 5.74111 14.9715C5.45854 15.0277 5.16567 14.9988 4.8995 14.8886C4.63333 14.7784 4.40581 14.5917 4.24571 14.3522C4.08561 14.1127 4.0001 13.8311 4 13.543V12H2.75C2.28587 12 1.84075 11.8156 1.51256 11.4874C1.18437 11.1592 1 10.7141 1 10.25V2.75C1 1.784 1.784 1 2.75 1H8.25C8.44891 1 8.63968 1.07902 8.78033 1.21967C8.92098 1.36032 9 1.55109 9 1.75C9 1.94891 8.92098 2.13968 8.78033 2.28033C8.63968 2.42098 8.44891 2.5 8.25 2.5H2.75Z"/>
</svg>
