<svg width="16" height="16" viewBox="0 0 16 16" xmlns="http://www.w3.org/2000/svg">
  <path fill-rule="evenodd" clip-rule="evenodd" d="M13.25 2.5H2.75C2.61193 2.5 2.5 2.61193 2.5 2.75V13.25C2.5 13.3881 2.61193 13.5 2.75 13.5H13.25C13.3881 13.5 13.5 13.3881 13.5 13.25V2.75C13.5 2.61193 13.3881 2.5 13.25 2.5ZM2.75 1H13.25C14.2165 1 15 1.7835 15 2.75V13.25C15 14.2165 14.2165 15 13.25 15H2.75C1.7835 15 1 14.2165 1 13.25V2.75C1 1.7835 1.7835 1 2.75 1ZM9 8.75V10.9111C9 11.1317 9.26493 11.2442 9.42365 11.0909L12.4387 8.17984C12.5405 8.08155 12.5405 7.91843 12.4387 7.82014L9.42365 4.90903C9.26493 4.75579 9 4.86826 9 5.08888V7.25H4.25C3.83579 7.25 3.5 7.58579 3.5 8C3.5 8.41421 3.83579 8.75 4.25 8.75H9Z"/>
</svg>
