<svg width="16" height="16" viewBox="0 0 16 16" xmlns="http://www.w3.org/2000/svg">
  <path fill-rule="evenodd" clip-rule="evenodd" d="M7.5 9.18934L5.03033 6.71967C4.73744 6.42678 4.26256 6.42678 3.96967 6.71967C3.67678 7.01256 3.67678 7.48744 3.96967 7.78033L7.71967 11.5303C8.01256 11.8232 8.48744 11.8232 8.78033 11.5303L12.5303 7.78033C12.8232 7.48744 12.8232 7.01256 12.5303 6.71967C12.2374 6.42678 11.7626 6.42678 11.4697 6.71967L9 9.18934L9 1.75C9 1.33579 8.66421 1 8.25 1C7.83579 1 7.5 1.33579 7.5 1.75L7.5 9.18934ZM3.25 14.25C3.25 13.8358 3.58579 13.5 4 13.5L12.5 13.5C12.9142 13.5 13.25 13.8358 13.25 14.25C13.25 14.6642 12.9142 15 12.5 15L4 15C3.58579 15 3.25 14.6642 3.25 14.25Z"/>
</svg>
