<svg width="16" height="16" viewBox="0 0 16 16" xmlns="http://www.w3.org/2000/svg">
  <path fill-rule="evenodd" clip-rule="evenodd" d="M4.04 10.784C2.97 9.837 2.177 8.72 1.728 8c.449-.72 1.24-1.837 2.31-2.784C5.177 4.21 6.51 3.5 8 3.5c1.49 0 2.823.71 3.96 1.716 1.07.947 1.862 2.064 2.311 2.784-.449.72-1.24 1.837-2.31 2.784C10.823 11.79 9.49 12.5 8 12.5c-1.49 0-2.823-.71-3.96-1.716zM8 2C4.022 2 1.31 5.797.368 7.35a1.24 1.24 0 000 1.3C1.31 10.203 4.022 14 8 14c3.978 0 6.69-3.797 7.632-5.35a1.24 1.24 0 000-1.3C14.69 5.797 11.978 2 8 2zm0 8a2 2 0 100-4 2 2 0 000 4z"/>
</svg>
