<svg width="16" height="16" viewBox="0 0 16 16" xmlns="http://www.w3.org/2000/svg">
  <path fill-rule="evenodd" clip-rule="evenodd" d="M4.04 10.784C2.97 9.837 2.177 8.72 1.728 8C2.177 7.28 2.968 6.163 4.038 5.216C5.177 4.21 6.51 3.5 8 3.5C9.49 3.5 10.823 4.21 11.96 5.216C13.03 6.163 13.822 7.28 14.271 8C13.822 8.72 13.031 9.837 11.961 10.784C10.823 11.79 9.49 12.5 8 12.5C6.51 12.5 5.177 11.79 4.04 10.784ZM8 2C4.022 2 1.31 5.797 0.368 7.35C0.247686 7.54546 0.183983 7.77048 0.183983 8C0.183983 8.22952 0.247686 8.45454 0.368 8.65C1.31 10.203 4.022 14 8 14C11.978 14 14.69 10.203 15.632 8.65C15.7523 8.45454 15.816 8.22952 15.816 8C15.816 7.77048 15.7523 7.54546 15.632 7.35C14.69 5.797 11.978 2 8 2ZM8 10C8.53043 10 9.03914 9.78929 9.41421 9.41421C9.78929 9.03914 10 8.53043 10 8C10 7.46957 9.78929 6.96086 9.41421 6.58579C9.03914 6.21071 8.53043 6 8 6C7.46957 6 6.96086 6.21071 6.58579 6.58579C6.21071 6.96086 6 7.46957 6 8C6 8.53043 6.21071 9.03914 6.58579 9.41421C6.96086 9.78929 7.46957 10 8 10Z"/>
</svg>
