<svg width="16" height="16" viewBox="0 0 16 16" xmlns="http://www.w3.org/2000/svg">
  <path fill-rule="evenodd" clip-rule="evenodd" d="M2 1.75C2 0.783502 2.7835 0 3.75 0H9.33579C9.79992 0 10.245 0.184374 10.5732 0.512563L13.4874 3.42678C13.8156 3.75497 14 4.20008 14 4.66421V13.25C14 14.2165 13.2165 15 12.25 15H6.25C5.83579 15 5.5 14.6642 5.5 14.25C5.5 13.8358 5.83579 13.5 6.25 13.5H12.25C12.3881 13.5 12.5 13.3881 12.5 13.25V6H9.75C8.7835 6 8 5.2165 8 4.25V1.5H3.75C3.61193 1.5 3.5 1.61193 3.5 1.75V4.25C3.5 4.66421 3.16421 5 2.75 5C2.33579 5 2 4.66421 2 4.25V1.75ZM9.5 1.5615V4.25C9.5 4.38807 9.61193 4.5 9.75 4.5H12.4385C12.4348 4.49569 12.4308 4.4915 12.4268 4.48744L9.51256 1.57322C9.5085 1.56916 9.50431 1.56525 9.5 1.5615ZM1.5 11.9859C1.5 10.8772 2.40205 9.98022 3.51107 9.98636L4.00022 9.98907V11.9268C4.00022 12.145 4.26037 12.2585 4.42033 12.1099L7.30293 9.43323C7.40944 9.33432 7.40944 9.16574 7.30293 9.06683L4.42033 6.39016C4.26037 6.24162 4.00022 6.35507 4.00022 6.57336V8.48904L3.51937 8.48638C1.57897 8.47565 0 10.0452 0 11.9859V13.2501C0 13.6643 0.335786 14.0001 0.75 14.0001C1.16421 14.0001 1.5 13.6643 1.5 13.2501V11.9859Z"/>
</svg>
