<svg width="16" height="16" viewBox="0 0 16 16" xmlns="http://www.w3.org/2000/svg">
  <path fill-rule="evenodd" clip-rule="evenodd" d="M1.75 3C1.33579 3 1 3.33579 1 3.75C1 4.16421 1.33579 4.5 1.75 4.5H14.25C14.6642 4.5 15 4.16421 15 3.75C15 3.33579 14.6642 3 14.25 3H1.75ZM3 7.75C3 7.33579 3.33579 7 3.75 7H12.25C12.6642 7 13 7.33579 13 7.75C13 8.16421 12.6642 8.5 12.25 8.5H3.75C3.33579 8.5 3 8.16421 3 7.75ZM5 11.75C5 11.3358 5.33579 11 5.75 11H10.25C10.6642 11 11 11.3358 11 11.75C11 12.1642 10.6642 12.5 10.25 12.5H5.75C5.33579 12.5 5 12.1642 5 11.75Z"/>
</svg>
