<svg width="16" height="16" viewBox="0 0 16 16" xmlns="http://www.w3.org/2000/svg">
  <path fill-rule="evenodd" clip-rule="evenodd" d="M11.75 4.5L8.83064 4.5C8.94665 3.92727 9.18815 3.30342 9.55728 2.77115C10.0868 2.00752 10.8242 1.5 11.7778 1.5C12.4419 1.5 12.8556 1.73383 13.1079 2.00798C13.3751 2.29812 13.5 2.67575 13.5 3C13.5 3.45412 13.3313 3.81188 13.0572 4.06174C12.7786 4.31577 12.3431 4.5 11.75 4.5ZM14.5894 4.53289C14.8573 4.08458 15 3.56124 15 3C15 2.32425 14.7499 1.57688 14.2115 0.992018C13.6583 0.391166 12.8359 0 11.7778 0C10.2036 0 9.05204 0.867483 8.32467 1.91635C8.21227 2.07844 8.10868 2.24646 8.01392 2.41852C7.91915 2.24646 7.81557 2.07844 7.70316 1.91635C6.97579 0.867483 5.82426 0 4.25005 0C3.19197 0 2.3695 0.391166 1.81634 0.992018C1.2779 1.57688 1.02783 2.32425 1.02783 3C1.02783 3.55926 1.16952 4.0809 1.43563 4.52816C0.619161 4.67626 0 5.39082 0 6.25V7.75C0 8.4481 0.408763 9.05073 1 9.33159V14.25C1 15.2165 1.7835 16 2.75 16H13.25C14.2165 16 15 15.2165 15 14.25V9.33159C15.5912 9.05073 16 8.4481 16 7.75V6.25C16 5.39962 15.3935 4.69091 14.5894 4.53289ZM8.75 6H8.77783L11.75 6H14.25C14.3881 6 14.5 6.11193 14.5 6.25V7.75C14.5 7.88807 14.3881 8 14.25 8H8.75V6ZM7.25 6L4.27783 6H1.75C1.61193 6 1.5 6.11193 1.5 6.25V7.75C1.5 7.88807 1.61193 8 1.75 8H7.25V6ZM7.25 9.5H2.5V14.25C2.5 14.3881 2.61193 14.5 2.75 14.5H7.25V9.5ZM8.75 14.5H13.25C13.3881 14.5 13.5 14.3881 13.5 14.25V9.5H8.75V14.5ZM6.47056 2.77115C6.83968 3.30342 7.08118 3.92727 7.19719 4.5L4.27783 4.5C3.68472 4.5 3.24926 4.31577 2.9706 4.06174C2.69652 3.81188 2.52783 3.45412 2.52783 3C2.52783 2.67575 2.65277 2.29812 2.91988 2.00798C3.17227 1.73383 3.58591 1.5 4.25005 1.5C5.20363 1.5 5.94099 2.00752 6.47056 2.77115Z"/>
</svg>
