<svg width="16" height="16" viewBox="0 0 16 16" xmlns="http://www.w3.org/2000/svg">
  <path fill-rule="evenodd" clip-rule="evenodd" d="M4.25 4a.75.75 0 100-1.5.75.75 0 000 1.5zm2.25-.75A2.25 2.25 0 015 5.372v1.756c.235-.083.487-.128.75-.128h4.5a.75.75 0 00.75-.75v-.878a2.25 2.25 0 111.5 0v.878a2.25 2.25 0 01-2.25 2.25h-4.5a.75.75 0 00-.75.75v1.378a2.251 2.251 0 11-1.5 0V5.372a2.25 2.25 0 113-2.122zM4.25 13.5a.75.75 0 100-1.5.75.75 0 000 1.5zM12.5 3.25a.75.75 0 11-1.5 0 .75.75 0 011.5 0z"/>
</svg>
