<svg width="16" height="16" viewBox="0 0 16 16" xmlns="http://www.w3.org/2000/svg">
  <path fill-rule="evenodd" clip-rule="evenodd" d="M7.177 3.07299L9.573 0.676994C9.60796 0.64194 9.65255 0.618058 9.7011 0.608374C9.74966 0.598691 9.79999 0.603643 9.84573 0.622601C9.89147 0.64156 9.93054 0.673672 9.95801 0.714867C9.98547 0.756061 10.0001 0.804483 10 0.853994V2.49999H11C11.663 2.49999 12.2989 2.76339 12.7678 3.23223C13.2366 3.70107 13.5 4.33695 13.5 4.99999V10.628C14.0007 10.8049 14.4227 11.1532 14.6914 11.6112C14.9602 12.0692 15.0584 12.6075 14.9686 13.1308C14.8789 13.6542 14.6069 14.129 14.201 14.4713C13.795 14.8136 13.281 15.0014 12.75 15.0014C12.219 15.0014 11.705 14.8136 11.299 14.4713C10.893 14.129 10.6211 13.6542 10.5314 13.1308C10.4416 12.6075 10.5398 12.0692 10.8085 11.6112C11.0773 11.1532 11.4993 10.8049 12 10.628V4.99999C12 4.73478 11.8946 4.48042 11.7071 4.29289C11.5196 4.10535 11.2652 3.99999 11 3.99999H10V5.64599C10.0001 5.6955 9.98547 5.74393 9.95801 5.78512C9.93054 5.82631 9.89147 5.85843 9.84573 5.87739C9.79999 5.89634 9.74966 5.9013 9.7011 5.89161C9.65255 5.88193 9.60796 5.85805 9.573 5.82299L7.177 3.42699C7.15372 3.40377 7.13524 3.37618 7.12264 3.34581C7.11004 3.31544 7.10355 3.28288 7.10355 3.24999C7.10355 3.21711 7.11004 3.18455 7.12264 3.15418C7.13524 3.1238 7.15372 3.09622 7.177 3.07299ZM4 3.24999C4 3.44891 3.92098 3.63967 3.78033 3.78032C3.63968 3.92098 3.44891 3.99999 3.25 3.99999C3.05109 3.99999 2.86032 3.92098 2.71967 3.78032C2.57902 3.63967 2.5 3.44891 2.5 3.24999C2.5 3.05108 2.57902 2.86032 2.71967 2.71966C2.86032 2.57901 3.05109 2.49999 3.25 2.49999C3.44891 2.49999 3.63968 2.57901 3.78033 2.71966C3.92098 2.86032 4 3.05108 4 3.24999ZM4 5.37199C4.50041 5.19507 4.92216 4.84694 5.19072 4.38913C5.45928 3.93133 5.55735 3.39332 5.46759 2.87019C5.37784 2.34707 5.10604 1.87252 4.70024 1.53041C4.29444 1.18831 3.78076 1.00067 3.25 1.00067C2.71923 1.00067 2.20555 1.18831 1.79975 1.53041C1.39395 1.87252 1.12215 2.34707 1.0324 2.87019C0.942647 3.39332 1.04072 3.93133 1.30927 4.38913C1.57783 4.84694 1.99959 5.19507 2.5 5.37199V10.628C1.99931 10.8049 1.57729 11.1532 1.30855 11.6112C1.0398 12.0692 0.941628 12.6075 1.03139 13.1308C1.12114 13.6542 1.39305 14.129 1.79904 14.4713C2.20503 14.8136 2.71897 15.0014 3.25 15.0014C3.78103 15.0014 4.29496 14.8136 4.70095 14.4713C5.10695 14.129 5.37885 13.6542 5.46861 13.1308C5.55837 12.6075 5.4602 12.0692 5.19145 11.6112C4.9227 11.1532 4.50069 10.8049 4 10.628V5.37199ZM4 12.75C4 12.9489 3.92098 13.1397 3.78033 13.2803C3.63968 13.421 3.44891 13.5 3.25 13.5C3.05109 13.5 2.86032 13.421 2.71967 13.2803C2.57902 13.1397 2.5 12.9489 2.5 12.75C2.5 12.5511 2.57902 12.3603 2.71967 12.2197C2.86032 12.079 3.05109 12 3.25 12C3.44891 12 3.63968 12.079 3.78033 12.2197C3.92098 12.3603 4 12.5511 4 12.75ZM12.75 13.5C12.9489 13.5 13.1397 13.421 13.2803 13.2803C13.421 13.1397 13.5 12.9489 13.5 12.75C13.5 12.5511 13.421 12.3603 13.2803 12.2197C13.1397 12.079 12.9489 12 12.75 12C12.5511 12 12.3603 12.079 12.2197 12.2197C12.079 12.3603 12 12.5511 12 12.75C12 12.9489 12.079 13.1397 12.2197 13.2803C12.3603 13.421 12.5511 13.5 12.75 13.5Z"/>
</svg>
