<svg width="16" height="16" viewBox="0 0 16 16" xmlns="http://www.w3.org/2000/svg">
  <path fill-rule="evenodd" clip-rule="evenodd" d="M7.17674 3.07322L9.57318 0.676753C9.73068 0.51926 9.99996 0.630802 9.99996 0.853529V2.5H10.5C11.8807 2.5 13 3.61929 13 5V10.628C13.8739 10.9369 14.5 11.7703 14.5 12.75C14.5 13.9926 13.4926 15 12.25 15C11.0074 15 10 13.9926 10 12.75C10 11.7703 10.6261 10.9369 11.5 10.628V5C11.5 4.44772 11.0523 4 10.5 4H9.99996V5.64642C9.99996 5.86915 9.73068 5.98069 9.57319 5.8232L7.17674 3.42677C7.07911 3.32914 7.07911 3.17085 7.17674 3.07322ZM11.5 12.75C11.5 12.3358 11.8358 12 12.25 12C12.6642 12 13 12.3358 13 12.75C13 13.1642 12.6642 13.5 12.25 13.5C11.8358 13.5 11.5 13.1642 11.5 12.75Z"/>
  <path fill-rule="evenodd" clip-rule="evenodd" d="M1.5 3.25C1.5 2.00736 2.50736 1 3.75 1C4.99264 1 6 2.00736 6 3.25C6 4.22966 5.37389 5.06309 4.5 5.37197V10.628C5.37389 10.9369 6 11.7703 6 12.75C6 13.9926 4.99264 15 3.75 15C2.50736 15 1.5 13.9926 1.5 12.75C1.5 11.7703 2.12611 10.9369 3 10.628V5.37197C2.12611 5.06309 1.5 4.22966 1.5 3.25ZM3.75 2.5C3.33579 2.5 3 2.83579 3 3.25C3 3.66421 3.33579 4 3.75 4C4.16421 4 4.5 3.66421 4.5 3.25C4.5 2.83579 4.16421 2.5 3.75 2.5ZM3 12.75C3 12.3358 3.33579 12 3.75 12C4.16421 12 4.5 12.3358 4.5 12.75C4.5 13.1642 4.16421 13.5 3.75 13.5C3.33579 13.5 3 13.1642 3 12.75Z"/>
</svg>
