<svg width="16" height="16" viewBox="0 0 16 16" xmlns="http://www.w3.org/2000/svg">
  <path fill-rule="evenodd" clip-rule="evenodd" d="M4.25 3.99999C4.44891 3.99999 4.63968 3.92097 4.78033 3.78032C4.92098 3.63967 5 3.4489 5 3.24999C5 3.05108 4.92098 2.86031 4.78033 2.71966C4.63968 2.57901 4.44891 2.49999 4.25 2.49999C4.05109 2.49999 3.86032 2.57901 3.71967 2.71966C3.57902 2.86031 3.5 3.05108 3.5 3.24999C3.5 3.4489 3.57902 3.63967 3.71967 3.78032C3.86032 3.92097 4.05109 3.99999 4.25 3.99999ZM6.5 3.24999C6.50014 3.7154 6.35595 4.16939 6.08731 4.54943C5.81867 4.92947 5.43878 5.21686 5 5.37199V7.12799C5.235 7.04499 5.487 6.99999 5.75 6.99999H10.25C10.4489 6.99999 10.6397 6.92097 10.7803 6.78032C10.921 6.63967 11 6.4489 11 6.24999V5.37199C10.4996 5.19507 10.0778 4.84694 9.80927 4.38913C9.54072 3.93132 9.44265 3.39331 9.5324 2.87019C9.62215 2.34707 9.89395 1.87252 10.2998 1.53041C10.7056 1.18831 11.2192 1.00067 11.75 1.00067C12.2808 1.00067 12.7944 1.18831 13.2002 1.53041C13.606 1.87252 13.8778 2.34707 13.9676 2.87019C14.0573 3.39331 13.9593 3.93132 13.6907 4.38913C13.4222 4.84694 13.0004 5.19507 12.5 5.37199V6.24999C12.5 6.84673 12.2629 7.41903 11.841 7.84098C11.419 8.26294 10.8467 8.49999 10.25 8.49999H5.75C5.55109 8.49999 5.36032 8.57901 5.21967 8.71966C5.07902 8.86031 5 9.05108 5 9.24999V10.628C5.50069 10.8049 5.9227 11.1532 6.19145 11.6112C6.4602 12.0692 6.55837 12.6075 6.46861 13.1308C6.37885 13.6542 6.10695 14.129 5.70095 14.4713C5.29496 14.8136 4.78103 15.0014 4.25 15.0014C3.71897 15.0014 3.20503 14.8136 2.79904 14.4713C2.39305 14.129 2.12114 13.6542 2.03139 13.1308C1.94163 12.6075 2.0398 12.0692 2.30855 11.6112C2.57729 11.1532 2.99931 10.8049 3.5 10.628V5.37199C3.11112 5.2345 2.76752 4.99276 2.50674 4.67319C2.24597 4.35362 2.07805 3.96851 2.02136 3.55996C1.96466 3.1514 2.02136 2.73513 2.18525 2.35662C2.34915 1.97811 2.61394 1.65194 2.95068 1.41375C3.28743 1.17556 3.68316 1.03452 4.09465 1.00604C4.50613 0.977563 4.91753 1.06274 5.28387 1.25227C5.65022 1.4418 5.95742 1.72839 6.17189 2.08071C6.38637 2.43303 6.49987 2.83752 6.5 3.24999ZM4.25 13.5C4.44891 13.5 4.63968 13.421 4.78033 13.2803C4.92098 13.1397 5 12.9489 5 12.75C5 12.5511 4.92098 12.3603 4.78033 12.2197C4.63968 12.079 4.44891 12 4.25 12C4.05109 12 3.86032 12.079 3.71967 12.2197C3.57902 12.3603 3.5 12.5511 3.5 12.75C3.5 12.9489 3.57902 13.1397 3.71967 13.2803C3.86032 13.421 4.05109 13.5 4.25 13.5ZM12.5 3.24999C12.5 3.34848 12.4806 3.44601 12.4429 3.537C12.4052 3.628 12.35 3.71068 12.2803 3.78032C12.2107 3.84997 12.128 3.90521 12.037 3.9429C11.946 3.98059 11.8485 3.99999 11.75 3.99999C11.6515 3.99999 11.554 3.98059 11.463 3.9429C11.372 3.90521 11.2893 3.84997 11.2197 3.78032C11.15 3.71068 11.0948 3.628 11.0571 3.537C11.0194 3.44601 11 3.34848 11 3.24999C11 3.05108 11.079 2.86031 11.2197 2.71966C11.3603 2.57901 11.5511 2.49999 11.75 2.49999C11.9489 2.49999 12.1397 2.57901 12.2803 2.71966C12.421 2.86031 12.5 3.05108 12.5 3.24999Z"/>
</svg>
