<svg width="16" height="16" viewBox="0 0 16 16" xmlns="http://www.w3.org/2000/svg">
  <path fill-rule="evenodd" clip-rule="evenodd" d="M1 4.75C1 4.33579 1.33579 4 1.75 4H14.25C14.6642 4 15 4.33579 15 4.75C15 5.16421 14.6642 5.5 14.25 5.5H1.75C1.33579 5.5 1 5.16421 1 4.75ZM1 7.75C1 7.33579 1.33579 7 1.75 7H14.25C14.6642 7 15 7.33579 15 7.75C15 8.16421 14.6642 8.5 14.25 8.5H1.75C1.33579 8.5 1 8.16421 1 7.75ZM1 10.75C1 10.3358 1.33579 10 1.75 10H14.25C14.6642 10 15 10.3358 15 10.75C15 11.1642 14.6642 11.5 14.25 11.5H1.75C1.33579 11.5 1 11.1642 1 10.75Z"/>
</svg>
