<svg width="16" height="16" viewBox="0 0 16 16" xmlns="http://www.w3.org/2000/svg">
  <path fill-rule="evenodd" clip-rule="evenodd" d="M11.6036 3H15.75C15.8881 3 16 3.11193 16 3.25V7.39645C16 7.61917 15.7307 7.73071 15.5732 7.57322L14.0303 6.03033L9.03033 11.0303C8.73744 11.3232 8.26256 11.3232 7.96967 11.0303L5.5 8.56066L1.28033 12.7803C0.987437 13.0732 0.512563 13.0732 0.21967 12.7803C-0.0732233 12.4874 -0.0732233 12.0126 0.21967 11.7197L4.96967 6.96967C5.26256 6.67678 5.73744 6.67678 6.03033 6.96967L8.5 9.43934L12.9697 4.96967L11.4268 3.42678C11.2693 3.26928 11.3808 3 11.6036 3Z"/>
</svg>
