<svg width="16" height="16" viewBox="0 0 16 16" xmlns="http://www.w3.org/2000/svg">
  <path fill-rule="evenodd" clip-rule="evenodd" d="M7.75 1C8.16421 1 8.5 1.33579 8.5 1.75V14.25C8.5 14.6642 8.16421 15 7.75 15C7.33579 15 7 14.6642 7 14.25V1.75C7 1.33579 7.33579 1 7.75 1ZM12.75 4C13.1642 4 13.5 4.33579 13.5 4.75V14.25C13.5 14.6642 13.1642 15 12.75 15C12.3358 15 12 14.6642 12 14.25V4.75C12 4.33579 12.3358 4 12.75 4ZM2.75 7C3.16421 7 3.5 7.33579 3.5 7.75V14.25C3.5 14.6642 3.16421 15 2.75 15C2.33579 15 2 14.6642 2 14.25V7.75C2 7.33579 2.33579 7 2.75 7Z"/>
</svg>
