<svg width="16" height="16" viewBox="0 0 16 16" xmlns="http://www.w3.org/2000/svg">
  <path fill-rule="evenodd" clip-rule="evenodd" d="M3 1.75C3 0.783502 3.7835 0 4.75 0H11.25C12.2165 0 13 0.783502 13 1.75V2.56513C13 3.4983 12.6929 4.40553 12.126 5.1468L10.4615 7.32345C10.1734 7.70017 10.1896 8.22744 10.5002 8.58583L11.9617 10.2722C12.6314 11.0449 13 12.0331 13 13.0556V14.25C13 15.2165 12.2165 16 11.25 16H4.75C3.7835 16 3 15.2165 3 14.25V13.0556C3 12.0331 3.36865 11.0449 4.03832 10.2722L5.49981 8.58583C5.81041 8.22744 5.82656 7.70017 5.53848 7.32345L3.87398 5.1468C3.30713 4.40553 3 3.4983 3 2.56513V1.75ZM4.75 1.5C4.61193 1.5 4.5 1.61193 4.5 1.75V2.56513C4.5 3.16895 4.69873 3.75598 5.06552 4.23562L6.73002 6.41227C7.45023 7.35409 7.40985 8.67226 6.63334 9.56823L5.17185 11.2546C4.73854 11.7545 4.5 12.394 4.5 13.0556V14.25C4.5 14.3881 4.61193 14.5 4.75 14.5H11.25C11.3881 14.5 11.5 14.3881 11.5 14.25V13.0556C11.5 12.394 11.2615 11.7545 10.8281 11.2546L9.36666 9.56822C8.59015 8.67226 8.54977 7.35409 9.26998 6.41227L10.9345 4.23562C11.3013 3.75598 11.5 3.16895 11.5 2.56513V1.75C11.5 1.61193 11.3881 1.5 11.25 1.5H4.75Z"/>
</svg>
