<svg width="16" height="16" viewBox="0 0 16 16" xmlns="http://www.w3.org/2000/svg">
  <path fill-rule="evenodd" clip-rule="evenodd" d="M2.803 1.967C2.94838 1.67642 3.17178 1.43206 3.44818 1.26127C3.72459 1.09048 4.04309 1.00001 4.368 1H11.632C11.9569 1.00001 12.2754 1.09048 12.5518 1.26127C12.8282 1.43206 13.0516 1.67642 13.197 1.967L15.921 7.415C15.9729 7.51903 16 7.63372 16 7.75V13.25C16 13.7141 15.8156 14.1592 15.4874 14.4874C15.1592 14.8156 14.7141 15 14.25 15H1.75C1.28587 15 0.840752 14.8156 0.512563 14.4874C0.184374 14.1592 0 13.7141 0 13.25L0 7.75C0.000318297 7.63364 0.0277071 7.51895 0.08 7.415L2.803 1.967ZM4.368 2.5C4.32153 2.49991 4.27595 2.51277 4.23638 2.53715C4.19681 2.56153 4.16482 2.59645 4.144 2.638L1.964 7H4.75C4.86643 7 4.98127 7.02711 5.08541 7.07918C5.18955 7.13125 5.28014 7.20685 5.35 7.3L6.625 9H9.375L10.65 7.3C10.7199 7.20685 10.8104 7.13125 10.9146 7.07918C11.0187 7.02711 11.1336 7 11.25 7H14.037L11.856 2.638C11.8352 2.59645 11.8032 2.56153 11.7636 2.53715C11.7241 2.51277 11.6785 2.49991 11.632 2.5H4.368ZM14.5 8.5H11.625L10.35 10.2C10.2801 10.2931 10.1896 10.3687 10.0854 10.4208C9.98127 10.4729 9.86643 10.5 9.75 10.5H6.25C6.13357 10.5 6.01873 10.4729 5.91459 10.4208C5.81045 10.3687 5.71986 10.2931 5.65 10.2L4.375 8.5H1.5V13.25C1.5 13.388 1.612 13.5 1.75 13.5H14.25C14.3163 13.5 14.3799 13.4737 14.4268 13.4268C14.4737 13.3799 14.5 13.3163 14.5 13.25V8.5Z"/>
</svg>
