<svg width="16" height="16" viewBox="0 0 16 16" xmlns="http://www.w3.org/2000/svg">
  <path fill-rule="evenodd" clip-rule="evenodd" d="M2.803 1.967A1.75 1.75 0 014.368 1h7.264a1.75 1.75 0 011.565.967l2.724 5.448A.75.75 0 0116 7.75v5.5A1.75 1.75 0 0114.25 15H1.75A1.75 1.75 0 010 13.25v-5.5a.75.75 0 01.08-.335l2.723-5.448zm1.565.533a.25.25 0 00-.224.138L1.964 7H4.75a.75.75 0 01.6.3L6.625 9h2.75l1.275-1.7a.75.75 0 01.6-.3h2.787l-2.181-4.362a.25.25 0 00-.224-.138H4.368zm10.132 6h-2.875l-1.275 1.7a.75.75 0 01-.6.3h-3.5a.75.75 0 01-.6-.3L4.375 8.5H1.5v4.75c0 .138.112.25.25.25h12.5a.25.25 0 00.25-.25V8.5z"/>
</svg>
