<svg width="16" height="16" viewBox="0 0 16 16" xmlns="http://www.w3.org/2000/svg">
  <path fill-rule="evenodd" clip-rule="evenodd" d="M1.5 8C1.5 4.41015 4.41015 1.5 8 1.5C11.5899 1.5 14.5 4.41015 14.5 8C14.5 8.11179 14.4972 8.22285 14.4916 8.33312C14.4708 8.74681 14.7892 9.09907 15.2029 9.11992C15.6166 9.14076 15.9689 8.8223 15.9897 8.40861C15.9966 8.2732 16 8.13697 16 8C16 3.58172 12.4183 0 8 0C3.58172 0 0 3.58172 0 8C0 12.4183 3.58172 16 8 16C8.13697 16 8.2732 15.9966 8.40861 15.9897C8.8223 15.9689 9.14076 15.6166 9.11992 15.2029C9.09907 14.7892 8.74681 14.4708 8.33312 14.4916C8.22285 14.4972 8.11179 14.5 8 14.5C4.41015 14.5 1.5 11.5899 1.5 8ZM8 12C8.55229 12 9 11.5523 9 11C9 10.4477 8.55229 10 8 10C7.44772 10 7 10.4477 7 11C7 11.5523 7.44772 12 8 12ZM8 4C8.41421 4 8.75 4.33579 8.75 4.75V8.25C8.75 8.66421 8.41421 9 8 9C7.58579 9 7.25 8.66421 7.25 8.25V4.75C7.25 4.33579 7.58579 4 8 4ZM14 11.25C14 10.8358 13.6642 10.5 13.25 10.5C12.8358 10.5 12.5 10.8358 12.5 11.25V12.5H11.25C10.8358 12.5 10.5 12.8358 10.5 13.25C10.5 13.6642 10.8358 14 11.25 14H12.5V15.25C12.5 15.6642 12.8358 16 13.25 16C13.6642 16 14 15.6642 14 15.25V14H15.25C15.6642 14 16 13.6642 16 13.25C16 12.8358 15.6642 12.5 15.25 12.5H14V11.25Z"/>
</svg>
