<svg width="16" height="16" viewBox="0 0 16 16" xmlns="http://www.w3.org/2000/svg">
  <path fill-rule="evenodd" clip-rule="evenodd" d="M2.50666 1.75819C2.4968 0.785915 3.28339 0 4.25 0H4.75C5.7165 0 6.5 0.783502 6.5 1.75V3C6.5 3.82843 7.17157 4.5 8 4.5C8.82843 4.5 9.5 3.82843 9.5 3V1.75C9.5 0.783502 10.2835 0 11.25 0H11.75C12.7166 0 13.5032 0.785915 13.4933 1.75819C13.4699 4.06613 13.472 5.39319 14.653 7.03694C14.865 7.33197 15 7.69832 15 8.09311V14.25C15 15.2165 14.2165 16 13.25 16H2.75C1.7835 16 1 15.2165 1 14.25V8.09311C1 7.69832 1.13504 7.33197 1.34702 7.03694C2.52803 5.39319 2.53007 4.06613 2.50666 1.75819ZM4.25 1.5C4.11204 1.5 4.00524 1.61074 4.00659 1.74298C4.00679 1.76273 4.00699 1.78244 4.00719 1.80212C4.03029 4.06903 4.04842 5.84781 2.56519 7.91218C2.51766 7.97833 2.5 8.04314 2.5 8.09311V14.25C2.5 14.3881 2.61193 14.5 2.75 14.5H13.25C13.3881 14.5 13.5 14.3881 13.5 14.25V8.09311C13.5 8.04314 13.4823 7.97833 13.4348 7.91218C11.9516 5.84781 11.9697 4.06903 11.9928 1.80212L11.9934 1.74298C11.9948 1.61074 11.888 1.5 11.75 1.5H11.25C11.1119 1.5 11 1.61193 11 1.75V3C11 4.65685 9.65685 6 8 6C6.34315 6 5 4.65685 5 3V1.75C5 1.61193 4.88807 1.5 4.75 1.5H4.25Z"/>
  <path fill-rule="evenodd" clip-rule="evenodd" d="M4.75 8C4.33579 8 4 8.33579 4 8.75V12.25C4 12.6642 4.33579 13 4.75 13H7.25C7.66421 13 8 12.6642 8 12.25V8.75C8 8.33579 7.66421 8 7.25 8H4.75ZM5.5 11.5V9.5H6.5V11.5H5.5ZM9 8.75C9 8.33579 9.33579 8 9.75 8H10.75C11.1642 8 11.5 8.33579 11.5 8.75V11.5H11.75C12.1642 11.5 12.5 11.8358 12.5 12.25C12.5 12.6642 12.1642 13 11.75 13H10.75H9.75C9.33579 13 9 12.6642 9 12.25C9 11.8358 9.33579 11.5 9.75 11.5H10V9.5H9.75C9.33579 9.5 9 9.16421 9 8.75Z"/>
</svg>
