<svg width="16" height="16" viewBox="0 0 16 16" xmlns="http://www.w3.org/2000/svg">
  <path fill-rule="evenodd" clip-rule="evenodd" d="M10.5 0C7.46243 0 5 2.46243 5 5.5C5 6.22208 5.13951 6.91293 5.39337 7.54603L0.669772 12.2697C-0.175421 13.1149 -0.175403 14.4852 0.66981 15.3304C1.515 16.1755 2.88528 16.1755 3.73046 15.3304L4.00014 15.0607L4.26267 15.3232C4.94608 16.0066 6.05412 16.0066 6.73754 15.3232L7.82332 14.2374C8.50674 13.554 8.50674 12.446 7.82332 11.7626L7.56081 11.5L8.45417 10.6067C9.08721 10.8605 9.77799 11 10.5 11C13.5376 11 16 8.53757 16 5.5C16 2.46243 13.5376 0 10.5 0ZM6.5 5.5C6.5 3.29086 8.29086 1.5 10.5 1.5C12.7091 1.5 14.5 3.29086 14.5 5.5C14.5 7.70914 12.7091 9.5 10.5 9.5C9.82777 9.5 9.19634 9.33478 8.64196 9.04336C8.35123 8.89054 7.9949 8.94465 7.76266 9.17689L5.96982 10.9697C5.82917 11.1104 5.75015 11.3011 5.75015 11.5C5.75015 11.699 5.82917 11.8897 5.96982 12.0304L6.76266 12.8232C6.86029 12.9209 6.86029 13.0791 6.76266 13.1768L5.67688 14.2626C5.57925 14.3602 5.42096 14.3602 5.32333 14.2626L4.53047 13.4697C4.23758 13.1768 3.76271 13.1768 3.46981 13.4697L2.6698 14.2697C2.41041 14.5291 1.98985 14.5291 1.73045 14.2697C1.47104 14.0103 1.47103 13.5897 1.73043 13.3303L3.94465 11.1161L6.8232 8.23752C7.05545 8.00527 7.10956 7.64892 6.95672 7.3582C6.66525 6.80377 6.5 6.17229 6.5 5.5ZM11 6C11.5523 6 12 5.55228 12 5C12 4.44772 11.5523 4 11 4C10.4477 4 10 4.44772 10 5C10 5.55228 10.4477 6 11 6Z"/>
</svg>
