<svg width="16" height="16" viewBox="0 0 16 16" xmlns="http://www.w3.org/2000/svg">
  <path fill-rule="evenodd" clip-rule="evenodd" d="M14.39 3.5H1.61L8 7.608L14.39 3.5ZM1.5 5.213V12.5H14.5V5.213L8.406 9.131C8.28493 9.20895 8.14399 9.25039 8 9.25039C7.85601 9.25039 7.71507 9.20895 7.594 9.131L1.5 5.213ZM0 3.5C0 3.10218 0.158035 2.72064 0.43934 2.43934C0.720644 2.15804 1.10218 2 1.5 2H14.5C14.8978 2 15.2794 2.15804 15.5607 2.43934C15.842 2.72064 16 3.10218 16 3.5V12.5C16 12.8978 15.842 13.2794 15.5607 13.5607C15.2794 13.842 14.8978 14 14.5 14H1.5C1.10218 14 0.720644 13.842 0.43934 13.5607C0.158035 13.2794 0 12.8978 0 12.5L0 3.5Z"/>
</svg>
