<svg width="16" height="16" viewBox="0 0 16 16" xmlns="http://www.w3.org/2000/svg">
  <path fill-rule="evenodd" clip-rule="evenodd" d="M7.75 0C7.94891 0 8.13968 0.0790176 8.28033 0.21967C8.42098 0.360322 8.5 0.551088 8.5 0.75V3H12.206C12.542 3 12.87 3.096 13.153 3.278L15.097 4.528C15.3435 4.68647 15.5462 4.90428 15.6866 5.16147C15.827 5.41866 15.9006 5.70698 15.9006 6C15.9006 6.29302 15.827 6.58134 15.6866 6.83853C15.5462 7.09572 15.3435 7.31353 15.097 7.472L13.153 8.722C12.8705 8.90361 12.5418 9.00011 12.206 9H2.75C2.28587 9 1.84075 8.81563 1.51256 8.48744C1.18437 8.15925 1 7.71413 1 7.25V4.75C1 3.784 1.784 3 2.75 3H7V0.75C7 0.551088 7.07902 0.360322 7.21967 0.21967C7.36032 0.0790176 7.55109 0 7.75 0V0ZM8.5 10.75C8.5 10.5511 8.42098 10.3603 8.28033 10.2197C8.13968 10.079 7.94891 10 7.75 10C7.55109 10 7.36032 10.079 7.21967 10.2197C7.07902 10.3603 7 10.5511 7 10.75V15.25C7 15.4489 7.07902 15.6397 7.21967 15.7803C7.36032 15.921 7.55109 16 7.75 16C7.94891 16 8.13968 15.921 8.28033 15.7803C8.42098 15.6397 8.5 15.4489 8.5 15.25V10.75Z"/>
</svg>
