<svg width="16" height="16" viewBox="0 0 16 16" xmlns="http://www.w3.org/2000/svg">
  <path fill-rule="evenodd" clip-rule="evenodd" d="M8.30679 1.06562C8.11162 0.978127 7.88838 0.978127 7.69321 1.06562L0.443208 4.31562C0.173541 4.4365 0 4.70448 0 5C0 5.29552 0.173541 5.5635 0.443208 5.68438L2.5 6.60639V8.94165C2.20396 9.04698 1.92524 9.2172 1.68843 9.45401C1.25027 9.89215 1 10.5128 1 11.2499V14.2499C1 14.6641 1.33577 14.9999 1.74997 14.9999L4.74997 15C4.94889 15.0001 5.13966 14.921 5.28032 14.7804C5.42098 14.6397 5.5 14.449 5.5 14.25V11.25C5.5 10.5128 5.24974 9.89223 4.81159 9.45407C4.57477 9.21725 4.29604 9.04701 4 8.94167V7.27881L7.69321 8.93438C7.88838 9.02187 8.11162 9.02187 8.30679 8.93438L11.5 7.50294V9.96596C11.3954 10.0648 11.2246 10.2043 10.9717 10.3488C10.4372 10.6542 9.50459 11 8 11C7.91926 11 7.84283 10.999 7.76996 10.9971C7.35589 10.986 7.01129 11.3128 7.00027 11.7268C6.98925 12.1409 7.31598 12.4855 7.73005 12.4965C7.81704 12.4988 7.9068 12.5 8 12.5C9.74542 12.5 10.9378 12.0958 11.7159 11.6512C12.1024 11.4303 12.3792 11.2037 12.566 11.0219C12.6592 10.9312 12.7298 10.8519 12.7802 10.7905C12.8055 10.7598 12.8257 10.7335 12.8412 10.7125C12.8489 10.702 12.8555 10.6928 12.861 10.6851L12.8683 10.6745L12.8714 10.67L12.8728 10.6679L12.8734 10.667C12.8737 10.6665 12.874 10.666 12.25 10.25L12.874 10.666C12.9562 10.5428 13 10.3979 13 10.2499V6.83053L15.5568 5.68438C15.8265 5.5635 16 5.29552 16 5C16 4.70448 15.8265 4.4365 15.5568 4.31562L8.30679 1.06562ZM8 7.42809L2.58349 5L8 2.57191L13.4165 5L8 7.42809ZM2.5 11.2499C2.5 10.8621 2.62473 10.639 2.74907 10.5147C2.88047 10.3833 3.06051 10.3125 3.24999 10.3125C3.43947 10.3125 3.61951 10.3833 3.75091 10.5147C3.87526 10.6391 4 10.8622 4 11.25V13.5L2.5 13.5V11.2499Z"/>
</svg>
