<svg width="16" height="16" viewBox="0 0 16 16" xmlns="http://www.w3.org/2000/svg">
  <path fill-rule="evenodd" clip-rule="evenodd" d="M16 3.75C16 3.33579 15.6642 3 15.25 3C14.8358 3 14.5 3.33579 14.5 3.75V7C14.5 7.13807 14.3881 7.25 14.25 7.25H12.75C12.3358 7.25 12 7.58579 12 8C12 8.41421 12.3358 8.75 12.75 8.75H14.25C15.2165 8.75 16 7.9665 16 7V3.75ZM7.36664 4.32309C7.13087 3.98253 6.66366 3.89758 6.32309 4.13336C5.98253 4.36913 5.89758 4.83634 6.13336 5.17691L8.0878 8L6.13336 10.8231C5.89758 11.1637 5.98253 11.6309 6.32309 11.8666C6.66366 12.1024 7.13087 12.0175 7.36664 11.6769L9 9.31762L10.6334 11.6769C10.8691 12.0175 11.3363 12.1024 11.6769 11.8666C12.0175 11.6309 12.1024 11.1637 11.8666 10.8231L9.9122 8L11.8666 5.17691C12.1024 4.83634 12.0175 4.36913 11.6769 4.13336C11.3363 3.89758 10.8691 3.98253 10.6334 4.32309L9 6.68238L7.36664 4.32309ZM2.44541 8.75L3.80496 10.2455C4.08359 10.552 4.061 11.0263 3.7545 11.305C3.44801 11.5836 2.97368 11.561 2.69504 11.2545L0.195045 8.50451C-0.065015 8.21844 -0.065015 7.78157 0.195045 7.4955L2.69504 4.7455C2.97368 4.43901 3.44801 4.41642 3.7545 4.69505C4.061 4.97368 4.08359 5.44802 3.80496 5.75451L2.44542 7.25H5.25C5.66421 7.25 6 7.58579 6 8C6 8.41421 5.66421 8.75 5.25 8.75H2.44541Z"/>
</svg>
