<svg width="16" height="16" viewBox="0 0 16 16" xmlns="http://www.w3.org/2000/svg">
  <path fill-rule="evenodd" clip-rule="evenodd" d="M2.75 13.5C2.61193 13.5 2.5 13.3881 2.5 13.25V2.75C2.5 2.61193 2.61193 2.5 2.75 2.5H13.25C13.3881 2.5 13.5 2.61193 13.5 2.75V9H10.75C9.7835 9 9 9.7835 9 10.75V13.5H2.75ZM10.5 13.4385V10.75C10.5 10.6119 10.6119 10.5 10.75 10.5H13.4385C13.4348 10.5043 13.4308 10.5085 13.4268 10.5126L10.5126 13.4268C10.5085 13.4308 10.5043 13.4348 10.5 13.4385ZM1 13.25C1 14.2165 1.7835 15 2.75 15H10.3358C10.7999 15 11.245 14.8156 11.5732 14.4874L14.4874 11.5732C14.8156 11.245 15 10.7999 15 10.3358V2.75C15 1.7835 14.2165 1 13.25 1H2.75C1.7835 1 1 1.7835 1 2.75V13.25Z"/>
</svg>
