<svg width="16" height="16" viewBox="0 0 16 16" xmlns="http://www.w3.org/2000/svg">
  <path fill-rule="evenodd" clip-rule="evenodd" d="M2.75 13.5C2.61193 13.5 2.5 13.3881 2.5 13.25V2.75C2.5 2.61193 2.61193 2.5 2.75 2.5H13.25C13.3881 2.5 13.5 2.61193 13.5 2.75V9H10.75C9.7835 9 9 9.7835 9 10.75V13.5H2.75ZM10.5 12.9393V10.75C10.5 10.6119 10.6119 10.5 10.75 10.5H12.9393L10.5 12.9393ZM1 13.25C1 14.2165 1.7835 15 2.75 15H9.83579C10.2999 15 10.745 14.8156 11.0732 14.4874L14.4874 11.0732C14.8156 10.745 15 10.2999 15 9.83579V2.75C15 1.7835 14.2165 1 13.25 1H2.75C1.7835 1 1 1.7835 1 2.75V13.25Z"/>
</svg>
