<svg width="16" height="16" viewBox="0 0 16 16" xmlns="http://www.w3.org/2000/svg">
  <path fill-rule="evenodd" clip-rule="evenodd" d="M6.15515 0.389241C6.6966 0.0766332 7.3637 0.0766334 7.90515 0.389241L13.1838 3.43689C13.7253 3.7495 14.0588 4.32722 14.0588 4.95244V6.75012C14.0588 7.16434 13.723 7.50012 13.3088 7.50012C12.8946 7.50012 12.5588 7.16434 12.5588 6.75012V5.6709L7.87415 8.36268C7.83344 8.38607 7.79202 8.4077 7.75 8.42756V15.0949C7.75 15.2978 7.66785 15.4919 7.52228 15.6332C7.37672 15.7744 7.18015 15.8507 6.97742 15.8446C6.69307 15.836 6.41007 15.7581 6.15515 15.6109L0.876465 12.5633C0.335012 12.2507 0.00146484 11.6729 0.00146484 11.0477V4.95244C0.00146484 4.32722 0.335013 3.7495 0.876465 3.43689L6.15515 0.389241ZM6.25 8.42539C6.20738 8.40509 6.16539 8.38297 6.12413 8.35904L1.50146 5.67726V11.0477C1.50146 11.1371 1.54912 11.2196 1.62646 11.2642L6.25 13.9336V8.42539ZM2.24875 4.37665L6.87684 7.06157C6.9541 7.10639 7.0494 7.10659 7.12684 7.06209L11.806 4.37347L7.15515 1.68828C7.0778 1.64362 6.9825 1.64362 6.90515 1.68828L2.24875 4.37665ZM13.2803 9.21979C13.5732 9.51268 13.5732 9.98756 13.2803 10.2805L11.8107 11.7501H15.25C15.6642 11.7501 16 12.0859 16 12.5001C16 12.9144 15.6642 13.2501 15.25 13.2501H11.8107L13.2803 14.7198C13.5732 15.0127 13.5732 15.4876 13.2803 15.7805C12.9874 16.0734 12.5126 16.0734 12.2197 15.7805L9.46967 13.0305C9.17678 12.7376 9.17678 12.2627 9.46967 11.9698L12.2197 9.21979C12.5126 8.9269 12.9874 8.9269 13.2803 9.21979Z"/>
</svg>
