<svg width="16" height="16" viewBox="0 0 16 16" xmlns="http://www.w3.org/2000/svg">
  <path fill-rule="evenodd" clip-rule="evenodd" d="M10.763 1.677a1.75 1.75 0 012.475 0l1.085 1.086a1.75 1.75 0 010 2.474l-8.36 8.36c-.21.21-.47.364-.756.445l-3.25.93a.75.75 0 01-.928-.928l.929-3.25a1.75 1.75 0 01.445-.758l8.36-8.36zm1.414 1.06a.25.25 0 00-.354 0L10.561 4 12 5.44l1.263-1.263a.25.25 0 000-.354l-1.086-1.086zM10.939 6.5L9.5 5.06l-6.036 6.037a.25.25 0 00-.064.108l-.558 1.953 1.953-.558a.25.25 0 00.108-.064L10.939 6.5z"/>
</svg>
