<svg width="16" height="16" viewBox="0 0 16 16" xmlns="http://www.w3.org/2000/svg">
  <path fill-rule="evenodd" clip-rule="evenodd" d="M10.94 1.5C11.2212 1.2191 11.6025 1.06132 12 1.06132C12.3975 1.06132 12.7787 1.2191 13.06 1.5L14.5 2.94C14.7809 3.22125 14.9387 3.6025 14.9387 4C14.9387 4.3975 14.7809 4.77875 14.5 5.06L5.78 13.78C5.68997 13.8701 5.57847 13.9359 5.456 13.971L1.956 14.971C1.82742 15.0077 1.69138 15.0093 1.56195 14.9758C1.43253 14.9422 1.31443 14.8747 1.21988 14.7801C1.12534 14.6856 1.05779 14.5675 1.02423 14.438C0.990664 14.3086 0.992311 14.1726 1.029 14.044L2.029 10.544C2.06382 10.4216 2.12921 10.3101 2.219 10.22L10.939 1.5H10.94ZM10.56 4L12 5.44L13.44 4L12 2.56L10.56 4ZM10.94 6.5L9.5 5.06L3.418 11.143L2.842 13.158L4.857 12.582L10.94 6.5Z"/>
</svg>
