<svg width="16" height="16" viewBox="0 0 16 16" xmlns="http://www.w3.org/2000/svg">
  <path fill-rule="evenodd" clip-rule="evenodd" d="M4.03022 7.57998C2.58167 7.9075 1.5 9.20243 1.5 10.75V14.25C1.5 14.6642 1.16421 15 0.75 15C0.335786 15 0 14.6642 0 14.25V10.75C0 8.35326 1.77511 6.37111 4.08234 6.04655C4.53381 3.46344 6.78761 1.5 9.5 1.5H10.75C11.7165 1.5 12.5 2.2835 12.5 3.25V3.5H15.25C15.6642 3.5 16 3.83579 16 4.25C16 4.66421 15.6642 5 15.25 5H12.5V9H15.25C15.6642 9 16 9.33579 16 9.75C16 10.1642 15.6642 10.5 15.25 10.5H12.5V10.75C12.5 11.7165 11.7165 12.5 10.75 12.5H9.5C6.65832 12.5 4.31999 10.3449 4.03022 7.57998ZM5.5 7C5.5 4.79086 7.29086 3 9.5 3H10.75C10.8881 3 11 3.11193 11 3.25V10.75C11 10.8881 10.8881 11 10.75 11H9.5C7.29086 11 5.5 9.20914 5.5 7Z"/>
</svg>
