<svg width="16" height="16" viewBox="0 0 16 16" xmlns="http://www.w3.org/2000/svg">
  <path fill-rule="evenodd" clip-rule="evenodd" d="M6.854 2.896L9.146.604A.5.5 0 0110 .957V2.5h1A2.5 2.5 0 0113.5 5v5.628a2.251 2.251 0 11-1.5 0V5a1 1 0 00-1-1h-1v1.543a.5.5 0 01-.854.353L6.854 3.604a.5.5 0 010-.708zM4 3.25a.75.75 0 11-1.5 0 .75.75 0 011.5 0zm0 2.122a2.25 2.25 0 10-1.5 0v5.256a2.251 2.251 0 101.5 0V5.372zm0 7.378a.75.75 0 11-1.5 0 .75.75 0 011.5 0zm8.75.75a.75.75 0 100-1.5.75.75 0 000 1.5z"/>
</svg>
