<svg width="16" height="16" viewBox="0 0 16 16" xmlns="http://www.w3.org/2000/svg">
  <path fill-rule="evenodd" clip-rule="evenodd" d="M5.35607 3.49231C5.76612 3.43374 6.05104 3.05384 5.99247 2.64379C5.93389 2.23374 5.55399 1.94881 5.14394 2.00739C2.95665 2.31986 1 4.44945 1 7.74985V7.74988V10.4999V11.2499C1 12.2164 1.7835 12.9999 2.75 12.9999H5.25C6.21649 12.9999 7 12.2164 7 11.2499V8.74988C7 7.78338 6.21649 6.99988 5.25 6.99988H2.54215C2.79798 4.79491 4.171 3.66161 5.35607 3.49231ZM2.5 8.49988V10.4999V11.2499C2.5 11.3879 2.61193 11.4999 2.75 11.4999H5.25C5.38807 11.4999 5.5 11.3879 5.5 11.2499V8.74988C5.5 8.61181 5.38807 8.49988 5.25 8.49988H2.5ZM13.9925 2.64379C14.051 3.05384 13.7661 3.43374 13.3561 3.49231C12.171 3.66161 10.798 4.79491 10.5422 6.99988H13.25C14.2165 6.99988 15 7.78338 15 8.74988V11.2499C15 12.2164 14.2165 12.9999 13.25 12.9999H10.75C9.7835 12.9999 9 12.2164 9 11.2499V10.4999V7.74988V7.74985C9 4.44945 10.9567 2.31986 13.1439 2.00739C13.554 1.94881 13.9339 2.23374 13.9925 2.64379ZM10.5 8.49988V10.4999V11.2499C10.5 11.3879 10.6119 11.4999 10.75 11.4999H13.25C13.3881 11.4999 13.5 11.3879 13.5 11.2499V8.74988C13.5 8.61181 13.3881 8.49988 13.25 8.49988H10.5Z"/>
</svg>
