<svg width="16" height="16" viewBox="0 0 16 16" xmlns="http://www.w3.org/2000/svg">
  <path fill-rule="evenodd" clip-rule="evenodd" d="M6.25 1.5C6.66421 1.5 7 1.16421 7 0.75C7 0.335786 6.66421 0 6.25 0H4.5C3.11929 0 2 1.11929 2 2.5V11.5C2 12.1994 2.28817 12.8328 2.75033 13.2857C3.04618 13.5756 3.52103 13.5708 3.81094 13.2749C4.10084 12.9791 4.09603 12.5042 3.80018 12.2143C3.61407 12.0319 3.5 11.78 3.5 11.5C3.5 10.9477 3.94772 10.5 4.5 10.5H12.5V12.5H10.75C10.3358 12.5 10 12.8358 10 13.25C10 13.6642 10.3358 14 10.75 14H13.25C13.6642 14 14 13.6642 14 13.25V8.75C14 8.33579 13.6642 8 13.25 8C12.8358 8 12.5 8.33579 12.5 8.75V9H4.5C4.14445 9 3.80623 9.07422 3.5 9.20802V2.5C3.5 1.94772 3.94772 1.5 4.5 1.5H6.25ZM5 12.25V15.5C5 15.706 5.23519 15.8236 5.4 15.7L6.85 14.6125C6.93889 14.5458 7.06111 14.5458 7.15 14.6125L8.6 15.7C8.76481 15.8236 9 15.706 9 15.5V12.25C9 12.1119 8.88807 12 8.75 12H5.25C5.11193 12 5 12.1119 5 12.25ZM8.73702 1.35124C8.7944 1.27757 8.89009 1.24655 8.98108 1.26753L9.88372 1.47569C9.95569 1.49229 10.0309 1.47561 10.0919 1.43396C10.1944 1.36394 10.3025 1.30136 10.4152 1.24698C10.4816 1.21493 10.5336 1.15818 10.5552 1.08764L10.8262 0.202037C10.8535 0.112598 10.9284 0.0451671 11.0211 0.0324881C11.1777 0.011067 11.3375 0 11.5 0C11.6624 0 11.8223 0.011068 11.9789 0.032491C12.0715 0.0451706 12.1465 0.112601 12.1738 0.20204L12.4448 1.08765C12.4664 1.15819 12.5184 1.21494 12.5848 1.24699C12.6975 1.30137 12.8055 1.36395 12.9081 1.43396C12.9691 1.47561 13.0443 1.49229 13.1162 1.47569L14.0189 1.26754C14.1099 1.24656 14.2056 1.27758 14.2629 1.35125C14.4587 1.6026 14.6209 1.88136 14.7429 2.1808C14.7781 2.26734 14.7571 2.36581 14.6934 2.43416L14.0611 3.11256C14.0109 3.16646 13.9877 3.23973 13.9931 3.31322C13.9977 3.37488 14 3.43717 14 3.5C14 3.56283 13.9977 3.62511 13.9931 3.68678C13.9877 3.76027 14.0109 3.83354 14.0611 3.88744L14.6934 4.56584C14.7571 4.63419 14.7781 4.73266 14.7429 4.8192C14.6209 5.11864 14.4587 5.3974 14.2629 5.64875C14.2056 5.72242 14.1099 5.75344 14.0189 5.73246L13.1162 5.52431C13.0443 5.50771 12.9691 5.52439 12.9081 5.56604C12.8055 5.63605 12.6975 5.69863 12.5848 5.75301C12.5184 5.78506 12.4664 5.84181 12.4448 5.91235L12.1738 6.79796C12.1465 6.8874 12.0715 6.95483 11.9789 6.96751C11.8223 6.98893 11.6624 7 11.5 7C11.3375 7 11.1777 6.98893 11.0211 6.96751C10.9284 6.95483 10.8535 6.8874 10.8262 6.79796L10.5552 5.91236C10.5336 5.84182 10.4816 5.78507 10.4152 5.75302C10.3025 5.69864 10.1944 5.63606 10.0919 5.56604C10.0309 5.52439 9.95569 5.50771 9.88372 5.52431L8.98108 5.73247C8.89009 5.75345 8.7944 5.72243 8.73702 5.64876C8.54127 5.39741 8.37906 5.11865 8.25712 4.81921C8.22188 4.73267 8.24286 4.6342 8.30656 4.56585L8.93886 3.88746C8.9891 3.83356 9.01228 3.76028 9.00686 3.6868C9.0023 3.62513 8.99998 3.56283 8.99998 3.5C8.99998 3.43717 9.0023 3.37487 9.00686 3.3132C9.01228 3.23972 8.9891 3.16644 8.93886 3.11254L8.30656 2.43415C8.24286 2.3658 8.22188 2.26733 8.25712 2.18079C8.37906 1.88135 8.54127 1.60259 8.73702 1.35124ZM11.5 4.5C12.0523 4.5 12.5 4.05228 12.5 3.5C12.5 2.94772 12.0523 2.5 11.5 2.5C10.9477 2.5 10.5 2.94772 10.5 3.5C10.5 4.05228 10.9477 4.5 11.5 4.5Z"/>
</svg>
