<svg width="16" height="16" viewBox="0 0 16 16" xmlns="http://www.w3.org/2000/svg">
  <path fill-rule="evenodd" clip-rule="evenodd" d="M7.79626 1.60461C7.85349 1.52819 7.95117 1.49518 8.0442 1.51664L8.89939 1.71385C8.97768 1.7319 9.05944 1.71069 9.12206 1.66036C9.35889 1.47002 9.62522 1.3149 9.91311 1.20295C9.98798 1.17384 10.0472 1.11365 10.0707 1.03683L10.3273 0.198344C10.3553 0.106886 10.4329 0.0387328 10.5279 0.0275645C10.6828 0.00936109 10.8403 0 11 0C11.1597 0 11.3173 0.00936125 11.4721 0.027565C11.5671 0.0387334 11.6447 0.106886 11.6727 0.198345L11.9293 1.03683C11.9528 1.11365 12.0121 1.17384 12.0869 1.20295C12.3748 1.3149 12.6411 1.47002 12.878 1.66036C12.9406 1.71069 13.0224 1.7319 13.1006 1.71385L13.9558 1.51664C14.0489 1.49518 14.1465 1.52819 14.2038 1.60461C14.392 1.85594 14.5513 2.13015 14.6768 2.42231C14.7146 2.51011 14.6943 2.61132 14.6292 2.68122L14.0305 3.32356C13.9758 3.38224 13.9533 3.46351 13.9654 3.54281C13.9882 3.69188 14 3.84456 14 4C14 4.15544 13.9882 4.30812 13.9654 4.45719C13.9533 4.53649 13.9758 4.61776 14.0305 4.67644L14.6292 5.31878C14.6943 5.38868 14.7146 5.48989 14.6768 5.57768C14.5513 5.86985 14.392 6.14406 14.2038 6.39539C14.1465 6.47181 14.0489 6.50482 13.9558 6.48336L13.1006 6.28615C13.0224 6.2681 12.9406 6.28931 12.878 6.33964C12.6411 6.52998 12.3748 6.6851 12.0869 6.79705C12.012 6.82616 11.9528 6.88635 11.9293 6.96317L11.6727 7.80166C11.6447 7.89311 11.5671 7.96127 11.4721 7.97243C11.3173 7.99064 11.1597 8 11 8C10.8403 8 10.6828 7.99064 10.5279 7.97244C10.4329 7.96127 10.3553 7.89311 10.3273 7.80166L10.0707 6.96317C10.0472 6.88635 9.98798 6.82616 9.91311 6.79705C9.62522 6.6851 9.35889 6.52998 9.12206 6.33964C9.05944 6.28931 8.97768 6.2681 8.89939 6.28615L8.0442 6.48336C7.95117 6.50482 7.85349 6.47181 7.79626 6.39539C7.60805 6.14406 7.44871 5.86985 7.32318 5.57769C7.28546 5.48989 7.30569 5.38868 7.37085 5.31878L7.96954 4.67644C8.02423 4.61776 8.04676 4.53649 8.03463 4.45719C8.01184 4.30812 8.00002 4.15544 8.00002 4C8.00002 3.84456 8.01184 3.69188 8.03463 3.54281C8.04676 3.46351 8.02423 3.38224 7.96954 3.32356L7.37085 2.68122C7.30569 2.61132 7.28546 2.51011 7.32318 2.42231C7.44871 2.13015 7.60805 1.85594 7.79626 1.60461ZM11 5.5C11.8284 5.5 12.5 4.82843 12.5 4C12.5 3.17157 11.8284 2.5 11 2.5C10.1716 2.5 9.50001 3.17157 9.50001 4C9.50001 4.82843 10.1716 5.5 11 5.5ZM2 11.5V2.5C2 1.11929 3.11929 0 4.5 0H6.25C6.66421 0 7 0.335786 7 0.75C7 1.16421 6.66421 1.5 6.25 1.5H4.5C3.94772 1.5 3.5 1.94772 3.5 2.5V9.20802C3.80623 9.07422 4.14445 9 4.5 9H12.5427C12.6456 8.7087 12.9234 8.5 13.25 8.5C13.6642 8.5 14 8.83579 14 9.25V13.25C14 13.6642 13.6642 14 13.25 14H10.75C10.3358 14 10 13.6642 10 13.25C10 12.8358 10.3358 12.5 10.75 12.5H12.5V10.5H4.5C3.94772 10.5 3.5 10.9477 3.5 11.5C3.5 11.78 3.61407 12.0319 3.80018 12.2143C4.09603 12.5042 4.10084 12.9791 3.81094 13.2749C3.52103 13.5708 3.04618 13.5756 2.75033 13.2857C2.28817 12.8328 2 12.1994 2 11.5ZM5 12.25V15.5C5 15.706 5.23519 15.8236 5.4 15.7L6.85 14.6125C6.93889 14.5458 7.06111 14.5458 7.15 14.6125L8.6 15.7C8.76481 15.8236 9 15.706 9 15.5V12.25C9 12.1119 8.88807 12 8.75 12H5.25C5.11193 12 5 12.1119 5 12.25Z"/>
</svg>
