<svg width="16" height="16" viewBox="0 0 16 16" xmlns="http://www.w3.org/2000/svg">
  <path fill-rule="evenodd" clip-rule="evenodd" d="M2 2.5A2.5 2.5 0 014.5 0h8.75a.75.75 0 01.75.75v12.5a.75.75 0 01-.75.75h-2.5a.75.75 0 010-1.5h1.75v-2h-8a1 1 0 00-.144 1.99.75.75 0 01-.212 1.485A2.5 2.5 0 012 11.5v-9zm10.5-1V9h-8c-.356 0-.694.074-1 .208V2.5a1 1 0 011-1h8zM6 12.25v3.146c0 .223.27.335.427.177l.896-.896a.25.25 0 01.354 0l.896.896A.25.25 0 009 15.396V12.25a.25.25 0 00-.25-.25h-2.5a.25.25 0 00-.25.25z"/>
</svg>
