<svg width="16" height="16" viewBox="0 0 16 16" xmlns="http://www.w3.org/2000/svg">
  <path fill-rule="evenodd" clip-rule="evenodd" d="M5 3.25a.75.75 0 11-1.5 0 .75.75 0 011.5 0zm0 2.122a2.25 2.25 0 10-1.5 0V6.1a2.25 2.25 0 001.191 1.985L7.25 9.45v1.178a2.251 2.251 0 101.5 0V9.45l2.559-1.365A2.25 2.25 0 0012.5 6.1v-.728a2.25 2.25 0 10-1.5 0V6.1a.75.75 0 01-.397.662L8 8.15 5.397 6.762A.75.75 0 015 6.1v-.728zm3.75 7.378a.75.75 0 11-1.5 0 .75.75 0 011.5 0zm3-8.75a.75.75 0 100-1.5.75.75 0 000 1.5z"/>
</svg>
