<svg width="16" height="16" viewBox="0 0 16 16" xmlns="http://www.w3.org/2000/svg">
  <path fill-rule="evenodd" clip-rule="evenodd" d="M4.5 0C3.11929 0 2 1.11929 2 2.5V11.5C2 12.1809 2.27322 12.7995 2.71432 13.2497C3.00423 13.5455 3.47908 13.5503 3.77492 13.2604C4.07077 12.9705 4.07559 12.4957 3.78568 12.1998C3.60819 12.0187 3.5 11.7727 3.5 11.5C3.5 10.9477 3.94772 10.5 4.5 10.5H12.5V12.5H10.75C10.3358 12.5 10 12.8358 10 13.25C10 13.6642 10.3358 14 10.75 14H13.25C13.6642 14 14 13.6642 14 13.25V9V7V0.75C14 0.335786 13.6642 0 13.25 0H4.5ZM12.5 7V1.5H4.5C3.94772 1.5 3.5 1.94772 3.5 2.5V9.20802C3.80623 9.07422 4.14445 9 4.5 9H12.5V7ZM5 15.5V12.25C5 12.1119 5.11193 12 5.25 12H8.75C8.88807 12 9 12.1119 9 12.25V15.5C9 15.706 8.76481 15.8236 8.6 15.7L7.15 14.6125C7.06111 14.5458 6.93889 14.5458 6.85 14.6125L5.4 15.7C5.23519 15.8236 5 15.706 5 15.5ZM6.75 3C6.33579 3 6 3.33579 6 3.75C6 4.16421 6.33579 4.5 6.75 4.5H7.5V6.75C7.5 7.16421 7.83579 7.5 8.25 7.5C8.66421 7.5 9 7.16421 9 6.75V4.5H9.75C10.1642 4.5 10.5 4.16421 10.5 3.75C10.5 3.33579 10.1642 3 9.75 3H6.75Z"/>
</svg>
