<svg width="16" height="16" viewBox="0 0 16 16" xmlns="http://www.w3.org/2000/svg">
  <path fill-rule="evenodd" clip-rule="evenodd" d="M9.00001 1.75C9.00001 1.33579 8.66422 1 8.25001 1C7.83579 1 7.5 1.33579 7.5 1.75V4.9999H4.25001C3.8358 4.9999 3.50001 5.33569 3.50001 5.7499C3.50001 6.16412 3.8358 6.4999 4.25001 6.4999H7.5V10C7.5 10.4142 7.83579 10.75 8.25001 10.75C8.66422 10.75 9.00001 10.4142 9.00001 10V6.4999H12.25C12.6642 6.4999 13 6.16412 13 5.7499C13 5.33569 12.6642 4.9999 12.25 4.9999H9.00001V1.75ZM4.25 12.9999C3.83579 12.9999 3.5 13.3357 3.5 13.7499C3.5 14.1642 3.83579 14.4999 4.25 14.4999H12.25C12.6642 14.4999 13 14.1642 13 13.7499C13 13.3357 12.6642 12.9999 12.25 12.9999H4.25Z"/>
</svg>
