<svg width="16" height="16" viewBox="0 0 16 16" xmlns="http://www.w3.org/2000/svg">
  <path fill-rule="evenodd" clip-rule="evenodd" d="M7.877 2.563A8.75 8.75 0 0114.064 0h.186C15.216 0 16 .784 16 1.75v.186a8.75 8.75 0 01-2.563 6.187L12 9.561v2.915a1.75 1.75 0 01-.754 1.439l-2.82 1.952a.75.75 0 01-1.143-.396l-.945-3.072-2.737-2.737L.53 8.717a.75.75 0 01-.396-1.144l1.952-2.82A1.75 1.75 0 013.524 4h2.915l1.438-1.437zM5.37 5.5H3.524a.25.25 0 00-.206.108L1.95 7.584l1.728.532L5.371 5.5zm-.41 3.398l2.143 2.143 3.674-2.378 1.6-1.6A7.25 7.25 0 0014.5 1.936V1.75a.25.25 0 00-.25-.25h-.186a7.25 7.25 0 00-5.127 2.123l-1.6 1.601-2.378 3.674zm5.541 1.73l-2.616 1.694.532 1.728 1.976-1.368a.25.25 0 00.108-.206v-1.847zM12 5a1 1 0 11-2 0 1 1 0 012 0zM2.771 15.245l-2.505.683a.157.157 0 01-.194-.194l.684-2.505a1.641 1.641 0 112.015 2.016z"/>
</svg>
