<svg width="16" height="16" viewBox="0 0 16 16" xmlns="http://www.w3.org/2000/svg">
  <path fill-rule="evenodd" clip-rule="evenodd" d="M6.877 3.563A8.75 8.75 0 0113.064 1h.186c.966 0 1.75.784 1.75 1.75v.186a8.75 8.75 0 01-2.563 6.187L11 10.561v2.85a1.75 1.75 0 01-.9 1.53l-1.736.965a.75.75 0 01-1.05-.351l-1-2.25a.75.75 0 011.371-.61l.667 1.501 1.02-.566a.25.25 0 00.128-.218V10.25a.75.75 0 01.22-.53l1.656-1.657A7.25 7.25 0 0013.5 2.936V2.75a.25.25 0 00-.25-.25h-.186a7.25 7.25 0 00-5.127 2.123L6.28 6.28a.75.75 0 01-.53.22H2.588a.25.25 0 00-.218.129l-.566 1.019 1.5.667a.75.75 0 01-.609 1.37l-2.25-1a.75.75 0 01-.35-1.05L1.058 5.9a1.75 1.75 0 011.53-.9h2.85l1.438-1.437zM6.78 9.22a.75.75 0 010 1.06l-2.5 2.5a.75.75 0 01-1.06-1.06l2.5-2.5a.75.75 0 011.06 0zM10 7a1 1 0 100-2 1 1 0 000 2z"/>
</svg>