<svg width="16" height="16" viewBox="0 0 16 16" xmlns="http://www.w3.org/2000/svg">
  <path fill-rule="evenodd" clip-rule="evenodd" d="M14.5 1.5h-1.35a6.25 6.25 0 00-4.42 1.83L5.28 6.78a.75.75 0 01-.53.22H2.56L9 13.44v-2.19a.75.75 0 01.22-.53l3.45-3.45a6.25 6.25 0 001.83-4.42V1.5zM13.15 0h1.6C15.44 0 16 .56 16 1.25v1.6a7.75 7.75 0 01-2.27 5.48l-3.23 3.23v3.69a.75.75 0 01-1.28.53l-9-9A.75.75 0 01.75 5.5h3.69l3.23-3.23A7.75 7.75 0 0113.15 0zM12 5a1 1 0 11-2 0 1 1 0 012 0zM2.771 15.244l-2.264.618a.3.3 0 01-.369-.37l.618-2.263a1.641 1.641 0 112.015 2.015z"/>
</svg>
