<svg width="16" height="16" viewBox="0 0 16 16" xmlns="http://www.w3.org/2000/svg">
  <path fill-rule="evenodd" clip-rule="evenodd" d="M6.872 3.068A10.474 10.474 0 0114.278 0C15.228 0 16 .771 16 1.722c0 2.778-1.104 5.442-3.068 7.406L11.53 10.53l-.53.53v3.483a1.25 1.25 0 01-2.134.884L7.75 14.31 1.69 8.25.572 7.134A1.25 1.25 0 011.457 5h3.482l.53-.53 1.403-1.402zm2.853 7.146l-.005.006-1.97 1.97-3.94-3.94 4.122-4.122A8.974 8.974 0 0114.278 1.5c.122 0 .222.1.222.222 0 2.38-.945 4.663-2.628 6.346l-2.147 2.146zM12 5a1 1 0 11-2 0 1 1 0 012 0zM2.771 15.244l-2.505.684a.157.157 0 01-.194-.194l.684-2.505a1.641 1.641 0 112.015 2.015z"/>
</svg>
