<svg width="16" height="16" viewBox="0 0 16 16" xmlns="http://www.w3.org/2000/svg">
  <path fill-rule="evenodd" clip-rule="evenodd" d="M10.5095 2.10866C9.79299 -0.421311 6.20703 -0.421311 5.49055 2.10866C5.32712 2.68575 4.7342 3.02807 4.15272 2.88106C1.60346 2.23656 -0.189523 5.34209 1.64326 7.22757C2.06131 7.65765 2.06131 8.34229 1.64326 8.77236C-0.189522 10.6578 1.60346 13.7634 4.15272 13.1189C4.7342 12.9719 5.32712 13.3142 5.49055 13.8913C6.20703 16.4212 9.79299 16.4212 10.5095 13.8913C10.6729 13.3142 11.2658 12.9719 11.8473 13.1189C14.3966 13.7634 16.1895 10.6578 14.3568 8.77236C13.9387 8.34229 13.9387 7.65765 14.3568 7.22757C16.1895 5.34209 14.3966 2.23656 11.8473 2.88106C11.2658 3.02807 10.6729 2.68575 10.5095 2.10866ZM6.93379 2.51738C7.23821 1.44245 8.76181 1.44245 9.06623 2.51738C9.45088 3.87562 10.8464 4.6813 12.215 4.3353C13.2981 4.06147 14.0599 5.38095 13.2812 6.18205C12.2972 7.19428 12.2972 8.80565 13.2812 9.81789C14.0599 10.619 13.2981 11.9385 12.215 11.6646C10.8464 11.3186 9.45088 12.1243 9.06623 13.4826C8.76181 14.5575 7.23821 14.5575 6.93379 13.4826C6.54914 12.1243 5.15366 11.3186 3.78506 11.6646C2.70193 11.9385 1.94013 10.619 2.71884 9.81789C3.70279 8.80565 3.70279 7.19428 2.71884 6.18205C1.94013 5.38095 2.70193 4.06147 3.78506 4.3353C5.15366 4.6813 6.54914 3.87562 6.93379 2.51738ZM8 10C9.10457 10 10 9.10457 10 8C10 6.89543 9.10457 6 8 6C6.89543 6 6 6.89543 6 8C6 9.10457 6.89543 10 8 10Z"/>
</svg>
