<svg width="16" height="16" viewBox="0 0 16 16" xmlns="http://www.w3.org/2000/svg">
  <path fill-rule="evenodd" clip-rule="evenodd" d="M7.8232 0.176739L4.92675 3.07319C4.76926 3.23068 4.8808 3.49996 5.10353 3.49996H7.25V9.25C7.25 9.66421 7.58579 10 8 10C8.41421 10 8.75 9.66421 8.75 9.25V3.49996H10.8964C11.1191 3.49996 11.2307 3.23068 11.0732 3.07319L8.17675 0.176739C8.07912 0.0791077 7.92083 0.079108 7.8232 0.176739ZM3.75 7.5C3.61193 7.5 3.5 7.61193 3.5 7.75V13.25C3.5 13.3881 3.61193 13.5 3.75 13.5H12.25C12.3881 13.5 12.5 13.3881 12.5 13.25V7.75C12.5 7.61193 12.3881 7.5 12.25 7.5H11.75C11.3358 7.5 11 7.16421 11 6.75C11 6.33579 11.3358 6 11.75 6H12.25C13.2165 6 14 6.7835 14 7.75V13.25C14 14.2165 13.2165 15 12.25 15H3.75C2.7835 15 2 14.2165 2 13.25V7.75C2 6.7835 2.7835 6 3.75 6H4.25C4.66421 6 5 6.33579 5 6.75C5 7.16421 4.66421 7.5 4.25 7.5H3.75Z"/>
</svg>
