<svg width="16" height="16" viewBox="0 0 16 16" xmlns="http://www.w3.org/2000/svg">
  <path fill-rule="evenodd" clip-rule="evenodd" d="M8.404.084a1.5 1.5 0 00-.808 0l-5.5 1.54A1.5 1.5 0 001 3.07v4.425A6.75 6.75 0 003.708 12.9l3.394 2.537a1.5 1.5 0 001.796 0l3.394-2.537A6.75 6.75 0 0015 7.494V3.07a1.5 1.5 0 00-1.096-1.445l-5.5-1.54zM2.5 3.07L8 1.529l5.5 1.54v4.425a5.25 5.25 0 01-2.106 4.205L8 14.236 4.606 11.7A5.25 5.25 0 012.5 7.494V3.07zM4 7.494V4.207l4-1.12v9.276l-2.495-1.865A3.75 3.75 0 014 7.494z"/>
</svg>
