<svg width="16" height="16" viewBox="0 0 16 16" xmlns="http://www.w3.org/2000/svg">
  <path fill-rule="evenodd" clip-rule="evenodd" d="M2.499 2.5zm.001 0v4.522c0 2.684 1.39 4.411 2.828 5.498a9.966 9.966 0 002.65 1.416l.024.008.024-.008a9.956 9.956 0 002.648-1.416c1.438-1.086 2.826-2.813 2.826-5.498V2.5h-11zm5.502 12.23l-.2.723h-.004l-.005-.002-.02-.006a4.736 4.736 0 01-.284-.091 11.466 11.466 0 01-3.065-1.637C2.737 12.443 1 10.316 1 7.022V2.5A1.5 1.5 0 012.5 1h11c.827 0 1.5.668 1.5 1.499v4.523c0 3.294-1.736 5.42-3.422 6.695a11.454 11.454 0 01-3.063 1.637 7.24 7.24 0 01-.284.091l-.019.006-.006.002h-.003l-.2-.722zm0 0l-.2.724a.75.75 0 00.4 0l-.2-.723z"/>
</svg>
