<svg width="16" height="16" viewBox="0 0 16 16" xmlns="http://www.w3.org/2000/svg">
  <path fill-rule="evenodd" clip-rule="evenodd" d="M2.75 2.5C2.61193 2.5 2.5 2.61193 2.5 2.75V6.25C2.5 7.98599 2.7802 9.35272 3.54927 10.5629C4.32469 11.783 5.65046 12.9279 7.90268 14.1078C7.96352 14.1396 8.03648 14.1396 8.09732 14.1078C10.3495 12.9279 11.6753 11.783 12.4507 10.5629C13.2198 9.35272 13.5 7.98599 13.5 6.25V2.75C13.5 2.61193 13.3881 2.5 13.25 2.5H2.75ZM1 2.75C1 1.7835 1.7835 1 2.75 1H13.25C14.2165 1 15 1.7835 15 2.75V6.25C15 8.1501 14.6926 9.83185 13.7167 11.3674C12.7472 12.893 11.1706 14.1912 8.79338 15.4365C8.29659 15.6967 7.70341 15.6967 7.20662 15.4365C4.8294 14.1912 3.25284 12.893 2.2833 11.3674C1.30741 9.83185 1 8.1501 1 6.25V2.75Z"/>
</svg>
