<svg width="16" height="16" viewBox="0 0 16 16" xmlns="http://www.w3.org/2000/svg">
  <path fill-rule="evenodd" clip-rule="evenodd" d="M2 2.75C2 1.7835 2.7835 1 3.75 1H6.25C6.66421 1 7 1.33579 7 1.75C7 2.16421 6.66421 2.5 6.25 2.5H3.75C3.61193 2.5 3.5 2.61193 3.5 2.75V13.25C3.5 13.3881 3.61193 13.5 3.75 13.5H6.25C6.66421 13.5 7 13.8358 7 14.25C7 14.6642 6.66421 15 6.25 15H3.75C2.7835 15 2 14.2165 2 13.25V2.75ZM11 8.75V10.8964C11 11.1191 11.2693 11.2307 11.4268 11.0732L14.3233 8.17675C14.4209 8.07912 14.4209 7.92083 14.3233 7.8232L11.4268 4.92675C11.2693 4.76926 11 4.8808 11 5.10353V7.25L6.75002 7.25C6.33581 7.25 6.00002 7.58579 6.00002 8C6.00002 8.41421 6.33581 8.75 6.75002 8.75L11 8.75Z"/>
</svg>
