<svg width="16" height="16" viewBox="0 0 16 16" xmlns="http://www.w3.org/2000/svg">
  <path fill-rule="evenodd" clip-rule="evenodd" d="M6.67963 0.432816C6.5564 0.168771 6.29139 0 6 0C5.70861 0 5.4436 0.168771 5.32037 0.432816L4.11115 3.02381C3.88765 3.50271 3.50271 3.88765 3.02382 4.11115L0.432816 5.32037C0.168771 5.4436 0 5.70861 0 6C0 6.29139 0.168771 6.5564 0.432816 6.67963L3.02381 7.88885C3.50271 8.11235 3.88765 8.49729 4.11115 8.97618L5.32037 11.5672C5.4436 11.8312 5.70861 12 6 12C6.29139 12 6.5564 11.8312 6.67963 11.5672L7.88885 8.97618C8.11235 8.49729 8.49729 8.11235 8.97618 7.88885L11.5672 6.67963C11.8312 6.5564 12 6.29139 12 6C12 5.70861 11.8312 5.4436 11.5672 5.32037L8.97618 4.11115C8.49729 3.88765 8.11235 3.50271 7.88885 3.02382L6.67963 0.432816ZM5.47041 3.65818L6 2.52342L6.5296 3.65818C6.9021 4.45634 7.54366 5.0979 8.34182 5.47041L9.47658 6L8.34182 6.5296C7.54366 6.9021 6.9021 7.54366 6.52959 8.34182L6 9.47658L5.4704 8.34182C5.0979 7.54366 4.45634 6.9021 3.65818 6.52959L2.52342 6L3.65818 5.4704C4.45634 5.0979 5.0979 4.45634 5.47041 3.65818ZM13.1796 9.43282C13.0564 9.16877 12.7914 9 12.5 9C12.2086 9 11.9436 9.16877 11.8204 9.43282L11.4066 10.3193C11.1831 10.7982 10.7982 11.1831 10.3193 11.4066L9.43282 11.8204C9.16877 11.9436 9 12.2086 9 12.5C9 12.7914 9.16877 13.0564 9.43282 13.1796L10.3193 13.5934C10.7982 13.8169 11.1831 14.2018 11.4066 14.6807L11.8204 15.5672C11.9436 15.8312 12.2086 16 12.5 16C12.7914 16 13.0564 15.8312 13.1796 15.5672L13.5934 14.6807C13.8169 14.2018 14.2018 13.8169 14.6807 13.5934L15.5672 13.1796C15.8312 13.0564 16 12.7914 16 12.5C16 12.2086 15.8312 11.9436 15.5672 11.8204L14.6807 11.4066C14.2018 11.1831 13.8169 10.7982 13.5934 10.3193L13.1796 9.43282ZM11.4297 12.5C11.8555 12.2197 12.2197 11.8555 12.5 11.4297C12.7803 11.8555 13.1445 12.2197 13.5703 12.5C13.1445 12.7803 12.7803 13.1445 12.5 13.5703C12.2197 13.1445 11.8555 12.7803 11.4297 12.5Z"/>
</svg>
