<svg width="16" height="16" viewBox="0 0 16 16" xmlns="http://www.w3.org/2000/svg">
  <path fill-rule="evenodd" clip-rule="evenodd" d="M4.51295 7.25419L9.49233 3.77798L10.9575 6.21989L5.43024 8.84299L4.51295 7.25419ZM3.27847 8.116L1.82582 9.13012C1.7728 9.16714 1.75676 9.23849 1.78885 9.29463L2.30517 10.1982C2.33759 10.255 2.40825 10.2772 2.46729 10.2491L4.0707 9.4882L3.27847 8.116ZM12.3191 5.57372L10.7252 2.91729L12.4399 1.72024C12.499 1.67896 12.5807 1.69614 12.6182 1.75774L14.2812 4.48985C14.3198 4.55319 14.295 4.63598 14.228 4.66777L12.3191 5.57372ZM0.48647 10.0388C0.0693967 9.30892 0.277879 8.38141 0.967183 7.90019L11.5812 0.490305C12.3499 -0.0463478 13.4121 0.177011 13.8995 0.977829L15.5625 3.70994C16.0637 4.53338 15.742 5.60961 14.8711 6.02291L3.11041 11.6043C2.34287 11.9685 1.42429 11.6801 1.00279 10.9424L0.48647 10.0388ZM11.6741 15.3687C12.0158 15.1345 12.103 14.6677 11.8689 14.326L9.21379 10.451C9.00539 10.1469 8.60684 10.0393 8.27371 10.1973L6.42878 11.0722C6.30606 11.1304 6.20145 11.2209 6.12612 11.3339L4.12612 14.3339C3.89635 14.6785 3.98948 15.1442 4.33413 15.3739C4.67878 15.6037 5.14443 15.5106 5.37419 15.1659L7.25003 12.3522V15.25C7.25003 15.6642 7.58582 16 8.00003 16C8.41425 16 8.75003 15.6642 8.75003 15.25V12.428L10.6315 15.1739C10.8656 15.5156 11.3324 15.6028 11.6741 15.3687Z"/>
</svg>
