<svg width="16" height="16" viewBox="0 0 16 16" xmlns="http://www.w3.org/2000/svg">
  <path fill-rule="evenodd" clip-rule="evenodd" d="M6.5 1.75a.25.25 0 01.25-.25h2.5a.25.25 0 01.25.25V3h-3V1.75zm4.5 0V3h2.25a.75.75 0 010 1.5H2.75a.75.75 0 010-1.5H5V1.75C5 .784 5.784 0 6.75 0h2.5C10.216 0 11 .784 11 1.75zm-6.507 4.9a.75.75 0 00-1.486.2l.884 6.631A1.75 1.75 0 005.626 15h4.748a1.75 1.75 0 001.735-1.519l.884-6.632a.75.75 0 10-1.486-.198l-.885 6.632a.25.25 0 01-.248.217H5.626a.25.25 0 01-.248-.217l-.885-6.632z"/>
</svg>
