<svg width="16" height="16" viewBox="0 0 16 16" xmlns="http://www.w3.org/2000/svg">
  <path fill-rule="evenodd" clip-rule="evenodd" d="M6.5 1.75C6.5 1.6837 6.52634 1.62011 6.57322 1.57322C6.62011 1.52634 6.6837 1.5 6.75 1.5H9.25C9.3163 1.5 9.37989 1.52634 9.42678 1.57322C9.47366 1.62011 9.5 1.6837 9.5 1.75V3H6.5V1.75ZM11 1.75V3H13.25C13.4489 3 13.6397 3.07902 13.7803 3.21967C13.921 3.36032 14 3.55109 14 3.75C14 3.94891 13.921 4.13968 13.7803 4.28033C13.6397 4.42098 13.4489 4.5 13.25 4.5H2.75C2.55109 4.5 2.36032 4.42098 2.21967 4.28033C2.07902 4.13968 2 3.94891 2 3.75C2 3.55109 2.07902 3.36032 2.21967 3.21967C2.36032 3.07902 2.55109 3 2.75 3H5V1.75C5 0.784 5.784 0 6.75 0H9.25C10.216 0 11 0.784 11 1.75ZM4.493 6.65C4.46149 6.45732 4.35609 6.28453 4.1992 6.16834C4.0423 6.05214 3.84628 6.00171 3.65279 6.02775C3.4593 6.05379 3.28359 6.15426 3.163 6.3078C3.04241 6.46134 2.98645 6.65585 3.007 6.85L3.891 13.481C3.94699 13.9015 4.15379 14.2873 4.47293 14.5667C4.79207 14.8461 5.20183 15.0001 5.626 15H10.374C10.7982 15.0001 11.2079 14.8461 11.5271 14.5667C11.8462 14.2873 12.053 13.9015 12.109 13.481L12.993 6.849C13.0097 6.74975 13.0062 6.64817 12.9828 6.55029C12.9594 6.45241 12.9165 6.36025 12.8568 6.27928C12.797 6.19832 12.7215 6.13021 12.6349 6.07902C12.5482 6.02782 12.4522 5.99459 12.3524 5.9813C12.2527 5.96801 12.1513 5.97493 12.0542 6.00165C11.9572 6.02837 11.8666 6.07434 11.7877 6.13683C11.7088 6.19932 11.6433 6.27705 11.5951 6.36538C11.5468 6.45372 11.5169 6.55085 11.507 6.651L10.622 13.283C10.614 13.3431 10.5844 13.3982 10.5388 13.4381C10.4932 13.4781 10.4346 13.5 10.374 13.5H5.626C5.56538 13.5 5.50681 13.4781 5.46119 13.4381C5.41557 13.3982 5.386 13.3431 5.378 13.283L4.493 6.651V6.65Z"/>
</svg>
