<svg width="16" height="16" viewBox="0 0 16 16" xmlns="http://www.w3.org/2000/svg">
  <path fill-rule="evenodd" clip-rule="evenodd" d="M5.70963 8.5L4.2502 4.12171L2.79077 8.5H5.70963ZM6.20963 10L7.03869 12.4872C7.16968 12.8801 7.59442 13.0925 7.98737 12.9615C8.38033 12.8305 8.5927 12.4058 8.46172 12.0128L5.40046 2.82906C5.23542 2.33395 4.77209 2 4.2502 2C3.72832 2 3.26498 2.33395 3.09995 2.82906L0.038691 12.0128C-0.0922948 12.4058 0.120075 12.8305 0.513033 12.9615C0.90599 13.0925 1.33073 12.8801 1.46172 12.4872L2.29077 10H6.20963ZM10.6482 4.0981C11.2532 3.7459 11.9629 3.6167 12.7305 3.6167C13.5202 3.6167 14.3357 3.79613 14.97 4.29308C15.6336 4.81295 16.0002 5.60314 16.0002 6.60106V12.25C16.0002 12.6642 15.6644 13 15.2502 13C14.9243 13 14.6469 12.792 14.5435 12.5016C13.9386 12.8127 13.1667 13 12.25 13C11.4858 13 10.7006 12.773 10.0877 12.3236C9.46203 11.8647 9 11.155 9 10.25C9 9.55082 9.26983 8.82367 9.93773 8.28935C10.586 7.77071 11.5258 7.5 12.75 7.5H14.5002V6.60106C14.5002 5.99789 14.2964 5.67089 14.0449 5.47387C13.7642 5.2539 13.3198 5.1167 12.7305 5.1167C12.1193 5.1167 11.7002 5.22137 11.4029 5.39442C11.1195 5.55945 10.8806 5.82496 10.6952 6.28193C10.5395 6.66575 10.1021 6.85067 9.71824 6.69495C9.33441 6.53923 9.1495 6.10184 9.30522 5.71801C9.59269 5.00944 10.0295 4.45832 10.6482 4.0981ZM14.5002 9H12.75C11.7242 9 11.164 9.22929 10.8748 9.46065C10.6052 9.67633 10.5 9.94918 10.5 10.25C10.5 10.595 10.663 10.8853 10.9748 11.1139C11.2994 11.352 11.7642 11.5 12.25 11.5C13.1278 11.5 13.7224 11.2807 14.0751 11.0382C14.4475 10.7822 14.5 10.5483 14.5 10.5H14.5002V9Z"/>
</svg>
