<svg width="16" height="16" viewBox="0 0 16 16" xmlns="http://www.w3.org/2000/svg">
  <path fill-rule="evenodd" clip-rule="evenodd" d="M8.1768 0.673229L11.0732 3.56968C11.2307 3.72717 11.1192 3.99645 10.8965 3.99645H8.75V5.74646C8.75 6.16067 8.41421 6.49646 8 6.49646C7.58579 6.49646 7.25 6.16067 7.25 5.74646V3.99645H5.10358C4.88085 3.99645 4.76931 3.72717 4.9268 3.56968L7.82325 0.673229C7.92088 0.575598 8.07917 0.575598 8.1768 0.673229ZM8.75 10.7465C8.75 10.3322 8.41421 9.99646 8 9.99646C7.58579 9.99646 7.25 10.3322 7.25 10.7465V12.4965H5.10353C4.8808 12.4965 4.76926 12.7658 4.92675 12.9232L7.8232 15.8197C7.92083 15.9173 8.07912 15.9173 8.17675 15.8197L11.0732 12.9232C11.2307 12.7658 11.1191 12.4965 10.8964 12.4965H8.75V10.7465ZM1.75 7.49646C1.33579 7.49646 1 7.83225 1 8.24646C1 8.66067 1.33579 8.99646 1.75 8.99646H14.25C14.6642 8.99646 15 8.66067 15 8.24646C15 7.83225 14.6642 7.49646 14.25 7.49646H1.75Z"/>
</svg>
