<svg width="16" height="16" viewBox="0 0 16 16" xmlns="http://www.w3.org/2000/svg">
  <path d="M10.5732 2.57318L8.17675 0.176738C8.07912 0.0791077 7.92083 0.079108 7.8232 0.176739L5.42677 2.57319C5.26928 2.73068 5.38082 2.99996 5.60355 2.99996H7.25V5.25C7.25 5.66421 7.58579 6 8 6C8.41421 6 8.75 5.66421 8.75 5.25V2.99996H10.3964C10.6192 2.99996 10.7307 2.73068 10.5732 2.57318Z"/>
  <path d="M2.75 10.75C2.61193 10.75 2.5 10.6381 2.5 10.5V8.75H13.5V10.5C13.5 10.6381 13.3881 10.75 13.25 10.75H12C11.5858 10.75 11.25 11.0858 11.25 11.5C11.25 11.9142 11.5858 12.25 12 12.25H13.25C14.2165 12.25 15 11.4665 15 10.5V5.5C15 4.5335 14.2165 3.75 13.25 3.75H12C11.5858 3.75 11.25 4.08579 11.25 4.5C11.25 4.91421 11.5858 5.25 12 5.25H13.25C13.3881 5.25 13.5 5.36193 13.5 5.5V7.25H2.5V5.5C2.5 5.36193 2.61193 5.25 2.75 5.25H4C4.41421 5.25 4.75 4.91421 4.75 4.5C4.75 4.08579 4.41421 3.75 4 3.75H2.75C1.7835 3.75 1 4.5335 1 5.5V10.5C1 11.4665 1.7835 12.25 2.75 12.25H4C4.41421 12.25 4.75 11.9142 4.75 11.5C4.75 11.0858 4.41421 10.75 4 10.75H2.75Z"/>
  <path d="M10.5732 13.4268L8.17675 15.8233C8.07912 15.9209 7.92083 15.9209 7.8232 15.8233L5.42677 13.4268C5.26928 13.2693 5.38082 13 5.60355 13H7.25V10.75C7.25 10.3358 7.58579 10 8 10C8.41421 10 8.75 10.3358 8.75 10.75V13H10.3964C10.6192 13 10.7307 13.2693 10.5732 13.4268Z"/>
</svg>
