<svg width="16" height="16" viewBox="0 0 16 16" xmlns="http://www.w3.org/2000/svg">
  <path fill-rule="evenodd" clip-rule="evenodd" d="M11.0732 3.07319L8.17678 0.176739C8.07915 0.079108 7.92086 0.0791077 7.82323 0.176739L4.92678 3.07319C4.76929 3.23068 4.88083 3.49996 5.10356 3.49996H7.25V5.24994C7.25 5.66415 7.58579 5.99994 8 5.99994C8.41421 5.99994 8.75 5.66415 8.75 5.24994V3.49996H10.8965C11.1192 3.49996 11.2307 3.23068 11.0732 3.07319ZM4.92677 12.9267L7.82322 15.8231C7.92085 15.9208 8.07914 15.9208 8.17677 15.8231L11.0732 12.9267C11.2307 12.7692 11.1192 12.4999 10.8964 12.4999H8.75V10.7499C8.75 10.3357 8.41421 9.99994 8 9.99994C7.58579 9.99994 7.25 10.3357 7.25 10.7499V12.4999H5.10355C4.88082 12.4999 4.76928 12.7692 4.92677 12.9267ZM1.5 3.50902C1.5 3.50741 1.50015 3.50661 1.5002 3.50639L1.50041 3.50571C1.50064 3.50517 1.50129 3.50396 1.50266 3.5026C1.50403 3.50123 1.50523 3.50057 1.50577 3.50034L1.50645 3.50013C1.50667 3.50009 1.50747 3.49994 1.50908 3.49994H2.75C3.16421 3.49994 3.5 3.16415 3.5 2.74994C3.5 2.33573 3.16421 1.99994 2.75 1.99994H1.50908C0.675637 1.99994 0 2.67558 0 3.50902C0 3.82067 0.0964872 4.12467 0.27621 4.37928L2.83197 7.99994L0.27621 11.6206C0.0964872 11.8752 0 12.1792 0 12.4909C0 13.3243 0.675637 13.9999 1.50908 13.9999H2.75C3.16421 13.9999 3.5 13.6642 3.5 13.2499C3.5 12.8357 3.16421 12.4999 2.75 12.4999H1.50908C1.50747 12.4999 1.50667 12.4998 1.50645 12.4997L1.50577 12.4995C1.50523 12.4993 1.50403 12.4986 1.50266 12.4973C1.50129 12.4959 1.50064 12.4947 1.50041 12.4942L1.5002 12.4935C1.50015 12.4933 1.5 12.4925 1.5 12.4909C1.5 12.489 1.50058 12.4872 1.50166 12.4856L4.13862 8.74994H11.8614L14.4983 12.4856C14.4994 12.4872 14.5 12.489 14.5 12.4909L14.4999 12.4926L14.4998 12.4935L14.4996 12.4942C14.4994 12.4947 14.4987 12.4959 14.4973 12.4973C14.496 12.4986 14.4948 12.4993 14.4942 12.4995L14.4935 12.4997L14.4924 12.4999L14.4909 12.4999H13.25C12.8358 12.4999 12.5 12.8357 12.5 13.2499C12.5 13.6642 12.8358 13.9999 13.25 13.9999H14.4909C15.3244 13.9999 16 13.3243 16 12.4909C16 12.1792 15.9035 11.8752 15.7238 11.6206L13.168 7.99994L15.7238 4.37928C15.9035 4.12467 16 3.82067 16 3.50902C16 2.67558 15.3244 1.99994 14.4909 1.99994H13.25C12.8358 1.99994 12.5 2.33573 12.5 2.74994C12.5 3.16415 12.8358 3.49994 13.25 3.49994H14.4909C14.4925 3.49994 14.4933 3.50009 14.4935 3.50013L14.4942 3.50034L14.4947 3.50057C14.4953 3.5009 14.4963 3.50154 14.4973 3.5026L14.4988 3.50433L14.4996 3.50571L14.4998 3.50639C14.4998 3.50661 14.5 3.50741 14.5 3.50902C14.5 3.51089 14.4994 3.51272 14.4983 3.51425L11.8614 7.24994H4.13862L1.50166 3.51425C1.50058 3.51272 1.5 3.51089 1.5 3.50902Z"/>
</svg>
