<svg width="16" height="16" viewBox="0 0 16 16" xmlns="http://www.w3.org/2000/svg">
  <path fill-rule="evenodd" clip-rule="evenodd" d="M8.17677 0.1768L11.0732 3.07325C11.2307 3.23074 11.1192 3.50002 10.8964 3.50002H8.75V5.25C8.75 5.66421 8.41421 6 8 6C7.58579 6 7.25 5.66421 7.25 5.25V3.50002H5.10355C4.88082 3.50002 4.76928 3.23074 4.92677 3.07325L7.82322 0.1768C7.92085 0.0791689 8.07914 0.0791689 8.17677 0.1768ZM8.75 10.25C8.75 9.83579 8.41421 9.5 8 9.5C7.58579 9.5 7.25 9.83579 7.25 10.25V12H5.10356C4.88083 12 4.76929 12.2693 4.92678 12.4268L7.82323 15.3232C7.92086 15.4208 8.07915 15.4208 8.17678 15.3232L11.0732 12.4268C11.2307 12.2693 11.1192 12 10.8965 12H8.75V10.25ZM2.75 7C2.33579 7 2 7.33579 2 7.75C2 8.16421 2.33579 8.5 2.75 8.5H13.25C13.6642 8.5 14 8.16421 14 7.75C14 7.33579 13.6642 7 13.25 7H2.75Z"/>
</svg>
