<svg width="16" height="16" viewBox="0 0 16 16" xmlns="http://www.w3.org/2000/svg">
  <path fill-rule="evenodd" clip-rule="evenodd" d="M5.5 4C5.49991 3.4592 5.67518 2.93295 5.99953 2.5002C6.32387 2.06745 6.7798 1.75155 7.2989 1.59989C7.818 1.44823 8.37229 1.46898 8.87859 1.65904C9.3849 1.8491 9.81593 2.19821 10.107 2.654C10.2141 2.82162 10.3835 2.93981 10.5778 2.98256C10.7721 3.02532 10.9754 2.98915 11.143 2.882C11.3106 2.77485 11.4288 2.60551 11.4716 2.41122C11.5143 2.21693 11.4781 2.01362 11.371 1.846C10.9052 1.1168 10.2156 0.558296 9.40547 0.254271C8.59538 -0.0497532 7.70855 -0.0829012 6.87802 0.1598C6.04749 0.402502 5.31806 0.907966 4.79915 1.60036C4.28024 2.29275 3.99983 3.13474 4 4V6H3.749C3.28504 6.00027 2.84018 6.18476 2.51221 6.51292C2.18424 6.84108 2 7.28605 2 7.75V13.25C2 14.216 2.784 15 3.75 15H12.25C12.7141 15 13.1592 14.8156 13.4874 14.4874C13.8156 14.1593 14 13.7141 14 13.25V7.75C14 7.28587 13.8156 6.84075 13.4874 6.51257C13.1592 6.18438 12.7141 6 12.25 6H5.5V4Z"/>
</svg>
