<svg width="16" height="16" viewBox="0 0 16 16" xmlns="http://www.w3.org/2000/svg">
  <path fill-rule="evenodd" clip-rule="evenodd" d="M11.4697 6.03033C11.7626 6.32322 12.2374 6.32322 12.5303 6.03033C12.8232 5.73744 12.8232 5.26256 12.5303 4.96967L8.78033 1.21967C8.48744 0.926777 8.01256 0.926777 7.71967 1.21967L3.96967 4.96967C3.67678 5.26256 3.67678 5.73744 3.96967 6.03033C4.26256 6.32322 4.73744 6.32322 5.03033 6.03033L7.5 3.56066V11.25C7.5 11.6642 7.83579 12 8.25 12C8.66421 12 9 11.6642 9 11.25V3.56066L11.4697 6.03033ZM3.25 14.25C3.25 13.8358 3.58579 13.5 4 13.5L12.5 13.5C12.9142 13.5 13.25 13.8358 13.25 14.25C13.25 14.6642 12.9142 15 12.5 15L4 15C3.58579 15 3.25 14.6642 3.25 14.25Z"/>
</svg>
