<svg width="16" height="16" viewBox="0 0 16 16" xmlns="http://www.w3.org/2000/svg">
  <path fill-rule="evenodd" clip-rule="evenodd" d="M4.5 3C4.5 3.82843 3.82843 4.5 3 4.5C2.17157 4.5 1.5 3.82843 1.5 3C1.5 2.17157 2.17157 1.5 3 1.5C3.82843 1.5 4.5 2.17157 4.5 3ZM3.75 5.90549C5.04392 5.57245 6 4.39788 6 3C6 1.34315 4.65685 0 3 0C1.34315 0 0 1.34315 0 3C0 4.39788 0.95608 5.57245 2.25 5.90549L2.25 7V12C2.25 13.5188 3.48122 14.75 5 14.75H5.14538C5.44207 15.483 6.16066 16 7 16C7.84433 16 8.56645 15.4768 8.85986 14.7369C8.90526 14.7455 8.9521 14.75 9 14.75H10.6454C10.9421 15.483 11.6607 16 12.5 16C13.6046 16 14.5 15.1046 14.5 14C14.5 12.8954 13.6046 12 12.5 12C11.6607 12 10.9421 12.517 10.6454 13.25H9C8.9521 13.25 8.90526 13.2545 8.85986 13.2631C8.56645 12.5232 7.84433 12 7 12C6.16066 12 5.44207 12.517 5.14538 13.25H5C4.30964 13.25 3.75 12.6904 3.75 12V9.45015C4.12503 9.64186 4.54989 9.75 5 9.75H5.14538C5.44207 10.483 6.16066 11 7 11C7.84433 11 8.56645 10.4768 8.85986 9.73693C8.90526 9.74551 8.9521 9.75 9 9.75H10.6454C10.9421 10.483 11.6607 11 12.5 11C13.6046 11 14.5 10.1046 14.5 9C14.5 7.89543 13.6046 7 12.5 7C11.6607 7 10.9421 7.51704 10.6454 8.25H9C8.9521 8.25 8.90526 8.25449 8.85986 8.26307C8.56645 7.5232 7.84433 7 7 7C6.16066 7 5.44207 7.51704 5.14538 8.25H5C4.30964 8.25 3.75 7.69036 3.75 7L3.75 5.90549ZM7 9.5C7.27614 9.5 7.5 9.27614 7.5 9C7.5 8.72386 7.27614 8.5 7 8.5C6.72386 8.5 6.5 8.72386 6.5 9C6.5 9.27614 6.72386 9.5 7 9.5ZM7 14.5C7.27614 14.5 7.5 14.2761 7.5 14C7.5 13.7239 7.27614 13.5 7 13.5C6.72386 13.5 6.5 13.7239 6.5 14C6.5 14.2761 6.72386 14.5 7 14.5ZM13 9C13 9.27614 12.7761 9.5 12.5 9.5C12.2239 9.5 12 9.27614 12 9C12 8.72386 12.2239 8.5 12.5 8.5C12.7761 8.5 13 8.72386 13 9ZM12.5 14.5C12.7761 14.5 13 14.2761 13 14C13 13.7239 12.7761 13.5 12.5 13.5C12.2239 13.5 12 13.7239 12 14C12 14.2761 12.2239 14.5 12.5 14.5Z"/>
</svg>
