<svg width="16" height="16" viewBox="0 0 16 16" xmlns="http://www.w3.org/2000/svg">
  <path fill-rule="evenodd" clip-rule="evenodd" d="M1.5 8.125C1.5 6.12297 3.12297 4.5 5.125 4.5C7.12703 4.5 8.75 6.12297 8.75 8.125C8.75 10.127 7.12703 11.75 5.125 11.75C3.12297 11.75 1.5 10.127 1.5 8.125ZM5.125 3C2.29454 3 0 5.29454 0 8.125C0 10.9555 2.29454 13.25 5.125 13.25C5.2161 13.25 5.30665 13.2476 5.39658 13.2429C5.43039 13.2476 5.46491 13.25 5.5 13.25H8.25H8.33333H11.0833C13.8328 13.25 16 10.9206 16 8.125C16 5.32944 13.8328 3 11.0833 3H8.33333H8.25H5.5C5.46491 3 5.43039 3.00241 5.39658 3.00707C5.30665 3.00238 5.2161 3 5.125 3ZM14.5 8.125C14.5 9.85018 13.3783 11.2534 11.9092 11.6425C12.7434 10.7194 13.25 9.47667 13.25 8.125C13.25 6.77333 12.7434 5.53063 11.9092 4.60752C13.3783 4.99663 14.5 6.39982 14.5 8.125ZM8.77842 4.53082C9.68851 5.45582 10.25 6.72484 10.25 8.125C10.25 9.52516 9.68851 10.7942 8.77842 11.7192C10.43 11.4891 11.75 9.99649 11.75 8.125C11.75 6.25351 10.43 4.76094 8.77842 4.53082ZM4 6.18684V9.81313C4 9.893 4.08901 9.94064 4.15547 9.89634L6.87519 8.08319C6.93457 8.04361 6.93457 7.95636 6.87519 7.91678L4.15547 6.10363C4.08901 6.05933 4 6.10697 4 6.18684Z"/>
</svg>
