<svg width="16" height="16" viewBox="0 0 16 16" xmlns="http://www.w3.org/2000/svg">
  <path fill-rule="evenodd" clip-rule="evenodd" d="M0 1.75C0 0.783502 0.783502 0 1.75 0H4.75C5.7165 0 6.5 0.783502 6.5 1.75V4.75C6.5 5.7165 5.7165 6.5 4.75 6.5H4V11.25C4 11.8023 4.44772 12.25 5 12.25H9.5V11.25C9.5 10.2835 10.2835 9.5 11.25 9.5H14.25C15.2165 9.5 16 10.2835 16 11.25V14.25C16 15.2165 15.2165 16 14.25 16H11.25C10.2835 16 9.5 15.2165 9.5 14.25V13.75H5C3.61929 13.75 2.5 12.6307 2.5 11.25V6.5H1.75C0.783502 6.5 0 5.7165 0 4.75V1.75ZM1.75 1.5C1.61193 1.5 1.5 1.61193 1.5 1.75V4.75C1.5 4.88807 1.61193 5 1.75 5H4.75C4.88807 5 5 4.88807 5 4.75V1.75C5 1.61193 4.88807 1.5 4.75 1.5H1.75ZM11.25 11C11.1119 11 11 11.1119 11 11.25V14.25C11 14.3881 11.1119 14.5 11.25 14.5H14.25C14.3881 14.5 14.5 14.3881 14.5 14.25V11.25C14.5 11.1119 14.3881 11 14.25 11H11.25Z"/>
</svg>
