<svg width="16" height="16" viewBox="0 0 16 16" xmlns="http://www.w3.org/2000/svg">
  <path fill-rule="evenodd" clip-rule="evenodd" d="M8 16C12.4183 16 16 12.4183 16 8C16 3.58172 12.4183 0 8 0C3.58172 0 0 3.58172 0 8C0 12.4183 3.58172 16 8 16ZM6.28033 5.21967C5.98744 4.92678 5.51256 4.92678 5.21967 5.21967C4.92678 5.51256 4.92678 5.98744 5.21967 6.28033L6.93934 8L5.21967 9.71967C4.92678 10.0126 4.92678 10.4874 5.21967 10.7803C5.51256 11.0732 5.98744 11.0732 6.28033 10.7803L8 9.06066L9.71967 10.7803C10.0126 11.0732 10.4874 11.0732 10.7803 10.7803C11.0732 10.4874 11.0732 10.0126 10.7803 9.71967L9.06066 8L10.7803 6.28033C11.0732 5.98744 11.0732 5.51256 10.7803 5.21967C10.4874 4.92678 10.0126 4.92678 9.71967 5.21967L8 6.93934L6.28033 5.21967Z"/>
</svg>
